//  Geo file generated by Discrete Fracture Network methods 
// Fracture #1 

// POINTS DEFINITION 

h = 0;

Point(1) = {0,0,0, h};
Point(2) = {20,0,0, h};
Point(3) = {50,0,0, h};
Point(4) = {80,0,0, h};
Point(5) = {100,0,0, h};
Point(6) = {0,0,10, h};
Point(7) = {20,0,10, h};
Point(8) = {50,0,10, h};
Point(9) = {80,0,10, h};
Point(10) = {100,0,10, h};
Point(11) = {0,0,32.1, h};
Point(12) = {20,0,32.1, h};
Point(13) = {50,0,32.1, h};
Point(14) = {80,0,32.1, h};
Point(15) = {100,0,32.1, h};
Point(16) = {0,0,67.9, h};
Point(17) = {20,0,67.9, h};
Point(18) = {50,0,67.9, h};
Point(19) = {80,0,67.9, h};
Point(20) = {100,0,67.9, h};
Point(21) = {0,0,90, h};
Point(22) = {20,0,90, h};
Point(23) = {50,0,90, h};
Point(24) = {80,0,90, h};
Point(25) = {100,0,90, h};
Point(26) = {0,0,100, h};
Point(27) = {20,0,100, h};
Point(28) = {50,0,100, h};
Point(29) = {80,0,100, h};
Point(30) = {100,0,100, h};
Point(31) = {0,100,0, h};
Point(32) = {20,100,0, h};
Point(33) = {20,100,10, h};
Point(34) = {0,100,10, h};
Point(35) = {50,100,0, h};
Point(36) = {50,100,10, h};
Point(37) = {80,100,0, h};
Point(38) = {80,100,10, h};
Point(39) = {100,100,0, h};
Point(40) = {100,100,10, h};
Point(41) = {20,100,32.1, h};
Point(42) = {0,100,32.1, h};
Point(43) = {50,100,32.1, h};
Point(44) = {80,100,32.1, h};
Point(45) = {100,100,32.1, h};
Point(46) = {20,100,67.9, h};
Point(47) = {0,100,67.9, h};
Point(48) = {50,100,67.9, h};
Point(49) = {80,100,67.9, h};
Point(50) = {100,100,67.9, h};
Point(51) = {20,100,90, h};
Point(52) = {0,100,90, h};
Point(53) = {50,100,90, h};
Point(54) = {80,100,90, h};
Point(55) = {100,100,90, h};
Point(56) = {20,100,100, h};
Point(57) = {0,100,100, h};
Point(58) = {50,100,100, h};
Point(59) = {80,100,100, h};
Point(60) = {100,100,100, h};
Point(61) = {0,20,0, h};
Point(62) = {0,40,0, h};
Point(63) = {0,60,0, h};
Point(64) = {0,80,0, h};
Point(65) = {20,20,0, h};
Point(66) = {20,40,0, h};
Point(67) = {20,60,0, h};
Point(68) = {20,80,0, h};
Point(69) = {20,20,10, h};
Point(70) = {20,40,10, h};
Point(71) = {20,60,10, h};
Point(72) = {20,80,10, h};
Point(73) = {0,20,10, h};
Point(74) = {0,40,10, h};
Point(75) = {0,60,10, h};
Point(76) = {0,80,10, h};
Point(77) = {50,20,0, h};
Point(78) = {50,40,0, h};
Point(79) = {50,60,0, h};
Point(80) = {50,80,0, h};
Point(81) = {50,20,10, h};
Point(82) = {50,40,10, h};
Point(83) = {50,60,10, h};
Point(84) = {50,80,10, h};
Point(85) = {80,20,0, h};
Point(86) = {80,40,0, h};
Point(87) = {80,60,0, h};
Point(88) = {80,80,0, h};
Point(89) = {80,20,10, h};
Point(90) = {80,40,10, h};
Point(91) = {80,60,10, h};
Point(92) = {80,80,10, h};
Point(93) = {100,20,0, h};
Point(94) = {100,40,0, h};
Point(95) = {100,60,0, h};
Point(96) = {100,80,0, h};
Point(97) = {100,20,10, h};
Point(98) = {100,40,10, h};
Point(99) = {100,60,10, h};
Point(100) = {100,80,10, h};
Point(101) = {20,20,32.1, h};
Point(102) = {20,40,32.1, h};
Point(103) = {20,60,32.1, h};
Point(104) = {20,80,32.1, h};
Point(105) = {0,20,32.1, h};
Point(106) = {0,40,32.1, h};
Point(107) = {0,60,32.1, h};
Point(108) = {0,80,32.1, h};
Point(109) = {50,20,32.1, h};
Point(110) = {50,40,32.1, h};
Point(111) = {50,60,32.1, h};
Point(112) = {50,80,32.1, h};
Point(113) = {80,20,32.1, h};
Point(114) = {80,40,32.1, h};
Point(115) = {80,60,32.1, h};
Point(116) = {80,80,32.1, h};
Point(117) = {100,20,32.1, h};
Point(118) = {100,40,32.1, h};
Point(119) = {100,60,32.1, h};
Point(120) = {100,80,32.1, h};
Point(121) = {20,20,67.9, h};
Point(122) = {20,40,67.9, h};
Point(123) = {20,60,67.9, h};
Point(124) = {20,80,67.9, h};
Point(125) = {0,20,67.9, h};
Point(126) = {0,40,67.9, h};
Point(127) = {0,60,67.9, h};
Point(128) = {0,80,67.9, h};
Point(129) = {50,20,67.9, h};
Point(130) = {50,40,67.9, h};
Point(131) = {50,60,67.9, h};
Point(132) = {50,80,67.9, h};
Point(133) = {80,20,67.9, h};
Point(134) = {80,40,67.9, h};
Point(135) = {80,60,67.9, h};
Point(136) = {80,80,67.9, h};
Point(137) = {100,20,67.9, h};
Point(138) = {100,40,67.9, h};
Point(139) = {100,60,67.9, h};
Point(140) = {100,80,67.9, h};
Point(141) = {20,20,90, h};
Point(142) = {20,40,90, h};
Point(143) = {20,60,90, h};
Point(144) = {20,80,90, h};
Point(145) = {0,20,90, h};
Point(146) = {0,40,90, h};
Point(147) = {0,60,90, h};
Point(148) = {0,80,90, h};
Point(149) = {50,20,90, h};
Point(150) = {50,40,90, h};
Point(151) = {50,60,90, h};
Point(152) = {50,80,90, h};
Point(153) = {80,20,90, h};
Point(154) = {80,40,90, h};
Point(155) = {80,60,90, h};
Point(156) = {80,80,90, h};
Point(157) = {100,20,90, h};
Point(158) = {100,40,90, h};
Point(159) = {100,60,90, h};
Point(160) = {100,80,90, h};
Point(161) = {20,20,100, h};
Point(162) = {20,40,100, h};
Point(163) = {20,60,100, h};
Point(164) = {20,80,100, h};
Point(165) = {0,20,100, h};
Point(166) = {0,40,100, h};
Point(167) = {0,60,100, h};
Point(168) = {0,80,100, h};
Point(169) = {50,20,100, h};
Point(170) = {50,40,100, h};
Point(171) = {50,60,100, h};
Point(172) = {50,80,100, h};
Point(173) = {80,20,100, h};
Point(174) = {80,40,100, h};
Point(175) = {80,60,100, h};
Point(176) = {80,80,100, h};
Point(177) = {100,20,100, h};
Point(178) = {100,40,100, h};
Point(179) = {100,60,100, h};
Point(180) = {100,80,100, h};
Point(181) = {100,0,20, h};
Point(182) = {50,0,50, h};
Point(183) = {0,0,80, h};
Point(184) = {100,20,20, h};
Point(185) = {100,40,20, h};
Point(186) = {100,60,20, h};
Point(187) = {100,80,20, h};
Point(188) = {100,100,20, h};
Point(189) = {50,100,50, h};
Point(190) = {0,20,80, h};
Point(191) = {0,40,80, h};
Point(192) = {0,60,80, h};
Point(193) = {0,80,80, h};
Point(194) = {0,100,80, h};
Point(195) = {50,20,50, h};
Point(196) = {50,40,50, h};
Point(197) = {50,60,50, h};
Point(198) = {50,80,50, h};


// LINES DEFINITION 

Line(231) = {1,6};
Line(232) = {7,6};
Line(233) = {2,7};
Line(234) = {2,1};
Line(235) = {8,7};
Line(236) = {3,8};
Line(237) = {3,2};
Line(238) = {9,8};
Line(239) = {4,9};
Line(240) = {4,3};
Line(241) = {10,9};
Line(242) = {10,5};
Line(243) = {5,4};
Line(244) = {6,11};
Line(245) = {12,11};
Line(246) = {7,12};
Line(247) = {13,12};
Line(248) = {8,13};
Line(249) = {14,13};
Line(250) = {9,14};
Line(251) = {15,14};
Line(253) = {11,16};
Line(254) = {17,16};
Line(255) = {12,17};
Line(256) = {18,17};
Line(258) = {19,18};
Line(259) = {14,19};
Line(260) = {20,19};
Line(261) = {20,15};
Line(263) = {22,21};
Line(264) = {17,22};
Line(265) = {23,22};
Line(266) = {18,23};
Line(267) = {24,23};
Line(268) = {19,24};
Line(269) = {25,24};
Line(270) = {25,20};
Line(271) = {21,26};
Line(272) = {26,27};
Line(273) = {22,27};
Line(274) = {27,28};
Line(275) = {23,28};
Line(276) = {28,29};
Line(277) = {24,29};
Line(278) = {29,30};
Line(279) = {30,25};
Line(280) = {1,61};
Line(281) = {65,61};
Line(282) = {2,65};
Line(283) = {61,62};
Line(284) = {66,62};
Line(285) = {65,66};
Line(286) = {62,63};
Line(287) = {67,63};
Line(288) = {66,67};
Line(289) = {63,64};
Line(290) = {68,64};
Line(291) = {67,68};
Line(292) = {64,31};
Line(293) = {32,31};
Line(294) = {68,32};
Line(295) = {6,73};
Line(296) = {61,73};
Line(297) = {73,74};
Line(298) = {62,74};
Line(299) = {74,75};
Line(300) = {63,75};
Line(301) = {75,76};
Line(302) = {64,76};
Line(303) = {76,34};
Line(304) = {31,34};
Line(305) = {33,34};
Line(306) = {32,33};
Line(307) = {77,65};
Line(308) = {3,77};
Line(309) = {78,66};
Line(310) = {77,78};
Line(311) = {79,67};
Line(312) = {78,79};
Line(313) = {80,68};
Line(314) = {79,80};
Line(315) = {35,32};
Line(316) = {80,35};
Line(317) = {36,33};
Line(318) = {35,36};
Line(319) = {85,77};
Line(320) = {4,85};
Line(321) = {86,78};
Line(322) = {85,86};
Line(323) = {87,79};
Line(324) = {86,87};
Line(325) = {88,80};
Line(326) = {87,88};
Line(327) = {37,35};
Line(328) = {88,37};
Line(329) = {38,36};
Line(330) = {37,38};
Line(331) = {93,85};
Line(332) = {5,93};
Line(333) = {94,86};
Line(334) = {93,94};
Line(335) = {95,87};
Line(336) = {94,95};
Line(337) = {96,88};
Line(338) = {95,96};
Line(339) = {39,37};
Line(340) = {96,39};
Line(341) = {97,93};
Line(342) = {10,97};
Line(343) = {98,94};
Line(344) = {97,98};
Line(345) = {99,95};
Line(346) = {98,99};
Line(347) = {100,96};
Line(348) = {99,100};
Line(349) = {40,39};
Line(350) = {100,40};
Line(351) = {40,38};
Line(352) = {11,105};
Line(353) = {73,105};
Line(354) = {105,106};
Line(355) = {74,106};
Line(356) = {106,107};
Line(357) = {75,107};
Line(358) = {107,108};
Line(359) = {76,108};
Line(360) = {108,42};
Line(361) = {34,42};
Line(362) = {41,42};
Line(363) = {33,41};
Line(364) = {43,41};
Line(365) = {36,43};
Line(366) = {44,43};
Line(367) = {38,44};
Line(369) = {15,117};
Line(371) = {117,118};
Line(373) = {118,119};
Line(375) = {119,120};
Line(377) = {120,45};
Line(378) = {45,44};
Line(379) = {16,125};
Line(380) = {105,125};
Line(381) = {125,126};
Line(382) = {106,126};
Line(383) = {126,127};
Line(384) = {107,127};
Line(385) = {127,128};
Line(386) = {108,128};
Line(387) = {128,47};
Line(388) = {42,47};
Line(389) = {46,47};
Line(390) = {41,46};
Line(391) = {48,46};
Line(393) = {49,48};
Line(394) = {44,49};
Line(395) = {137,117};
Line(396) = {20,137};
Line(397) = {138,118};
Line(398) = {137,138};
Line(399) = {139,119};
Line(400) = {138,139};
Line(401) = {140,120};
Line(402) = {139,140};
Line(403) = {50,45};
Line(404) = {140,50};
Line(405) = {50,49};
Line(406) = {21,145};
Line(408) = {145,146};
Line(410) = {146,147};
Line(412) = {147,148};
Line(414) = {148,52};
Line(416) = {51,52};
Line(417) = {46,51};
Line(418) = {53,51};
Line(419) = {48,53};
Line(420) = {54,53};
Line(421) = {49,54};
Line(422) = {157,137};
Line(423) = {25,157};
Line(424) = {158,138};
Line(425) = {157,158};
Line(426) = {159,139};
Line(427) = {158,159};
Line(428) = {160,140};
Line(429) = {159,160};
Line(430) = {55,50};
Line(431) = {160,55};
Line(432) = {55,54};
Line(433) = {27,161};
Line(434) = {165,161};
Line(435) = {26,165};
Line(436) = {161,162};
Line(437) = {166,162};
Line(438) = {165,166};
Line(439) = {162,163};
Line(440) = {167,163};
Line(441) = {166,167};
Line(442) = {163,164};
Line(443) = {168,164};
Line(444) = {167,168};
Line(445) = {164,56};
Line(446) = {57,56};
Line(447) = {168,57};
Line(448) = {145,165};
Line(449) = {146,166};
Line(450) = {147,167};
Line(451) = {148,168};
Line(452) = {52,57};
Line(453) = {51,56};
Line(454) = {28,169};
Line(455) = {161,169};
Line(456) = {169,170};
Line(457) = {162,170};
Line(458) = {170,171};
Line(459) = {163,171};
Line(460) = {171,172};
Line(461) = {164,172};
Line(462) = {172,58};
Line(463) = {56,58};
Line(464) = {53,58};
Line(465) = {29,173};
Line(466) = {169,173};
Line(467) = {173,174};
Line(468) = {170,174};
Line(469) = {174,175};
Line(470) = {171,175};
Line(471) = {175,176};
Line(472) = {172,176};
Line(473) = {176,59};
Line(474) = {58,59};
Line(475) = {54,59};
Line(476) = {177,157};
Line(477) = {30,177};
Line(478) = {178,158};
Line(479) = {177,178};
Line(480) = {179,159};
Line(481) = {178,179};
Line(482) = {180,160};
Line(483) = {179,180};
Line(484) = {60,55};
Line(485) = {180,60};
Line(486) = {173,177};
Line(487) = {174,178};
Line(488) = {175,179};
Line(489) = {176,180};
Line(490) = {59,60};
Line(491) = {69,73};
Line(492) = {65,69};
Line(493) = {7,69};
Line(494) = {70,74};
Line(495) = {66,70};
Line(496) = {69,70};
Line(497) = {71,75};
Line(498) = {67,71};
Line(499) = {70,71};
Line(500) = {72,76};
Line(501) = {68,72};
Line(502) = {71,72};
Line(503) = {72,33};
Line(504) = {81,69};
Line(505) = {77,81};
Line(506) = {8,81};
Line(507) = {82,70};
Line(508) = {78,82};
Line(509) = {81,82};
Line(510) = {83,71};
Line(511) = {79,83};
Line(512) = {82,83};
Line(513) = {84,72};
Line(514) = {80,84};
Line(515) = {83,84};
Line(516) = {84,36};
Line(517) = {89,81};
Line(518) = {85,89};
Line(519) = {9,89};
Line(520) = {90,82};
Line(521) = {86,90};
Line(522) = {89,90};
Line(523) = {91,83};
Line(524) = {87,91};
Line(525) = {90,91};
Line(526) = {92,84};
Line(527) = {88,92};
Line(528) = {91,92};
Line(529) = {92,38};
Line(530) = {97,89};
Line(531) = {98,90};
Line(532) = {99,91};
Line(533) = {100,92};
Line(534) = {101,105};
Line(535) = {69,101};
Line(536) = {12,101};
Line(537) = {102,106};
Line(538) = {70,102};
Line(539) = {101,102};
Line(540) = {103,107};
Line(541) = {71,103};
Line(542) = {102,103};
Line(543) = {104,108};
Line(544) = {72,104};
Line(545) = {103,104};
Line(546) = {104,41};
Line(547) = {109,101};
Line(548) = {81,109};
Line(549) = {13,109};
Line(550) = {110,102};
Line(551) = {82,110};
Line(552) = {109,110};
Line(553) = {111,103};
Line(554) = {83,111};
Line(555) = {110,111};
Line(556) = {112,104};
Line(557) = {84,112};
Line(558) = {111,112};
Line(559) = {112,43};
Line(560) = {113,109};
Line(561) = {89,113};
Line(562) = {14,113};
Line(563) = {114,110};
Line(564) = {90,114};
Line(565) = {113,114};
Line(566) = {115,111};
Line(567) = {91,115};
Line(568) = {114,115};
Line(569) = {116,112};
Line(570) = {92,116};
Line(571) = {115,116};
Line(572) = {116,44};
Line(573) = {117,113};
Line(574) = {118,114};
Line(575) = {119,115};
Line(576) = {120,116};
Line(577) = {121,125};
Line(578) = {101,121};
Line(579) = {17,121};
Line(580) = {122,126};
Line(581) = {102,122};
Line(582) = {121,122};
Line(583) = {123,127};
Line(584) = {103,123};
Line(585) = {122,123};
Line(586) = {124,128};
Line(587) = {104,124};
Line(588) = {123,124};
Line(589) = {124,46};
Line(590) = {129,121};
Line(592) = {18,129};
Line(593) = {130,122};
Line(595) = {129,130};
Line(596) = {131,123};
Line(598) = {130,131};
Line(599) = {132,124};
Line(601) = {131,132};
Line(602) = {132,48};
Line(603) = {133,129};
Line(604) = {113,133};
Line(605) = {19,133};
Line(606) = {134,130};
Line(607) = {114,134};
Line(608) = {133,134};
Line(609) = {135,131};
Line(610) = {115,135};
Line(611) = {134,135};
Line(612) = {136,132};
Line(613) = {116,136};
Line(614) = {135,136};
Line(615) = {136,49};
Line(616) = {137,133};
Line(617) = {138,134};
Line(618) = {139,135};
Line(619) = {140,136};
Line(620) = {141,145};
Line(621) = {121,141};
Line(622) = {22,141};
Line(623) = {142,146};
Line(624) = {122,142};
Line(625) = {141,142};
Line(626) = {143,147};
Line(627) = {123,143};
Line(628) = {142,143};
Line(629) = {144,148};
Line(630) = {124,144};
Line(631) = {143,144};
Line(632) = {144,51};
Line(633) = {149,141};
Line(634) = {129,149};
Line(635) = {23,149};
Line(636) = {150,142};
Line(637) = {130,150};
Line(638) = {149,150};
Line(639) = {151,143};
Line(640) = {131,151};
Line(641) = {150,151};
Line(642) = {152,144};
Line(643) = {132,152};
Line(644) = {151,152};
Line(645) = {152,53};
Line(646) = {153,149};
Line(647) = {133,153};
Line(648) = {24,153};
Line(649) = {154,150};
Line(650) = {134,154};
Line(651) = {153,154};
Line(652) = {155,151};
Line(653) = {135,155};
Line(654) = {154,155};
Line(655) = {156,152};
Line(656) = {136,156};
Line(657) = {155,156};
Line(658) = {156,54};
Line(659) = {157,153};
Line(660) = {158,154};
Line(661) = {159,155};
Line(662) = {160,156};
Line(663) = {141,161};
Line(664) = {142,162};
Line(665) = {143,163};
Line(666) = {144,164};
Line(667) = {149,169};
Line(668) = {150,170};
Line(669) = {151,171};
Line(670) = {152,172};
Line(671) = {153,173};
Line(672) = {154,174};
Line(673) = {155,175};
Line(674) = {156,176};
Line(910) = {15,181};
Line(911) = {181,10};
Line(912) = {13,182};
Line(913) = {182,18};
Line(914) = {16,183};
Line(915) = {183,21};
Line(916) = {117,184};
Line(917) = {184,97};
Line(918) = {118,185};
Line(919) = {185,98};
Line(920) = {119,186};
Line(921) = {186,99};
Line(922) = {120,187};
Line(923) = {187,100};
Line(924) = {45,188};
Line(925) = {188,40};
Line(926) = {43,189};
Line(927) = {189,48};
Line(928) = {125,190};
Line(929) = {190,145};
Line(930) = {126,191};
Line(931) = {191,146};
Line(932) = {127,192};
Line(933) = {192,147};
Line(934) = {128,193};
Line(935) = {193,148};
Line(936) = {47,194};
Line(937) = {194,52};
Line(938) = {109,195};
Line(939) = {195,129};
Line(940) = {110,196};
Line(941) = {196,130};
Line(942) = {111,197};
Line(943) = {197,131};
Line(944) = {112,198};
Line(945) = {198,132};
Line(1048) = {181,9};
Line(1049) = {14,181};
Line(1050) = {182,17};
Line(1051) = {182,12};
Line(1052) = {182,14};
Line(1053) = {182,19};
Line(1054) = {183,17};
Line(1055) = {183,22};
Line(1056) = {181,184};
Line(1057) = {184,185};
Line(1058) = {185,186};
Line(1059) = {186,187};
Line(1060) = {187,188};
Line(1061) = {188,44};
Line(1062) = {188,38};
Line(1063) = {189,46};
Line(1064) = {189,41};
Line(1065) = {189,44};
Line(1066) = {189,49};
Line(1067) = {190,183};
Line(1068) = {191,190};
Line(1069) = {192,191};
Line(1070) = {193,192};
Line(1071) = {194,193};
Line(1072) = {194,46};
Line(1073) = {194,51};
Line(1074) = {184,89};
Line(1075) = {184,113};
Line(1076) = {185,90};
Line(1077) = {185,114};
Line(1078) = {186,91};
Line(1079) = {186,115};
Line(1080) = {187,92};
Line(1081) = {187,116};
Line(1082) = {195,101};
Line(1083) = {195,121};
Line(1084) = {182,195};
Line(1085) = {196,102};
Line(1086) = {196,122};
Line(1087) = {195,196};
Line(1088) = {197,103};
Line(1089) = {197,123};
Line(1090) = {196,197};
Line(1091) = {198,104};
Line(1092) = {198,124};
Line(1093) = {197,198};
Line(1094) = {198,189};
Line(1095) = {195,133};
Line(1096) = {195,113};
Line(1097) = {196,134};
Line(1098) = {196,114};
Line(1099) = {197,135};
Line(1100) = {197,115};
Line(1101) = {198,136};
Line(1102) = {198,116};
Line(1103) = {190,141};
Line(1104) = {190,121};
Line(1105) = {191,142};
Line(1106) = {191,122};
Line(1107) = {192,143};
Line(1108) = {192,123};
Line(1109) = {193,144};
Line(1110) = {193,124};


// FACES DEFINITION 

Curve Loop(1) = {-234,233,232,-231};
Surface(1) = {1};
Curve Loop(2) = {-237,236,235,-233};
Surface(2) = {2};
Curve Loop(3) = {-240,239,238,-236};
Surface(3) = {3};
Curve Loop(4) = {-243,-242,241,-239};
Surface(4) = {4};
Curve Loop(5) = {-232,246,245,-244};
Surface(5) = {5};
Curve Loop(6) = {-235,248,247,-246};
Surface(6) = {6};
Curve Loop(7) = {-238,250,249,-248};
Surface(7) = {7};
Curve Loop(9) = {-245,255,254,-253};
Surface(9) = {9};
Curve Loop(12) = {-251,-261,260,-259};
Surface(12) = {12};
Curve Loop(14) = {-256,266,265,-264};
Surface(14) = {14};
Curve Loop(15) = {-258,268,267,-266};
Surface(15) = {15};
Curve Loop(16) = {-260,-270,269,-268};
Surface(16) = {16};
Curve Loop(17) = {-263,273,-272,-271};
Surface(17) = {17};
Curve Loop(18) = {-265,275,-274,-273};
Surface(18) = {18};
Curve Loop(19) = {-267,277,-276,-275};
Surface(19) = {19};
Curve Loop(20) = {-269,-279,-278,-277};
Surface(20) = {20};
Curve Loop(21) = {-234,282,281,-280};
Surface(21) = {21};
Curve Loop(22) = {-281,285,284,-283};
Surface(22) = {22};
Curve Loop(23) = {-284,288,287,-286};
Surface(23) = {23};
Curve Loop(24) = {-287,291,290,-289};
Surface(24) = {24};
Curve Loop(25) = {-290,294,293,-292};
Surface(25) = {25};
Curve Loop(26) = {280,296,-295,-231};
Surface(26) = {26};
Curve Loop(27) = {283,298,-297,-296};
Surface(27) = {27};
Curve Loop(28) = {286,300,-299,-298};
Surface(28) = {28};
Curve Loop(29) = {289,302,-301,-300};
Surface(29) = {29};
Curve Loop(30) = {292,304,-303,-302};
Surface(30) = {30};
Curve Loop(31) = {-293,306,305,-304};
Surface(31) = {31};
Curve Loop(32) = {-237,308,307,-282};
Surface(32) = {32};
Curve Loop(33) = {-307,310,309,-285};
Surface(33) = {33};
Curve Loop(34) = {-309,312,311,-288};
Surface(34) = {34};
Curve Loop(35) = {-311,314,313,-291};
Surface(35) = {35};
Curve Loop(36) = {-313,316,315,-294};
Surface(36) = {36};
Curve Loop(37) = {-315,318,317,-306};
Surface(37) = {37};
Curve Loop(38) = {-240,320,319,-308};
Surface(38) = {38};
Curve Loop(39) = {-319,322,321,-310};
Surface(39) = {39};
Curve Loop(40) = {-321,324,323,-312};
Surface(40) = {40};
Curve Loop(41) = {-323,326,325,-314};
Surface(41) = {41};
Curve Loop(42) = {-325,328,327,-316};
Surface(42) = {42};
Curve Loop(43) = {-327,330,329,-318};
Surface(43) = {43};
Curve Loop(44) = {-243,332,331,-320};
Surface(44) = {44};
Curve Loop(45) = {-331,334,333,-322};
Surface(45) = {45};
Curve Loop(46) = {-333,336,335,-324};
Surface(46) = {46};
Curve Loop(47) = {-335,338,337,-326};
Surface(47) = {47};
Curve Loop(48) = {-337,340,339,-328};
Surface(48) = {48};
Curve Loop(49) = {-242,342,341,-332};
Surface(49) = {49};
Curve Loop(50) = {-341,344,343,-334};
Surface(50) = {50};
Curve Loop(51) = {-343,346,345,-336};
Surface(51) = {51};
Curve Loop(52) = {-345,348,347,-338};
Surface(52) = {52};
Curve Loop(53) = {-347,350,349,-340};
Surface(53) = {53};
Curve Loop(54) = {-339,-349,351,-330};
Surface(54) = {54};
Curve Loop(55) = {295,353,-352,-244};
Surface(55) = {55};
Curve Loop(56) = {297,355,-354,-353};
Surface(56) = {56};
Curve Loop(57) = {299,357,-356,-355};
Surface(57) = {57};
Curve Loop(58) = {301,359,-358,-357};
Surface(58) = {58};
Curve Loop(59) = {303,361,-360,-359};
Surface(59) = {59};
Curve Loop(60) = {-305,363,362,-361};
Surface(60) = {60};
Curve Loop(61) = {-317,365,364,-363};
Surface(61) = {61};
Curve Loop(62) = {-329,367,366,-365};
Surface(62) = {62};
Curve Loop(69) = {352,380,-379,-253};
Surface(69) = {69};
Curve Loop(70) = {354,382,-381,-380};
Surface(70) = {70};
Curve Loop(71) = {356,384,-383,-382};
Surface(71) = {71};
Curve Loop(72) = {358,386,-385,-384};
Surface(72) = {72};
Curve Loop(73) = {360,388,-387,-386};
Surface(73) = {73};
Curve Loop(74) = {-362,390,389,-388};
Surface(74) = {74};
Curve Loop(77) = {-261,396,395,-369};
Surface(77) = {77};
Curve Loop(78) = {-395,398,397,-371};
Surface(78) = {78};
Curve Loop(79) = {-397,400,399,-373};
Surface(79) = {79};
Curve Loop(80) = {-399,402,401,-375};
Surface(80) = {80};
Curve Loop(81) = {-401,404,403,-377};
Surface(81) = {81};
Curve Loop(82) = {-378,-403,405,-394};
Surface(82) = {82};
Curve Loop(89) = {-391,419,418,-417};
Surface(89) = {89};
Curve Loop(90) = {-393,421,420,-419};
Surface(90) = {90};
Curve Loop(91) = {-270,423,422,-396};
Surface(91) = {91};
Curve Loop(92) = {-422,425,424,-398};
Surface(92) = {92};
Curve Loop(93) = {-424,427,426,-400};
Surface(93) = {93};
Curve Loop(94) = {-426,429,428,-402};
Surface(94) = {94};
Curve Loop(95) = {-428,431,430,-404};
Surface(95) = {95};
Curve Loop(96) = {-405,-430,432,-421};
Surface(96) = {96};
Curve Loop(97) = {435,434,-433,-272};
Surface(97) = {97};
Curve Loop(98) = {438,437,-436,-434};
Surface(98) = {98};
Curve Loop(99) = {441,440,-439,-437};
Surface(99) = {99};
Curve Loop(100) = {444,443,-442,-440};
Surface(100) = {100};
Curve Loop(101) = {447,446,-445,-443};
Surface(101) = {101};
Curve Loop(102) = {406,448,-435,-271};
Surface(102) = {102};
Curve Loop(103) = {408,449,-438,-448};
Surface(103) = {103};
Curve Loop(104) = {410,450,-441,-449};
Surface(104) = {104};
Curve Loop(105) = {412,451,-444,-450};
Surface(105) = {105};
Curve Loop(106) = {414,452,-447,-451};
Surface(106) = {106};
Curve Loop(107) = {-416,453,-446,-452};
Surface(107) = {107};
Curve Loop(108) = {433,455,-454,-274};
Surface(108) = {108};
Curve Loop(109) = {436,457,-456,-455};
Surface(109) = {109};
Curve Loop(110) = {439,459,-458,-457};
Surface(110) = {110};
Curve Loop(111) = {442,461,-460,-459};
Surface(111) = {111};
Curve Loop(112) = {445,463,-462,-461};
Surface(112) = {112};
Curve Loop(113) = {-418,464,-463,-453};
Surface(113) = {113};
Curve Loop(114) = {454,466,-465,-276};
Surface(114) = {114};
Curve Loop(115) = {456,468,-467,-466};
Surface(115) = {115};
Curve Loop(116) = {458,470,-469,-468};
Surface(116) = {116};
Curve Loop(117) = {460,472,-471,-470};
Surface(117) = {117};
Curve Loop(118) = {462,474,-473,-472};
Surface(118) = {118};
Curve Loop(119) = {-420,475,-474,-464};
Surface(119) = {119};
Curve Loop(120) = {-279,477,476,-423};
Surface(120) = {120};
Curve Loop(121) = {-476,479,478,-425};
Surface(121) = {121};
Curve Loop(122) = {-478,481,480,-427};
Surface(122) = {122};
Curve Loop(123) = {-480,483,482,-429};
Surface(123) = {123};
Curve Loop(124) = {-482,485,484,-431};
Surface(124) = {124};
Curve Loop(125) = {465,486,-477,-278};
Surface(125) = {125};
Curve Loop(126) = {467,487,-479,-486};
Surface(126) = {126};
Curve Loop(127) = {469,488,-481,-487};
Surface(127) = {127};
Curve Loop(128) = {471,489,-483,-488};
Surface(128) = {128};
Curve Loop(129) = {473,490,-485,-489};
Surface(129) = {129};
Curve Loop(130) = {-432,-484,-490,-475};
Surface(130) = {130};
Curve Loop(675) = {-492,281,296,-491};
Surface(675) = {675};
Curve Loop(676) = {232,295,-491,-493};
Surface(676) = {676};
Curve Loop(677) = {-233,282,492,-493};
Surface(677) = {677};
Curve Loop(678) = {-495,284,298,-494};
Surface(678) = {678};
Curve Loop(679) = {491,297,-494,-496};
Surface(679) = {679};
Curve Loop(680) = {-492,285,495,-496};
Surface(680) = {680};
Curve Loop(681) = {-498,287,300,-497};
Surface(681) = {681};
Curve Loop(682) = {494,299,-497,-499};
Surface(682) = {682};
Curve Loop(683) = {-495,288,498,-499};
Surface(683) = {683};
Curve Loop(684) = {-501,290,302,-500};
Surface(684) = {684};
Curve Loop(685) = {497,301,-500,-502};
Surface(685) = {685};
Curve Loop(686) = {-498,291,501,-502};
Surface(686) = {686};
Curve Loop(687) = {500,303,-305,-503};
Surface(687) = {687};
Curve Loop(688) = {-501,294,306,-503};
Surface(688) = {688};
Curve Loop(689) = {-505,307,492,-504};
Surface(689) = {689};
Curve Loop(690) = {235,493,-504,-506};
Surface(690) = {690};
Curve Loop(691) = {-236,308,505,-506};
Surface(691) = {691};
Curve Loop(692) = {-508,309,495,-507};
Surface(692) = {692};
Curve Loop(693) = {504,496,-507,-509};
Surface(693) = {693};
Curve Loop(694) = {-505,310,508,-509};
Surface(694) = {694};
Curve Loop(695) = {-511,311,498,-510};
Surface(695) = {695};
Curve Loop(696) = {507,499,-510,-512};
Surface(696) = {696};
Curve Loop(697) = {-508,312,511,-512};
Surface(697) = {697};
Curve Loop(698) = {-514,313,501,-513};
Surface(698) = {698};
Curve Loop(699) = {510,502,-513,-515};
Surface(699) = {699};
Curve Loop(700) = {-511,314,514,-515};
Surface(700) = {700};
Curve Loop(701) = {513,503,-317,-516};
Surface(701) = {701};
Curve Loop(702) = {-514,316,318,-516};
Surface(702) = {702};
Curve Loop(703) = {-518,319,505,-517};
Surface(703) = {703};
Curve Loop(704) = {238,506,-517,-519};
Surface(704) = {704};
Curve Loop(705) = {-239,320,518,-519};
Surface(705) = {705};
Curve Loop(706) = {-521,321,508,-520};
Surface(706) = {706};
Curve Loop(707) = {517,509,-520,-522};
Surface(707) = {707};
Curve Loop(708) = {-518,322,521,-522};
Surface(708) = {708};
Curve Loop(709) = {-524,323,511,-523};
Surface(709) = {709};
Curve Loop(710) = {520,512,-523,-525};
Surface(710) = {710};
Curve Loop(711) = {-521,324,524,-525};
Surface(711) = {711};
Curve Loop(712) = {-527,325,514,-526};
Surface(712) = {712};
Curve Loop(713) = {523,515,-526,-528};
Surface(713) = {713};
Curve Loop(714) = {-524,326,527,-528};
Surface(714) = {714};
Curve Loop(715) = {526,516,-329,-529};
Surface(715) = {715};
Curve Loop(716) = {-527,328,330,-529};
Surface(716) = {716};
Curve Loop(717) = {341,331,518,-530};
Surface(717) = {717};
Curve Loop(718) = {241,519,-530,-342};
Surface(718) = {718};
Curve Loop(719) = {343,333,521,-531};
Surface(719) = {719};
Curve Loop(720) = {530,522,-531,-344};
Surface(720) = {720};
Curve Loop(721) = {345,335,524,-532};
Surface(721) = {721};
Curve Loop(722) = {531,525,-532,-346};
Surface(722) = {722};
Curve Loop(723) = {347,337,527,-533};
Surface(723) = {723};
Curve Loop(724) = {532,528,-533,-348};
Surface(724) = {724};
Curve Loop(725) = {533,529,-351,-350};
Surface(725) = {725};
Curve Loop(726) = {-535,491,353,-534};
Surface(726) = {726};
Curve Loop(727) = {245,352,-534,-536};
Surface(727) = {727};
Curve Loop(728) = {-246,493,535,-536};
Surface(728) = {728};
Curve Loop(729) = {-538,494,355,-537};
Surface(729) = {729};
Curve Loop(730) = {534,354,-537,-539};
Surface(730) = {730};
Curve Loop(731) = {-535,496,538,-539};
Surface(731) = {731};
Curve Loop(732) = {-541,497,357,-540};
Surface(732) = {732};
Curve Loop(733) = {537,356,-540,-542};
Surface(733) = {733};
Curve Loop(734) = {-538,499,541,-542};
Surface(734) = {734};
Curve Loop(735) = {-544,500,359,-543};
Surface(735) = {735};
Curve Loop(736) = {540,358,-543,-545};
Surface(736) = {736};
Curve Loop(737) = {-541,502,544,-545};
Surface(737) = {737};
Curve Loop(738) = {543,360,-362,-546};
Surface(738) = {738};
Curve Loop(739) = {-544,503,363,-546};
Surface(739) = {739};
Curve Loop(740) = {-548,504,535,-547};
Surface(740) = {740};
Curve Loop(741) = {247,536,-547,-549};
Surface(741) = {741};
Curve Loop(742) = {-248,506,548,-549};
Surface(742) = {742};
Curve Loop(743) = {-551,507,538,-550};
Surface(743) = {743};
Curve Loop(744) = {547,539,-550,-552};
Surface(744) = {744};
Curve Loop(745) = {-548,509,551,-552};
Surface(745) = {745};
Curve Loop(746) = {-554,510,541,-553};
Surface(746) = {746};
Curve Loop(747) = {550,542,-553,-555};
Surface(747) = {747};
Curve Loop(748) = {-551,512,554,-555};
Surface(748) = {748};
Curve Loop(749) = {-557,513,544,-556};
Surface(749) = {749};
Curve Loop(750) = {553,545,-556,-558};
Surface(750) = {750};
Curve Loop(751) = {-554,515,557,-558};
Surface(751) = {751};
Curve Loop(752) = {556,546,-364,-559};
Surface(752) = {752};
Curve Loop(753) = {-557,516,365,-559};
Surface(753) = {753};
Curve Loop(754) = {-561,517,548,-560};
Surface(754) = {754};
Curve Loop(755) = {249,549,-560,-562};
Surface(755) = {755};
Curve Loop(756) = {-250,519,561,-562};
Surface(756) = {756};
Curve Loop(757) = {-564,520,551,-563};
Surface(757) = {757};
Curve Loop(758) = {560,552,-563,-565};
Surface(758) = {758};
Curve Loop(759) = {-561,522,564,-565};
Surface(759) = {759};
Curve Loop(760) = {-567,523,554,-566};
Surface(760) = {760};
Curve Loop(761) = {563,555,-566,-568};
Surface(761) = {761};
Curve Loop(762) = {-564,525,567,-568};
Surface(762) = {762};
Curve Loop(763) = {-570,526,557,-569};
Surface(763) = {763};
Curve Loop(764) = {566,558,-569,-571};
Surface(764) = {764};
Curve Loop(765) = {-567,528,570,-571};
Surface(765) = {765};
Curve Loop(766) = {569,559,-366,-572};
Surface(766) = {766};
Curve Loop(767) = {-570,529,367,-572};
Surface(767) = {767};
Curve Loop(769) = {251,562,-573,-369};
Surface(769) = {769};
Curve Loop(771) = {573,565,-574,-371};
Surface(771) = {771};
Curve Loop(773) = {574,568,-575,-373};
Surface(773) = {773};
Curve Loop(775) = {575,571,-576,-375};
Surface(775) = {775};
Curve Loop(776) = {576,572,-378,-377};
Surface(776) = {776};
Curve Loop(777) = {-578,534,380,-577};
Surface(777) = {777};
Curve Loop(778) = {254,379,-577,-579};
Surface(778) = {778};
Curve Loop(779) = {-255,536,578,-579};
Surface(779) = {779};
Curve Loop(780) = {-581,537,382,-580};
Surface(780) = {780};
Curve Loop(781) = {577,381,-580,-582};
Surface(781) = {781};
Curve Loop(782) = {-578,539,581,-582};
Surface(782) = {782};
Curve Loop(783) = {-584,540,384,-583};
Surface(783) = {783};
Curve Loop(784) = {580,383,-583,-585};
Surface(784) = {784};
Curve Loop(785) = {-581,542,584,-585};
Surface(785) = {785};
Curve Loop(786) = {-587,543,386,-586};
Surface(786) = {786};
Curve Loop(787) = {583,385,-586,-588};
Surface(787) = {787};
Curve Loop(788) = {-584,545,587,-588};
Surface(788) = {788};
Curve Loop(789) = {586,387,-389,-589};
Surface(789) = {789};
Curve Loop(790) = {-587,546,390,-589};
Surface(790) = {790};
Curve Loop(792) = {256,579,-590,-592};
Surface(792) = {792};
Curve Loop(795) = {590,582,-593,-595};
Surface(795) = {795};
Curve Loop(798) = {593,585,-596,-598};
Surface(798) = {798};
Curve Loop(801) = {596,588,-599,-601};
Surface(801) = {801};
Curve Loop(803) = {599,589,-391,-602};
Surface(803) = {803};
Curve Loop(806) = {258,592,-603,-605};
Surface(806) = {806};
Curve Loop(807) = {-259,562,604,-605};
Surface(807) = {807};
Curve Loop(809) = {603,595,-606,-608};
Surface(809) = {809};
Curve Loop(810) = {-604,565,607,-608};
Surface(810) = {810};
Curve Loop(812) = {606,598,-609,-611};
Surface(812) = {812};
Curve Loop(813) = {-607,568,610,-611};
Surface(813) = {813};
Curve Loop(815) = {609,601,-612,-614};
Surface(815) = {815};
Curve Loop(816) = {-610,571,613,-614};
Surface(816) = {816};
Curve Loop(817) = {612,602,-393,-615};
Surface(817) = {817};
Curve Loop(818) = {-613,572,394,-615};
Surface(818) = {818};
Curve Loop(819) = {395,573,604,-616};
Surface(819) = {819};
Curve Loop(820) = {260,605,-616,-396};
Surface(820) = {820};
Curve Loop(821) = {397,574,607,-617};
Surface(821) = {821};
Curve Loop(822) = {616,608,-617,-398};
Surface(822) = {822};
Curve Loop(823) = {399,575,610,-618};
Surface(823) = {823};
Curve Loop(824) = {617,611,-618,-400};
Surface(824) = {824};
Curve Loop(825) = {401,576,613,-619};
Surface(825) = {825};
Curve Loop(826) = {618,614,-619,-402};
Surface(826) = {826};
Curve Loop(827) = {619,615,-405,-404};
Surface(827) = {827};
Curve Loop(829) = {263,406,-620,-622};
Surface(829) = {829};
Curve Loop(830) = {-264,579,621,-622};
Surface(830) = {830};
Curve Loop(832) = {620,408,-623,-625};
Surface(832) = {832};
Curve Loop(833) = {-621,582,624,-625};
Surface(833) = {833};
Curve Loop(835) = {623,410,-626,-628};
Surface(835) = {835};
Curve Loop(836) = {-624,585,627,-628};
Surface(836) = {836};
Curve Loop(838) = {626,412,-629,-631};
Surface(838) = {838};
Curve Loop(839) = {-627,588,630,-631};
Surface(839) = {839};
Curve Loop(840) = {629,414,-416,-632};
Surface(840) = {840};
Curve Loop(841) = {-630,589,417,-632};
Surface(841) = {841};
Curve Loop(842) = {-634,590,621,-633};
Surface(842) = {842};
Curve Loop(843) = {265,622,-633,-635};
Surface(843) = {843};
Curve Loop(844) = {-266,592,634,-635};
Surface(844) = {844};
Curve Loop(845) = {-637,593,624,-636};
Surface(845) = {845};
Curve Loop(846) = {633,625,-636,-638};
Surface(846) = {846};
Curve Loop(847) = {-634,595,637,-638};
Surface(847) = {847};
Curve Loop(848) = {-640,596,627,-639};
Surface(848) = {848};
Curve Loop(849) = {636,628,-639,-641};
Surface(849) = {849};
Curve Loop(850) = {-637,598,640,-641};
Surface(850) = {850};
Curve Loop(851) = {-643,599,630,-642};
Surface(851) = {851};
Curve Loop(852) = {639,631,-642,-644};
Surface(852) = {852};
Curve Loop(853) = {-640,601,643,-644};
Surface(853) = {853};
Curve Loop(854) = {642,632,-418,-645};
Surface(854) = {854};
Curve Loop(855) = {-643,602,419,-645};
Surface(855) = {855};
Curve Loop(856) = {-647,603,634,-646};
Surface(856) = {856};
Curve Loop(857) = {267,635,-646,-648};
Surface(857) = {857};
Curve Loop(858) = {-268,605,647,-648};
Surface(858) = {858};
Curve Loop(859) = {-650,606,637,-649};
Surface(859) = {859};
Curve Loop(860) = {646,638,-649,-651};
Surface(860) = {860};
Curve Loop(861) = {-647,608,650,-651};
Surface(861) = {861};
Curve Loop(862) = {-653,609,640,-652};
Surface(862) = {862};
Curve Loop(863) = {649,641,-652,-654};
Surface(863) = {863};
Curve Loop(864) = {-650,611,653,-654};
Surface(864) = {864};
Curve Loop(865) = {-656,612,643,-655};
Surface(865) = {865};
Curve Loop(866) = {652,644,-655,-657};
Surface(866) = {866};
Curve Loop(867) = {-653,614,656,-657};
Surface(867) = {867};
Curve Loop(868) = {655,645,-420,-658};
Surface(868) = {868};
Curve Loop(869) = {-656,615,421,-658};
Surface(869) = {869};
Curve Loop(870) = {422,616,647,-659};
Surface(870) = {870};
Curve Loop(871) = {269,648,-659,-423};
Surface(871) = {871};
Curve Loop(872) = {424,617,650,-660};
Surface(872) = {872};
Curve Loop(873) = {659,651,-660,-425};
Surface(873) = {873};
Curve Loop(874) = {426,618,653,-661};
Surface(874) = {874};
Curve Loop(875) = {660,654,-661,-427};
Surface(875) = {875};
Curve Loop(876) = {428,619,656,-662};
Surface(876) = {876};
Curve Loop(877) = {661,657,-662,-429};
Surface(877) = {877};
Curve Loop(878) = {662,658,-432,-431};
Surface(878) = {878};
Curve Loop(879) = {-663,620,448,434};
Surface(879) = {879};
Curve Loop(880) = {-273,622,663,-433};
Surface(880) = {880};
Curve Loop(881) = {-664,623,449,437};
Surface(881) = {881};
Curve Loop(882) = {-663,625,664,-436};
Surface(882) = {882};
Curve Loop(883) = {-665,626,450,440};
Surface(883) = {883};
Curve Loop(884) = {-664,628,665,-439};
Surface(884) = {884};
Curve Loop(885) = {-666,629,451,443};
Surface(885) = {885};
Curve Loop(886) = {-665,631,666,-442};
Surface(886) = {886};
Curve Loop(887) = {-666,632,453,-445};
Surface(887) = {887};
Curve Loop(888) = {-667,633,663,455};
Surface(888) = {888};
Curve Loop(889) = {-275,635,667,-454};
Surface(889) = {889};
Curve Loop(890) = {-668,636,664,457};
Surface(890) = {890};
Curve Loop(891) = {-667,638,668,-456};
Surface(891) = {891};
Curve Loop(892) = {-669,639,665,459};
Surface(892) = {892};
Curve Loop(893) = {-668,641,669,-458};
Surface(893) = {893};
Curve Loop(894) = {-670,642,666,461};
Surface(894) = {894};
Curve Loop(895) = {-669,644,670,-460};
Surface(895) = {895};
Curve Loop(896) = {-670,645,464,-462};
Surface(896) = {896};
Curve Loop(897) = {-671,646,667,466};
Surface(897) = {897};
Curve Loop(898) = {-277,648,671,-465};
Surface(898) = {898};
Curve Loop(899) = {-672,649,668,468};
Surface(899) = {899};
Curve Loop(900) = {-671,651,672,-467};
Surface(900) = {900};
Curve Loop(901) = {-673,652,669,470};
Surface(901) = {901};
Curve Loop(902) = {-672,654,673,-469};
Surface(902) = {902};
Curve Loop(903) = {-674,655,670,472};
Surface(903) = {903};
Curve Loop(904) = {-673,657,674,-471};
Surface(904) = {904};
Curve Loop(905) = {-674,658,475,-473};
Surface(905) = {905};
Curve Loop(906) = {476,659,671,486};
Surface(906) = {906};
Curve Loop(907) = {478,660,672,487};
Surface(907) = {907};
Curve Loop(908) = {480,661,673,488};
Surface(908) = {908};
Curve Loop(909) = {482,662,674,489};
Surface(909) = {909};
Curve Loop(946) = {-910,251,1049};
Surface(946) = {946};
Curve Loop(947) = {-1049,-250,-1048};
Surface(947) = {947};
Curve Loop(948) = {1048,-241,-911};
Surface(948) = {948};
Curve Loop(949) = {913,256,-1050};
Surface(949) = {949};
Curve Loop(950) = {1050,-255,-1051};
Surface(950) = {950};
Curve Loop(951) = {1051,-247,912};
Surface(951) = {951};
Curve Loop(952) = {-912,-249,-1052};
Surface(952) = {952};
Curve Loop(953) = {1052,259,-1053};
Surface(953) = {953};
Curve Loop(954) = {1053,258,-913};
Surface(954) = {954};
Curve Loop(955) = {-914,-254,-1054};
Surface(955) = {955};
Curve Loop(956) = {1054,264,-1055};
Surface(956) = {956};
Curve Loop(957) = {1055,263,-915};
Surface(957) = {957};
Curve Loop(958) = {-1056,-910,369,916};
Surface(958) = {958};
Curve Loop(959) = {1056,917,-342,-911};
Surface(959) = {959};
Curve Loop(960) = {-1057,-916,371,918};
Surface(960) = {960};
Curve Loop(961) = {1057,919,-344,-917};
Surface(961) = {961};
Curve Loop(962) = {-1058,-918,373,920};
Surface(962) = {962};
Curve Loop(963) = {1058,921,-346,-919};
Surface(963) = {963};
Curve Loop(964) = {-1059,-920,375,922};
Surface(964) = {964};
Curve Loop(965) = {1059,923,-348,-921};
Surface(965) = {965};
Curve Loop(966) = {-1060,-922,377,924};
Surface(966) = {966};
Curve Loop(967) = {1060,925,-350,-923};
Surface(967) = {967};
Curve Loop(968) = {-924,378,-1061};
Surface(968) = {968};
Curve Loop(969) = {1061,-367,-1062};
Surface(969) = {969};
Curve Loop(970) = {1062,-351,-925};
Surface(970) = {970};
Curve Loop(971) = {927,391,-1063};
Surface(971) = {971};
Curve Loop(972) = {1063,-390,-1064};
Surface(972) = {972};
Curve Loop(973) = {1064,-364,926};
Surface(973) = {973};
Curve Loop(974) = {-926,-366,-1065};
Surface(974) = {974};
Curve Loop(975) = {1065,394,-1066};
Surface(975) = {975};
Curve Loop(976) = {1066,393,-927};
Surface(976) = {976};
Curve Loop(977) = {-1067,929,-406,-915};
Surface(977) = {977};
Curve Loop(978) = {1067,-914,379,928};
Surface(978) = {978};
Curve Loop(979) = {-1068,931,-408,-929};
Surface(979) = {979};
Curve Loop(980) = {1068,-928,381,930};
Surface(980) = {980};
Curve Loop(981) = {-1069,933,-410,-931};
Surface(981) = {981};
Curve Loop(982) = {1069,-930,383,932};
Surface(982) = {982};
Curve Loop(983) = {-1070,935,-412,-933};
Surface(983) = {983};
Curve Loop(984) = {1070,-932,385,934};
Surface(984) = {984};
Curve Loop(985) = {-1071,937,-414,-935};
Surface(985) = {985};
Curve Loop(986) = {1071,-934,387,936};
Surface(986) = {986};
Curve Loop(987) = {-936,-389,-1072};
Surface(987) = {987};
Curve Loop(988) = {1072,417,-1073};
Surface(988) = {988};
Curve Loop(989) = {1073,416,-937};
Surface(989) = {989};
Curve Loop(990) = {917,530,-1074};
Surface(990) = {990};
Curve Loop(991) = {1074,561,-1075};
Surface(991) = {991};
Curve Loop(992) = {1075,-573,916};
Surface(992) = {992};
Curve Loop(993) = {919,531,-1076};
Surface(993) = {993};
Curve Loop(994) = {1076,564,-1077};
Surface(994) = {994};
Curve Loop(995) = {1077,-574,918};
Surface(995) = {995};
Curve Loop(996) = {921,532,-1078};
Surface(996) = {996};
Curve Loop(997) = {1078,567,-1079};
Surface(997) = {997};
Curve Loop(998) = {1079,-575,920};
Surface(998) = {998};
Curve Loop(999) = {923,533,-1080};
Surface(999) = {999};
Curve Loop(1000) = {1080,570,-1081};
Surface(1000) = {1000};
Curve Loop(1001) = {1081,-576,922};
Surface(1001) = {1001};
Curve Loop(1002) = {-938,547,-1082};
Surface(1002) = {1002};
Curve Loop(1003) = {1082,578,-1083};
Surface(1003) = {1003};
Curve Loop(1004) = {1083,-590,-939};
Surface(1004) = {1004};
Curve Loop(1005) = {-1084,-912,549,938};
Surface(1005) = {1005};
Curve Loop(1006) = {1084,939,-592,-913};
Surface(1006) = {1006};
Curve Loop(1007) = {-940,550,-1085};
Surface(1007) = {1007};
Curve Loop(1008) = {1085,581,-1086};
Surface(1008) = {1008};
Curve Loop(1009) = {1086,-593,-941};
Surface(1009) = {1009};
Curve Loop(1010) = {-1087,-938,552,940};
Surface(1010) = {1010};
Curve Loop(1011) = {1087,941,-595,-939};
Surface(1011) = {1011};
Curve Loop(1012) = {-942,553,-1088};
Surface(1012) = {1012};
Curve Loop(1013) = {1088,584,-1089};
Surface(1013) = {1013};
Curve Loop(1014) = {1089,-596,-943};
Surface(1014) = {1014};
Curve Loop(1015) = {-1090,-940,555,942};
Surface(1015) = {1015};
Curve Loop(1016) = {1090,943,-598,-941};
Surface(1016) = {1016};
Curve Loop(1017) = {-944,556,-1091};
Surface(1017) = {1017};
Curve Loop(1018) = {1091,587,-1092};
Surface(1018) = {1018};
Curve Loop(1019) = {1092,-599,-945};
Surface(1019) = {1019};
Curve Loop(1020) = {-1093,-942,558,944};
Surface(1020) = {1020};
Curve Loop(1021) = {1093,945,-601,-943};
Surface(1021) = {1021};
Curve Loop(1022) = {-1094,-944,559,926};
Surface(1022) = {1022};
Curve Loop(1023) = {1094,927,-602,-945};
Surface(1023) = {1023};
Curve Loop(1024) = {939,-603,-1095};
Surface(1024) = {1024};
Curve Loop(1025) = {1095,-604,-1096};
Surface(1025) = {1025};
Curve Loop(1026) = {1096,560,938};
Surface(1026) = {1026};
Curve Loop(1027) = {941,-606,-1097};
Surface(1027) = {1027};
Curve Loop(1028) = {1097,-607,-1098};
Surface(1028) = {1028};
Curve Loop(1029) = {1098,563,940};
Surface(1029) = {1029};
Curve Loop(1030) = {943,-609,-1099};
Surface(1030) = {1030};
Curve Loop(1031) = {1099,-610,-1100};
Surface(1031) = {1031};
Curve Loop(1032) = {1100,566,942};
Surface(1032) = {1032};
Curve Loop(1033) = {945,-612,-1101};
Surface(1033) = {1033};
Curve Loop(1034) = {1101,-613,-1102};
Surface(1034) = {1034};
Curve Loop(1035) = {1102,569,944};
Surface(1035) = {1035};
Curve Loop(1036) = {929,-620,-1103};
Surface(1036) = {1036};
Curve Loop(1037) = {1103,-621,-1104};
Surface(1037) = {1037};
Curve Loop(1038) = {1104,577,928};
Surface(1038) = {1038};
Curve Loop(1039) = {931,-623,-1105};
Surface(1039) = {1039};
Curve Loop(1040) = {1105,-624,-1106};
Surface(1040) = {1040};
Curve Loop(1041) = {1106,580,930};
Surface(1041) = {1041};
Curve Loop(1042) = {933,-626,-1107};
Surface(1042) = {1042};
Curve Loop(1043) = {1107,-627,-1108};
Surface(1043) = {1043};
Curve Loop(1044) = {1108,583,932};
Surface(1044) = {1044};
Curve Loop(1045) = {935,-629,-1109};
Surface(1045) = {1045};
Curve Loop(1046) = {1109,-630,-1110};
Surface(1046) = {1046};
Curve Loop(1047) = {1110,586,934};
Surface(1047) = {1047};
Curve Loop(1111) = {-1049,562,-1075,-1056};
Surface(1111) = {1111};
Curve Loop(1112) = {1050,579,-1083,-1084};
Surface(1112) = {1112};
Curve Loop(1113) = {-1052,1084,1096,-562};
Surface(1113) = {1113};
Curve Loop(1114) = {-1054,-1067,1104,-579};
Surface(1114) = {1114};
Curve Loop(1115) = {1057,1077,-565,-1075};
Surface(1115) = {1115};
Curve Loop(1116) = {1058,1079,-568,-1077};
Surface(1116) = {1116};
Curve Loop(1117) = {1059,1081,-571,-1079};
Surface(1117) = {1117};
Curve Loop(1118) = {1060,1061,-572,-1081};
Surface(1118) = {1118};
Curve Loop(1119) = {1063,-589,-1092,1094};
Surface(1119) = {1119};
Curve Loop(1120) = {-1065,-1094,1102,572};
Surface(1120) = {1120};
Curve Loop(1121) = {1068,1104,582,-1106};
Surface(1121) = {1121};
Curve Loop(1122) = {1069,1106,585,-1108};
Surface(1122) = {1122};
Curve Loop(1123) = {1070,1108,588,-1110};
Surface(1123) = {1123};
Curve Loop(1124) = {1071,1110,589,-1072};
Surface(1124) = {1124};
Curve Loop(1125) = {565,-1098,-1087,1096};
Surface(1125) = {1125};
Curve Loop(1126) = {568,-1100,-1090,1098};
Surface(1126) = {1126};
Curve Loop(1127) = {571,-1102,-1093,1100};
Surface(1127) = {1127};
Curve Loop(1128) = {1083,582,-1086,-1087};
Surface(1128) = {1128};
Curve Loop(1129) = {1086,585,-1089,-1090};
Surface(1129) = {1129};
Curve Loop(1130) = {1089,588,-1092,-1093};
Surface(1130) = {1130};



// VOLUMES DEFINITION 

Surface Loop(2) = {1,21,26,675,676,677};
Volume(2) = {2};
Surface Loop(3) = {22,27,675,678,679,680};
Volume(3) = {3};
Surface Loop(4) = {23,28,678,681,682,683};
Volume(4) = {4};
Surface Loop(5) = {24,29,681,684,685,686};
Volume(5) = {5};
Surface Loop(6) = {25,30,31,684,687,688};
Volume(6) = {6};
Surface Loop(7) = {2,32,677,689,690,691};
Volume(7) = {7};
Surface Loop(8) = {33,680,689,692,693,694};
Volume(8) = {8};
Surface Loop(9) = {34,683,692,695,696,697};
Volume(9) = {9};
Surface Loop(10) = {35,686,695,698,699,700};
Volume(10) = {10};
Surface Loop(11) = {36,37,688,698,701,702};
Volume(11) = {11};
Surface Loop(12) = {3,38,691,703,704,705};
Volume(12) = {12};
Surface Loop(13) = {39,694,703,706,707,708};
Volume(13) = {13};
Surface Loop(14) = {40,697,706,709,710,711};
Volume(14) = {14};
Surface Loop(15) = {41,700,709,712,713,714};
Volume(15) = {15};
Surface Loop(16) = {42,43,702,712,715,716};
Volume(16) = {16};
Surface Loop(17) = {4,44,49,705,717,718};
Volume(17) = {17};
Surface Loop(18) = {45,50,708,717,719,720};
Volume(18) = {18};
Surface Loop(19) = {46,51,711,719,721,722};
Volume(19) = {19};
Surface Loop(20) = {47,52,714,721,723,724};
Volume(20) = {20};
Surface Loop(21) = {48,53,54,716,723,725};
Volume(21) = {21};
Surface Loop(22) = {5,55,676,726,727,728};
Volume(22) = {22};
Surface Loop(23) = {56,679,726,729,730,731};
Volume(23) = {23};
Surface Loop(24) = {57,682,729,732,733,734};
Volume(24) = {24};
Surface Loop(25) = {58,685,732,735,736,737};
Volume(25) = {25};
Surface Loop(26) = {59,60,687,735,738,739};
Volume(26) = {26};
Surface Loop(27) = {6,690,728,740,741,742};
Volume(27) = {27};
Surface Loop(28) = {693,731,740,743,744,745};
Volume(28) = {28};
Surface Loop(29) = {696,734,743,746,747,748};
Volume(29) = {29};
Surface Loop(30) = {699,737,746,749,750,751};
Volume(30) = {30};
Surface Loop(31) = {61,701,739,749,752,753};
Volume(31) = {31};
Surface Loop(32) = {7,704,742,754,755,756};
Volume(32) = {32};
Surface Loop(33) = {707,745,754,757,758,759};
Volume(33) = {33};
Surface Loop(34) = {710,748,757,760,761,762};
Volume(34) = {34};
Surface Loop(35) = {713,751,760,763,764,765};
Volume(35) = {35};
Surface Loop(36) = {62,715,753,763,766,767};
Volume(36) = {36};
Surface Loop(42) = {9,69,727,777,778,779};
Volume(42) = {42};
Surface Loop(43) = {70,730,777,780,781,782};
Volume(43) = {43};
Surface Loop(44) = {71,733,780,783,784,785};
Volume(44) = {44};
Surface Loop(45) = {72,736,783,786,787,788};
Volume(45) = {45};
Surface Loop(46) = {73,74,738,786,789,790};
Volume(46) = {46};
Surface Loop(57) = {12,77,769,807,819,820};
Volume(57) = {57};
Surface Loop(58) = {78,771,810,819,821,822};
Volume(58) = {58};
Surface Loop(59) = {79,773,813,821,823,824};
Volume(59) = {59};
Surface Loop(60) = {80,775,816,823,825,826};
Volume(60) = {60};
Surface Loop(61) = {81,82,776,818,825,827};
Volume(61) = {61};
Surface Loop(67) = {14,792,830,842,843,844};
Volume(67) = {67};
Surface Loop(68) = {795,833,842,845,846,847};
Volume(68) = {68};
Surface Loop(69) = {798,836,845,848,849,850};
Volume(69) = {69};
Surface Loop(70) = {801,839,848,851,852,853};
Volume(70) = {70};
Surface Loop(71) = {89,803,841,851,854,855};
Volume(71) = {71};
Surface Loop(72) = {15,806,844,856,857,858};
Volume(72) = {72};
Surface Loop(73) = {809,847,856,859,860,861};
Volume(73) = {73};
Surface Loop(74) = {812,850,859,862,863,864};
Volume(74) = {74};
Surface Loop(75) = {815,853,862,865,866,867};
Volume(75) = {75};
Surface Loop(76) = {90,817,855,865,868,869};
Volume(76) = {76};
Surface Loop(77) = {16,91,820,858,870,871};
Volume(77) = {77};
Surface Loop(78) = {92,822,861,870,872,873};
Volume(78) = {78};
Surface Loop(79) = {93,824,864,872,874,875};
Volume(79) = {79};
Surface Loop(80) = {94,826,867,874,876,877};
Volume(80) = {80};
Surface Loop(81) = {95,96,827,869,876,878};
Volume(81) = {81};
Surface Loop(82) = {17,97,102,829,879,880};
Volume(82) = {82};
Surface Loop(83) = {98,103,832,879,881,882};
Volume(83) = {83};
Surface Loop(84) = {99,104,835,881,883,884};
Volume(84) = {84};
Surface Loop(85) = {100,105,838,883,885,886};
Volume(85) = {85};
Surface Loop(86) = {101,106,107,840,885,887};
Volume(86) = {86};
Surface Loop(87) = {18,108,843,880,888,889};
Volume(87) = {87};
Surface Loop(88) = {109,846,882,888,890,891};
Volume(88) = {88};
Surface Loop(89) = {110,849,884,890,892,893};
Volume(89) = {89};
Surface Loop(90) = {111,852,886,892,894,895};
Volume(90) = {90};
Surface Loop(91) = {112,113,854,887,894,896};
Volume(91) = {91};
Surface Loop(92) = {19,114,857,889,897,898};
Volume(92) = {92};
Surface Loop(93) = {115,860,891,897,899,900};
Volume(93) = {93};
Surface Loop(94) = {116,863,893,899,901,902};
Volume(94) = {94};
Surface Loop(95) = {117,866,895,901,903,904};
Volume(95) = {95};
Surface Loop(96) = {118,119,868,896,903,905};
Volume(96) = {96};
Surface Loop(97) = {20,120,125,871,898,906};
Volume(97) = {97};
Surface Loop(98) = {121,126,873,900,906,907};
Volume(98) = {98};
Surface Loop(99) = {122,127,875,902,907,908};
Volume(99) = {99};
Surface Loop(100) = {123,128,877,904,908,909};
Volume(100) = {100};
Surface Loop(101) = {124,129,130,878,905,909};
Volume(101) = {101};
Surface Loop(102) = {718,756,947,948,959,990,991,1111};
Volume(102) = {102};
Surface Loop(103) = {769,946,958,992,1111};
Volume(103) = {103};
Surface Loop(104) = {741,779,950,951,1002,1003,1005,1112};
Volume(104) = {104};
Surface Loop(105) = {792,949,1004,1006,1112};
Volume(105) = {105};
Surface Loop(106) = {755,952,1005,1026,1113};
Volume(106) = {106};
Surface Loop(107) = {806,807,953,954,1006,1024,1025,1113};
Volume(107) = {107};
Surface Loop(108) = {778,955,978,1038,1114};
Volume(108) = {108};
Surface Loop(109) = {829,830,956,957,977,1036,1037,1114};
Volume(109) = {109};
Surface Loop(110) = {771,960,992,995,1115};
Volume(110) = {110};
Surface Loop(111) = {720,759,961,990,991,993,994,1115};
Volume(111) = {111};
Surface Loop(112) = {773,962,995,998,1116};
Volume(112) = {112};
Surface Loop(113) = {722,762,963,993,994,996,997,1116};
Volume(113) = {113};
Surface Loop(114) = {775,964,998,1001,1117};
Volume(114) = {114};
Surface Loop(115) = {724,765,965,996,997,999,1000,1117};
Volume(115) = {115};
Surface Loop(116) = {776,966,968,1001,1118};
Volume(116) = {116};
Surface Loop(117) = {725,767,967,969,970,999,1000,1118};
Volume(117) = {117};
Surface Loop(118) = {803,971,1019,1023,1119};
Volume(118) = {118};
Surface Loop(119) = {752,790,972,973,1017,1018,1022,1119};
Volume(119) = {119};
Surface Loop(120) = {817,818,975,976,1023,1033,1034,1120};
Volume(120) = {120};
Surface Loop(121) = {766,974,1022,1035,1120};
Volume(121) = {121};
Surface Loop(122) = {832,833,979,1036,1037,1039,1040,1121};
Volume(122) = {122};
Surface Loop(123) = {781,980,1038,1041,1121};
Volume(123) = {123};
Surface Loop(124) = {835,836,981,1039,1040,1042,1043,1122};
Volume(124) = {124};
Surface Loop(125) = {784,982,1041,1044,1122};
Volume(125) = {125};
Surface Loop(126) = {838,839,983,1042,1043,1045,1046,1123};
Volume(126) = {126};
Surface Loop(127) = {787,984,1044,1047,1123};
Volume(127) = {127};
Surface Loop(128) = {840,841,985,988,989,1045,1046,1124};
Volume(128) = {128};
Surface Loop(129) = {789,986,987,1047,1124};
Volume(129) = {129};
Surface Loop(130) = {809,810,1011,1024,1025,1027,1028,1125};
Volume(130) = {130};
Surface Loop(131) = {758,1010,1026,1029,1125};
Volume(131) = {131};
Surface Loop(132) = {812,813,1016,1027,1028,1030,1031,1126};
Volume(132) = {132};
Surface Loop(133) = {761,1015,1029,1032,1126};
Volume(133) = {133};
Surface Loop(134) = {815,816,1021,1030,1031,1033,1034,1127};
Volume(134) = {134};
Surface Loop(135) = {764,1020,1032,1035,1127};
Volume(135) = {135};
Surface Loop(136) = {744,782,1002,1003,1007,1008,1010,1128};
Volume(136) = {136};
Surface Loop(137) = {795,1004,1009,1011,1128};
Volume(137) = {137};
Surface Loop(138) = {747,785,1007,1008,1012,1013,1015,1129};
Volume(138) = {138};
Surface Loop(139) = {798,1009,1014,1016,1129};
Volume(139) = {139};
Surface Loop(140) = {750,788,1012,1013,1017,1018,1020,1130};
Volume(140) = {140};
Surface Loop(141) = {801,1014,1019,1021,1130};
Volume(141) = {141};


// COARSE ELEMENTS GROUPING

Physical Volume("c131",131) = {2};
Physical Volume("c132",132) = {3};
Physical Volume("c133",133) = {4};
Physical Volume("c134",134) = {5};
Physical Volume("c135",135) = {6};
Physical Volume("c136",136) = {7};
Physical Volume("c137",137) = {8};
Physical Volume("c138",138) = {9};
Physical Volume("c139",139) = {10};
Physical Volume("c140",140) = {11};
Physical Volume("c141",141) = {12};
Physical Volume("c142",142) = {13};
Physical Volume("c143",143) = {14};
Physical Volume("c144",144) = {15};
Physical Volume("c145",145) = {16};
Physical Volume("c146",146) = {17};
Physical Volume("c147",147) = {18};
Physical Volume("c148",148) = {19};
Physical Volume("c149",149) = {20};
Physical Volume("c150",150) = {21};
Physical Volume("c151",151) = {22};
Physical Volume("c152",152) = {23};
Physical Volume("c153",153) = {24};
Physical Volume("c154",154) = {25};
Physical Volume("c155",155) = {26};
Physical Volume("c156",156) = {27};
Physical Volume("c157",157) = {28};
Physical Volume("c158",158) = {29};
Physical Volume("c159",159) = {30};
Physical Volume("c160",160) = {31};
Physical Volume("c161",161) = {32};
Physical Volume("c162",162) = {33};
Physical Volume("c163",163) = {34};
Physical Volume("c164",164) = {35};
Physical Volume("c165",165) = {36};
Physical Volume("c166",166) = {102,103};
Physical Volume("c167",167) = {110,111};
Physical Volume("c168",168) = {112,113};
Physical Volume("c169",169) = {114,115};
Physical Volume("c170",170) = {116,117};
Physical Volume("c171",171) = {42};
Physical Volume("c172",172) = {43};
Physical Volume("c173",173) = {44};
Physical Volume("c174",174) = {45};
Physical Volume("c175",175) = {46};
Physical Volume("c176",176) = {104,105};
Physical Volume("c177",177) = {136,137};
Physical Volume("c178",178) = {138,139};
Physical Volume("c179",179) = {140,141};
Physical Volume("c180",180) = {118,119};
Physical Volume("c181",181) = {106,107};
Physical Volume("c182",182) = {130,131};
Physical Volume("c183",183) = {132,133};
Physical Volume("c184",184) = {134,135};
Physical Volume("c185",185) = {120,121};
Physical Volume("c186",186) = {57};
Physical Volume("c187",187) = {58};
Physical Volume("c188",188) = {59};
Physical Volume("c189",189) = {60};
Physical Volume("c190",190) = {61};
Physical Volume("c191",191) = {108,109};
Physical Volume("c192",192) = {122,123};
Physical Volume("c193",193) = {124,125};
Physical Volume("c194",194) = {126,127};
Physical Volume("c195",195) = {128,129};
Physical Volume("c196",196) = {67};
Physical Volume("c197",197) = {68};
Physical Volume("c198",198) = {69};
Physical Volume("c199",199) = {70};
Physical Volume("c200",200) = {71};
Physical Volume("c201",201) = {72};
Physical Volume("c202",202) = {73};
Physical Volume("c203",203) = {74};
Physical Volume("c204",204) = {75};
Physical Volume("c205",205) = {76};
Physical Volume("c206",206) = {77};
Physical Volume("c207",207) = {78};
Physical Volume("c208",208) = {79};
Physical Volume("c209",209) = {80};
Physical Volume("c210",210) = {81};
Physical Volume("c211",211) = {82};
Physical Volume("c212",212) = {83};
Physical Volume("c213",213) = {84};
Physical Volume("c214",214) = {85};
Physical Volume("c215",215) = {86};
Physical Volume("c216",216) = {87};
Physical Volume("c217",217) = {88};
Physical Volume("c218",218) = {89};
Physical Volume("c219",219) = {90};
Physical Volume("c220",220) = {91};
Physical Volume("c221",221) = {92};
Physical Volume("c222",222) = {93};
Physical Volume("c223",223) = {94};
Physical Volume("c224",224) = {95};
Physical Volume("c225",225) = {96};
Physical Volume("c226",226) = {97};
Physical Volume("c227",227) = {98};
Physical Volume("c228",228) = {99};
Physical Volume("c229",229) = {100};
Physical Volume("c230",230) = {101};



 // FRACTURES

frac1[] = {1111,1112,1113,1114,1115,1116,1117,1118,1119,1120,1121,1122,1123,1124,1125,1126,1127,1128,1129,1130};

Physical Surface("Fracture2",2) = {frac1[]};



// BOUNDARY CONDITIONS

Physical Surface("bc4",4) = {102,103,104,105,106};
Physical Surface("bc5",5) = {1,2,3,4};
Physical Surface("bc6",6) = {5,6,7,9,12,14,15,16,17,18,19,20,21,22,23,24,25,26,27,28,29,30,31,32,33,34,35,36,37,38,39,40,41,42,43,44,45,46,47,48,49,50,51,52,53,54,55,56,57,58,59,60,61,62,69,70,71,72,73,74,77,78,79,80,81,82,89,90,91,92,93,94,95,96,97,98,99,100,101,107,108,109,110,111,112,113,114,115,116,117,118,119,120,121,122,123,124,125,126,127,128,129,130,946,947,948,949,950,951,952,953,954,955,956,957,958,959,960,961,962,963,964,965,966,967,968,969,970,971,972,973,974,975,976,977,978,979,980,981,982,983,984,985,986,987,988,989};


// OPTIONS

Coherence Mesh;
// Transfinite Surface{:};
// Transfinite Volume{:};
// Recombine Surface{:};
// Recombine Volume{:};