//  Geo file generated by Discrete Fracture Network methods 
// Fracture #1 

// POINTS DEFINITION 

h = 4;

Point(1) = {0,0,0, h};
Point(2) = {20,0,0, h};
Point(3) = {50,0,0, h};
Point(4) = {80,0,0, h};
Point(5) = {100,0,0, h};
Point(6) = {0,0,10, h};
Point(7) = {20,0,10, h};
Point(8) = {50,0,10, h};
Point(9) = {80,0,10, h};
Point(10) = {100,0,10, h};
Point(11) = {0,0,32.1, h};
Point(12) = {20,0,32.1, h};
Point(13) = {50,0,32.1, h};
Point(14) = {80,0,32.1, h};
Point(15) = {100,0,32.1, h};
Point(16) = {0,0,67.9, h};
Point(17) = {20,0,67.9, h};
Point(18) = {50,0,67.9, h};
Point(19) = {80,0,67.9, h};
Point(20) = {100,0,67.9, h};
Point(21) = {0,0,90, h};
Point(22) = {20,0,90, h};
Point(23) = {50,0,90, h};
Point(24) = {80,0,90, h};
Point(25) = {100,0,90, h};
Point(26) = {0,0,100, h};
Point(27) = {20,0,100, h};
Point(28) = {50,0,100, h};
Point(29) = {80,0,100, h};
Point(30) = {100,0,100, h};
Point(31) = {0,100,0, h};
Point(32) = {20,100,0, h};
Point(33) = {20,100,10, h};
Point(34) = {0,100,10, h};
Point(35) = {50,100,0, h};
Point(36) = {50,100,10, h};
Point(37) = {80,100,0, h};
Point(38) = {80,100,10, h};
Point(39) = {100,100,0, h};
Point(40) = {100,100,10, h};
Point(41) = {20,100,32.1, h};
Point(42) = {0,100,32.1, h};
Point(43) = {50,100,32.1, h};
Point(44) = {80,100,32.1, h};
Point(45) = {100,100,32.1, h};
Point(46) = {20,100,67.9, h};
Point(47) = {0,100,67.9, h};
Point(48) = {50,100,67.9, h};
Point(49) = {80,100,67.9, h};
Point(50) = {100,100,67.9, h};
Point(51) = {20,100,90, h};
Point(52) = {0,100,90, h};
Point(53) = {50,100,90, h};
Point(54) = {80,100,90, h};
Point(55) = {100,100,90, h};
Point(56) = {20,100,100, h};
Point(57) = {0,100,100, h};
Point(58) = {50,100,100, h};
Point(59) = {80,100,100, h};
Point(60) = {100,100,100, h};
Point(61) = {0,20,0, h};
Point(62) = {0,40,0, h};
Point(63) = {0,60,0, h};
Point(64) = {0,80,0, h};
Point(65) = {20,20,0, h};
Point(66) = {20,40,0, h};
Point(67) = {20,60,0, h};
Point(68) = {20,80,0, h};
Point(69) = {20,20,10, h};
Point(70) = {20,40,10, h};
Point(71) = {20,60,10, h};
Point(72) = {20,80,10, h};
Point(73) = {0,20,10, h};
Point(74) = {0,40,10, h};
Point(75) = {0,60,10, h};
Point(76) = {0,80,10, h};
Point(77) = {50,20,0, h};
Point(78) = {50,40,0, h};
Point(79) = {50,60,0, h};
Point(80) = {50,80,0, h};
Point(81) = {50,20,10, h};
Point(82) = {50,40,10, h};
Point(83) = {50,60,10, h};
Point(84) = {50,80,10, h};
Point(85) = {80,20,0, h};
Point(86) = {80,40,0, h};
Point(87) = {80,60,0, h};
Point(88) = {80,80,0, h};
Point(89) = {80,20,10, h};
Point(90) = {80,40,10, h};
Point(91) = {80,60,10, h};
Point(92) = {80,80,10, h};
Point(93) = {100,20,0, h};
Point(94) = {100,40,0, h};
Point(95) = {100,60,0, h};
Point(96) = {100,80,0, h};
Point(97) = {100,20,10, h};
Point(98) = {100,40,10, h};
Point(99) = {100,60,10, h};
Point(100) = {100,80,10, h};
Point(101) = {20,20,32.1, h};
Point(102) = {20,40,32.1, h};
Point(103) = {20,60,32.1, h};
Point(104) = {20,80,32.1, h};
Point(105) = {0,20,32.1, h};
Point(106) = {0,40,32.1, h};
Point(107) = {0,60,32.1, h};
Point(108) = {0,80,32.1, h};
Point(109) = {50,20,32.1, h};
Point(110) = {50,40,32.1, h};
Point(111) = {50,60,32.1, h};
Point(112) = {50,80,32.1, h};
Point(113) = {80,20,32.1, h};
Point(114) = {80,40,32.1, h};
Point(115) = {80,60,32.1, h};
Point(116) = {80,80,32.1, h};
Point(117) = {100,20,32.1, h};
Point(118) = {100,40,32.1, h};
Point(119) = {100,60,32.1, h};
Point(120) = {100,80,32.1, h};
Point(121) = {20,20,67.9, h};
Point(122) = {20,40,67.9, h};
Point(123) = {20,60,67.9, h};
Point(124) = {20,80,67.9, h};
Point(125) = {0,20,67.9, h};
Point(126) = {0,40,67.9, h};
Point(127) = {0,60,67.9, h};
Point(128) = {0,80,67.9, h};
Point(129) = {50,20,67.9, h};
Point(130) = {50,40,67.9, h};
Point(131) = {50,60,67.9, h};
Point(132) = {50,80,67.9, h};
Point(133) = {80,20,67.9, h};
Point(134) = {80,40,67.9, h};
Point(135) = {80,60,67.9, h};
Point(136) = {80,80,67.9, h};
Point(137) = {100,20,67.9, h};
Point(138) = {100,40,67.9, h};
Point(139) = {100,60,67.9, h};
Point(140) = {100,80,67.9, h};
Point(141) = {20,20,90, h};
Point(142) = {20,40,90, h};
Point(143) = {20,60,90, h};
Point(144) = {20,80,90, h};
Point(145) = {0,20,90, h};
Point(146) = {0,40,90, h};
Point(147) = {0,60,90, h};
Point(148) = {0,80,90, h};
Point(149) = {50,20,90, h};
Point(150) = {50,40,90, h};
Point(151) = {50,60,90, h};
Point(152) = {50,80,90, h};
Point(153) = {80,20,90, h};
Point(154) = {80,40,90, h};
Point(155) = {80,60,90, h};
Point(156) = {80,80,90, h};
Point(157) = {100,20,90, h};
Point(158) = {100,40,90, h};
Point(159) = {100,60,90, h};
Point(160) = {100,80,90, h};
Point(161) = {20,20,100, h};
Point(162) = {20,40,100, h};
Point(163) = {20,60,100, h};
Point(164) = {20,80,100, h};
Point(165) = {0,20,100, h};
Point(166) = {0,40,100, h};
Point(167) = {0,60,100, h};
Point(168) = {0,80,100, h};
Point(169) = {50,20,100, h};
Point(170) = {50,40,100, h};
Point(171) = {50,60,100, h};
Point(172) = {50,80,100, h};
Point(173) = {80,20,100, h};
Point(174) = {80,40,100, h};
Point(175) = {80,60,100, h};
Point(176) = {80,80,100, h};
Point(177) = {100,20,100, h};
Point(178) = {100,40,100, h};
Point(179) = {100,60,100, h};
Point(180) = {100,80,100, h};
Point(181) = {100,20,20, h};
Point(182) = {100,0,20, h};
Point(183) = {100,40,20, h};
Point(184) = {100,60,20, h};
Point(185) = {100,80,20, h};
Point(186) = {100,100,20, h};
Point(187) = {50,20,50, h};
Point(188) = {50,0,50, h};
Point(189) = {50,40,50, h};
Point(190) = {50,60,50, h};
Point(191) = {50,80,50, h};
Point(192) = {50,100,50, h};
Point(193) = {0,20,80, h};
Point(194) = {0,0,80, h};
Point(195) = {0,40,80, h};
Point(196) = {0,60,80, h};
Point(197) = {0,80,80, h};
Point(198) = {0,100,80, h};


// LINES DEFINITION 

Line(101) = {69,73};
Line(102) = {61,73};
Line(103) = {65,61};
Line(104) = {65,69};
Line(105) = {6,73};
Line(106) = {1,61};
Line(107) = {2,65};
Line(108) = {7,69};
Line(109) = {7,6};
Line(110) = {1,6};
Line(111) = {2,1};
Line(112) = {2,7};
Line(113) = {70,74};
Line(114) = {62,74};
Line(115) = {66,62};
Line(116) = {66,70};
Line(117) = {73,74};
Line(118) = {61,62};
Line(119) = {65,66};
Line(120) = {69,70};
Line(121) = {71,75};
Line(122) = {63,75};
Line(123) = {67,63};
Line(124) = {67,71};
Line(125) = {74,75};
Line(126) = {62,63};
Line(127) = {66,67};
Line(128) = {70,71};
Line(129) = {72,76};
Line(130) = {64,76};
Line(131) = {68,64};
Line(132) = {68,72};
Line(133) = {75,76};
Line(134) = {63,64};
Line(135) = {67,68};
Line(136) = {71,72};
Line(137) = {33,34};
Line(138) = {31,34};
Line(139) = {32,31};
Line(140) = {32,33};
Line(141) = {76,34};
Line(142) = {64,31};
Line(143) = {68,32};
Line(144) = {72,33};
Line(145) = {81,69};
Line(146) = {77,65};
Line(147) = {77,81};
Line(148) = {3,77};
Line(149) = {8,81};
Line(150) = {8,7};
Line(151) = {3,2};
Line(152) = {3,8};
Line(153) = {82,70};
Line(154) = {78,66};
Line(155) = {78,82};
Line(156) = {77,78};
Line(157) = {81,82};
Line(158) = {83,71};
Line(159) = {79,67};
Line(160) = {79,83};
Line(161) = {78,79};
Line(162) = {82,83};
Line(163) = {84,72};
Line(164) = {80,68};
Line(165) = {80,84};
Line(166) = {79,80};
Line(167) = {83,84};
Line(168) = {36,33};
Line(169) = {35,32};
Line(170) = {35,36};
Line(171) = {80,35};
Line(172) = {84,36};
Line(173) = {89,81};
Line(174) = {85,77};
Line(175) = {85,89};
Line(176) = {4,85};
Line(177) = {9,89};
Line(178) = {9,8};
Line(179) = {4,3};
Line(180) = {4,9};
Line(181) = {90,82};
Line(182) = {86,78};
Line(183) = {86,90};
Line(184) = {85,86};
Line(185) = {89,90};
Line(186) = {91,83};
Line(187) = {87,79};
Line(188) = {87,91};
Line(189) = {86,87};
Line(190) = {90,91};
Line(191) = {92,84};
Line(192) = {88,80};
Line(193) = {88,92};
Line(194) = {87,88};
Line(195) = {91,92};
Line(196) = {38,36};
Line(197) = {37,35};
Line(198) = {37,38};
Line(199) = {88,37};
Line(200) = {92,38};
Line(201) = {97,89};
Line(202) = {93,85};
Line(203) = {97,93};
Line(204) = {5,93};
Line(205) = {10,97};
Line(206) = {10,9};
Line(207) = {5,4};
Line(208) = {10,5};
Line(209) = {98,90};
Line(210) = {94,86};
Line(211) = {98,94};
Line(212) = {93,94};
Line(213) = {97,98};
Line(214) = {99,91};
Line(215) = {95,87};
Line(216) = {99,95};
Line(217) = {94,95};
Line(218) = {98,99};
Line(219) = {100,92};
Line(220) = {96,88};
Line(221) = {100,96};
Line(222) = {95,96};
Line(223) = {99,100};
Line(224) = {40,38};
Line(225) = {39,37};
Line(226) = {40,39};
Line(227) = {96,39};
Line(228) = {100,40};
Line(229) = {101,105};
Line(230) = {73,105};
Line(231) = {69,101};
Line(232) = {11,105};
Line(233) = {12,101};
Line(234) = {12,11};
Line(235) = {6,11};
Line(236) = {7,12};
Line(237) = {102,106};
Line(238) = {74,106};
Line(239) = {70,102};
Line(240) = {105,106};
Line(241) = {101,102};
Line(242) = {103,107};
Line(243) = {75,107};
Line(244) = {71,103};
Line(245) = {106,107};
Line(246) = {102,103};
Line(247) = {104,108};
Line(248) = {76,108};
Line(249) = {72,104};
Line(250) = {107,108};
Line(251) = {103,104};
Line(252) = {41,42};
Line(253) = {34,42};
Line(254) = {33,41};
Line(255) = {108,42};
Line(256) = {104,41};
Line(257) = {109,101};
Line(258) = {81,109};
Line(259) = {13,109};
Line(260) = {13,12};
Line(261) = {8,13};
Line(262) = {110,102};
Line(263) = {82,110};
Line(264) = {109,110};
Line(265) = {111,103};
Line(266) = {83,111};
Line(267) = {110,111};
Line(268) = {112,104};
Line(269) = {84,112};
Line(270) = {111,112};
Line(271) = {43,41};
Line(272) = {36,43};
Line(273) = {112,43};
Line(274) = {113,109};
Line(275) = {89,113};
Line(276) = {14,113};
Line(277) = {14,13};
Line(278) = {9,14};
Line(279) = {114,110};
Line(280) = {90,114};
Line(281) = {113,114};
Line(282) = {115,111};
Line(283) = {91,115};
Line(284) = {114,115};
Line(285) = {116,112};
Line(286) = {92,116};
Line(287) = {115,116};
Line(288) = {44,43};
Line(289) = {38,44};
Line(290) = {116,44};
Line(291) = {117,113};
Line(293) = {15,117};
Line(294) = {15,14};
Line(296) = {118,114};
Line(298) = {117,118};
Line(299) = {119,115};
Line(301) = {118,119};
Line(302) = {120,116};
Line(304) = {119,120};
Line(305) = {45,44};
Line(307) = {120,45};
Line(308) = {121,125};
Line(309) = {105,125};
Line(310) = {101,121};
Line(311) = {16,125};
Line(312) = {17,121};
Line(313) = {17,16};
Line(314) = {11,16};
Line(315) = {12,17};
Line(316) = {122,126};
Line(317) = {106,126};
Line(318) = {102,122};
Line(319) = {125,126};
Line(320) = {121,122};
Line(321) = {123,127};
Line(322) = {107,127};
Line(323) = {103,123};
Line(324) = {126,127};
Line(325) = {122,123};
Line(326) = {124,128};
Line(327) = {108,128};
Line(328) = {104,124};
Line(329) = {127,128};
Line(330) = {123,124};
Line(331) = {46,47};
Line(332) = {42,47};
Line(333) = {41,46};
Line(334) = {128,47};
Line(335) = {124,46};
Line(336) = {129,121};
Line(338) = {18,129};
Line(339) = {18,17};
Line(341) = {130,122};
Line(343) = {129,130};
Line(344) = {131,123};
Line(346) = {130,131};
Line(347) = {132,124};
Line(349) = {131,132};
Line(350) = {48,46};
Line(352) = {132,48};
Line(353) = {133,129};
Line(354) = {113,133};
Line(355) = {19,133};
Line(356) = {19,18};
Line(357) = {14,19};
Line(358) = {134,130};
Line(359) = {114,134};
Line(360) = {133,134};
Line(361) = {135,131};
Line(362) = {115,135};
Line(363) = {134,135};
Line(364) = {136,132};
Line(365) = {116,136};
Line(366) = {135,136};
Line(367) = {49,48};
Line(368) = {44,49};
Line(369) = {136,49};
Line(370) = {137,133};
Line(371) = {137,117};
Line(372) = {20,137};
Line(373) = {20,19};
Line(374) = {20,15};
Line(375) = {138,134};
Line(376) = {138,118};
Line(377) = {137,138};
Line(378) = {139,135};
Line(379) = {139,119};
Line(380) = {138,139};
Line(381) = {140,136};
Line(382) = {140,120};
Line(383) = {139,140};
Line(384) = {50,49};
Line(385) = {50,45};
Line(386) = {140,50};
Line(387) = {141,145};
Line(389) = {121,141};
Line(390) = {21,145};
Line(391) = {22,141};
Line(392) = {22,21};
Line(394) = {17,22};
Line(395) = {142,146};
Line(397) = {122,142};
Line(398) = {145,146};
Line(399) = {141,142};
Line(400) = {143,147};
Line(402) = {123,143};
Line(403) = {146,147};
Line(404) = {142,143};
Line(405) = {144,148};
Line(407) = {124,144};
Line(408) = {147,148};
Line(409) = {143,144};
Line(410) = {51,52};
Line(412) = {46,51};
Line(413) = {148,52};
Line(414) = {144,51};
Line(415) = {149,141};
Line(416) = {129,149};
Line(417) = {23,149};
Line(418) = {23,22};
Line(419) = {18,23};
Line(420) = {150,142};
Line(421) = {130,150};
Line(422) = {149,150};
Line(423) = {151,143};
Line(424) = {131,151};
Line(425) = {150,151};
Line(426) = {152,144};
Line(427) = {132,152};
Line(428) = {151,152};
Line(429) = {53,51};
Line(430) = {48,53};
Line(431) = {152,53};
Line(432) = {153,149};
Line(433) = {133,153};
Line(434) = {24,153};
Line(435) = {24,23};
Line(436) = {19,24};
Line(437) = {154,150};
Line(438) = {134,154};
Line(439) = {153,154};
Line(440) = {155,151};
Line(441) = {135,155};
Line(442) = {154,155};
Line(443) = {156,152};
Line(444) = {136,156};
Line(445) = {155,156};
Line(446) = {54,53};
Line(447) = {49,54};
Line(448) = {156,54};
Line(449) = {157,153};
Line(450) = {157,137};
Line(451) = {25,157};
Line(452) = {25,24};
Line(453) = {25,20};
Line(454) = {158,154};
Line(455) = {158,138};
Line(456) = {157,158};
Line(457) = {159,155};
Line(458) = {159,139};
Line(459) = {158,159};
Line(460) = {160,156};
Line(461) = {160,140};
Line(462) = {159,160};
Line(463) = {55,54};
Line(464) = {55,50};
Line(465) = {160,55};
Line(466) = {165,161};
Line(467) = {145,165};
Line(468) = {141,161};
Line(469) = {26,165};
Line(470) = {27,161};
Line(471) = {26,27};
Line(472) = {21,26};
Line(473) = {22,27};
Line(474) = {166,162};
Line(475) = {146,166};
Line(476) = {142,162};
Line(477) = {165,166};
Line(478) = {161,162};
Line(479) = {167,163};
Line(480) = {147,167};
Line(481) = {143,163};
Line(482) = {166,167};
Line(483) = {162,163};
Line(484) = {168,164};
Line(485) = {148,168};
Line(486) = {144,164};
Line(487) = {167,168};
Line(488) = {163,164};
Line(489) = {57,56};
Line(490) = {52,57};
Line(491) = {51,56};
Line(492) = {168,57};
Line(493) = {164,56};
Line(494) = {161,169};
Line(495) = {149,169};
Line(496) = {28,169};
Line(497) = {27,28};
Line(498) = {23,28};
Line(499) = {162,170};
Line(500) = {150,170};
Line(501) = {169,170};
Line(502) = {163,171};
Line(503) = {151,171};
Line(504) = {170,171};
Line(505) = {164,172};
Line(506) = {152,172};
Line(507) = {171,172};
Line(508) = {56,58};
Line(509) = {53,58};
Line(510) = {172,58};
Line(511) = {169,173};
Line(512) = {153,173};
Line(513) = {29,173};
Line(514) = {28,29};
Line(515) = {24,29};
Line(516) = {170,174};
Line(517) = {154,174};
Line(518) = {173,174};
Line(519) = {171,175};
Line(520) = {155,175};
Line(521) = {174,175};
Line(522) = {172,176};
Line(523) = {156,176};
Line(524) = {175,176};
Line(525) = {58,59};
Line(526) = {54,59};
Line(527) = {176,59};
Line(528) = {173,177};
Line(529) = {177,157};
Line(530) = {30,177};
Line(531) = {29,30};
Line(532) = {30,25};
Line(533) = {174,178};
Line(534) = {178,158};
Line(535) = {177,178};
Line(536) = {175,179};
Line(537) = {179,159};
Line(538) = {178,179};
Line(539) = {176,180};
Line(540) = {180,160};
Line(541) = {179,180};
Line(542) = {59,60};
Line(543) = {60,55};
Line(544) = {180,60};
Line(910) = {117,181};
Line(911) = {181,97};
Line(912) = {15,182};
Line(913) = {182,10};
Line(914) = {118,183};
Line(915) = {183,98};
Line(916) = {119,184};
Line(917) = {184,99};
Line(918) = {120,185};
Line(919) = {185,100};
Line(920) = {45,186};
Line(921) = {186,40};
Line(922) = {109,187};
Line(923) = {187,129};
Line(924) = {13,188};
Line(925) = {188,18};
Line(926) = {110,189};
Line(927) = {189,130};
Line(928) = {111,190};
Line(929) = {190,131};
Line(930) = {112,191};
Line(931) = {191,132};
Line(932) = {43,192};
Line(933) = {192,48};
Line(934) = {125,193};
Line(935) = {193,145};
Line(936) = {16,194};
Line(937) = {194,21};
Line(938) = {126,195};
Line(939) = {195,146};
Line(940) = {127,196};
Line(941) = {196,147};
Line(942) = {128,197};
Line(943) = {197,148};
Line(944) = {47,198};
Line(945) = {198,52};
Line(1048) = {181,89};
Line(1049) = {181,113};
Line(1050) = {182,181};
Line(1051) = {182,9};
Line(1052) = {182,14};
Line(1053) = {183,90};
Line(1054) = {183,114};
Line(1055) = {181,183};
Line(1056) = {184,91};
Line(1057) = {184,115};
Line(1058) = {183,184};
Line(1059) = {185,92};
Line(1060) = {185,116};
Line(1061) = {184,185};
Line(1062) = {186,38};
Line(1063) = {186,44};
Line(1064) = {185,186};
Line(1065) = {187,101};
Line(1066) = {187,121};
Line(1067) = {188,187};
Line(1068) = {188,12};
Line(1069) = {188,17};
Line(1070) = {189,102};
Line(1071) = {189,122};
Line(1072) = {187,189};
Line(1073) = {190,103};
Line(1074) = {190,123};
Line(1075) = {189,190};
Line(1076) = {191,104};
Line(1077) = {191,124};
Line(1078) = {190,191};
Line(1079) = {192,41};
Line(1080) = {192,46};
Line(1081) = {191,192};
Line(1082) = {187,133};
Line(1083) = {187,113};
Line(1084) = {188,19};
Line(1085) = {188,14};
Line(1086) = {189,134};
Line(1087) = {189,114};
Line(1088) = {190,135};
Line(1089) = {190,115};
Line(1090) = {191,136};
Line(1091) = {191,116};
Line(1092) = {192,49};
Line(1093) = {192,44};
Line(1094) = {193,141};
Line(1095) = {193,121};
Line(1096) = {194,193};
Line(1097) = {194,22};
Line(1098) = {194,17};
Line(1099) = {195,142};
Line(1100) = {195,122};
Line(1101) = {193,195};
Line(1102) = {196,143};
Line(1103) = {196,123};
Line(1104) = {195,196};
Line(1105) = {197,144};
Line(1106) = {197,124};
Line(1107) = {196,197};
Line(1108) = {198,51};
Line(1109) = {198,46};
Line(1110) = {197,198};


// FACES DEFINITION 

Curve Loop(545) = {-104,103,102,-101};
Surface(545) = {545};
Curve Loop(546) = {109,105,-101,-108};
Surface(546) = {546};
Curve Loop(547) = {-110,106,102,-105};
Surface(547) = {547};
Curve Loop(548) = {111,106,-103,-107};
Surface(548) = {548};
Curve Loop(549) = {-112,107,104,-108};
Surface(549) = {549};
Curve Loop(550) = {-112,111,110,-109};
Surface(550) = {550};
Curve Loop(551) = {-116,115,114,-113};
Surface(551) = {551};
Curve Loop(552) = {101,117,-113,-120};
Surface(552) = {552};
Curve Loop(553) = {-102,118,114,-117};
Surface(553) = {553};
Curve Loop(554) = {103,118,-115,-119};
Surface(554) = {554};
Curve Loop(555) = {-104,119,116,-120};
Surface(555) = {555};
Curve Loop(556) = {-124,123,122,-121};
Surface(556) = {556};
Curve Loop(557) = {113,125,-121,-128};
Surface(557) = {557};
Curve Loop(558) = {-114,126,122,-125};
Surface(558) = {558};
Curve Loop(559) = {115,126,-123,-127};
Surface(559) = {559};
Curve Loop(560) = {-116,127,124,-128};
Surface(560) = {560};
Curve Loop(561) = {-132,131,130,-129};
Surface(561) = {561};
Curve Loop(562) = {121,133,-129,-136};
Surface(562) = {562};
Curve Loop(563) = {-122,134,130,-133};
Surface(563) = {563};
Curve Loop(564) = {123,134,-131,-135};
Surface(564) = {564};
Curve Loop(565) = {-124,135,132,-136};
Surface(565) = {565};
Curve Loop(566) = {-140,139,138,-137};
Surface(566) = {566};
Curve Loop(567) = {129,141,-137,-144};
Surface(567) = {567};
Curve Loop(568) = {-130,142,138,-141};
Surface(568) = {568};
Curve Loop(569) = {131,142,-139,-143};
Surface(569) = {569};
Curve Loop(570) = {-132,143,140,-144};
Surface(570) = {570};
Curve Loop(571) = {-147,146,104,-145};
Surface(571) = {571};
Curve Loop(572) = {150,108,-145,-149};
Surface(572) = {572};
Curve Loop(573) = {151,107,-146,-148};
Surface(573) = {573};
Curve Loop(574) = {-152,148,147,-149};
Surface(574) = {574};
Curve Loop(575) = {-152,151,112,-150};
Surface(575) = {575};
Curve Loop(576) = {-155,154,116,-153};
Surface(576) = {576};
Curve Loop(577) = {145,120,-153,-157};
Surface(577) = {577};
Curve Loop(578) = {146,119,-154,-156};
Surface(578) = {578};
Curve Loop(579) = {-147,156,155,-157};
Surface(579) = {579};
Curve Loop(580) = {-160,159,124,-158};
Surface(580) = {580};
Curve Loop(581) = {153,128,-158,-162};
Surface(581) = {581};
Curve Loop(582) = {154,127,-159,-161};
Surface(582) = {582};
Curve Loop(583) = {-155,161,160,-162};
Surface(583) = {583};
Curve Loop(584) = {-165,164,132,-163};
Surface(584) = {584};
Curve Loop(585) = {158,136,-163,-167};
Surface(585) = {585};
Curve Loop(586) = {159,135,-164,-166};
Surface(586) = {586};
Curve Loop(587) = {-160,166,165,-167};
Surface(587) = {587};
Curve Loop(588) = {-170,169,140,-168};
Surface(588) = {588};
Curve Loop(589) = {163,144,-168,-172};
Surface(589) = {589};
Curve Loop(590) = {164,143,-169,-171};
Surface(590) = {590};
Curve Loop(591) = {-165,171,170,-172};
Surface(591) = {591};
Curve Loop(592) = {-175,174,147,-173};
Surface(592) = {592};
Curve Loop(593) = {178,149,-173,-177};
Surface(593) = {593};
Curve Loop(594) = {179,148,-174,-176};
Surface(594) = {594};
Curve Loop(595) = {-180,176,175,-177};
Surface(595) = {595};
Curve Loop(596) = {-180,179,152,-178};
Surface(596) = {596};
Curve Loop(597) = {-183,182,155,-181};
Surface(597) = {597};
Curve Loop(598) = {173,157,-181,-185};
Surface(598) = {598};
Curve Loop(599) = {174,156,-182,-184};
Surface(599) = {599};
Curve Loop(600) = {-175,184,183,-185};
Surface(600) = {600};
Curve Loop(601) = {-188,187,160,-186};
Surface(601) = {601};
Curve Loop(602) = {181,162,-186,-190};
Surface(602) = {602};
Curve Loop(603) = {182,161,-187,-189};
Surface(603) = {603};
Curve Loop(604) = {-183,189,188,-190};
Surface(604) = {604};
Curve Loop(605) = {-193,192,165,-191};
Surface(605) = {605};
Curve Loop(606) = {186,167,-191,-195};
Surface(606) = {606};
Curve Loop(607) = {187,166,-192,-194};
Surface(607) = {607};
Curve Loop(608) = {-188,194,193,-195};
Surface(608) = {608};
Curve Loop(609) = {-198,197,170,-196};
Surface(609) = {609};
Curve Loop(610) = {191,172,-196,-200};
Surface(610) = {610};
Curve Loop(611) = {192,171,-197,-199};
Surface(611) = {611};
Curve Loop(612) = {-193,199,198,-200};
Surface(612) = {612};
Curve Loop(613) = {203,202,175,-201};
Surface(613) = {613};
Curve Loop(614) = {206,177,-201,-205};
Surface(614) = {614};
Curve Loop(615) = {207,176,-202,-204};
Surface(615) = {615};
Curve Loop(616) = {208,204,-203,-205};
Surface(616) = {616};
Curve Loop(617) = {208,207,180,-206};
Surface(617) = {617};
Curve Loop(618) = {211,210,183,-209};
Surface(618) = {618};
Curve Loop(619) = {201,185,-209,-213};
Surface(619) = {619};
Curve Loop(620) = {202,184,-210,-212};
Surface(620) = {620};
Curve Loop(621) = {203,212,-211,-213};
Surface(621) = {621};
Curve Loop(622) = {216,215,188,-214};
Surface(622) = {622};
Curve Loop(623) = {209,190,-214,-218};
Surface(623) = {623};
Curve Loop(624) = {210,189,-215,-217};
Surface(624) = {624};
Curve Loop(625) = {211,217,-216,-218};
Surface(625) = {625};
Curve Loop(626) = {221,220,193,-219};
Surface(626) = {626};
Curve Loop(627) = {214,195,-219,-223};
Surface(627) = {627};
Curve Loop(628) = {215,194,-220,-222};
Surface(628) = {628};
Curve Loop(629) = {216,222,-221,-223};
Surface(629) = {629};
Curve Loop(630) = {226,225,198,-224};
Surface(630) = {630};
Curve Loop(631) = {219,200,-224,-228};
Surface(631) = {631};
Curve Loop(632) = {220,199,-225,-227};
Surface(632) = {632};
Curve Loop(633) = {221,227,-226,-228};
Surface(633) = {633};
Curve Loop(634) = {-231,101,230,-229};
Surface(634) = {634};
Curve Loop(635) = {234,232,-229,-233};
Surface(635) = {635};
Curve Loop(636) = {-235,105,230,-232};
Surface(636) = {636};
Curve Loop(637) = {-236,108,231,-233};
Surface(637) = {637};
Curve Loop(638) = {-236,109,235,-234};
Surface(638) = {638};
Curve Loop(639) = {-239,113,238,-237};
Surface(639) = {639};
Curve Loop(640) = {229,240,-237,-241};
Surface(640) = {640};
Curve Loop(641) = {-230,117,238,-240};
Surface(641) = {641};
Curve Loop(642) = {-231,120,239,-241};
Surface(642) = {642};
Curve Loop(643) = {-244,121,243,-242};
Surface(643) = {643};
Curve Loop(644) = {237,245,-242,-246};
Surface(644) = {644};
Curve Loop(645) = {-238,125,243,-245};
Surface(645) = {645};
Curve Loop(646) = {-239,128,244,-246};
Surface(646) = {646};
Curve Loop(647) = {-249,129,248,-247};
Surface(647) = {647};
Curve Loop(648) = {242,250,-247,-251};
Surface(648) = {648};
Curve Loop(649) = {-243,133,248,-250};
Surface(649) = {649};
Curve Loop(650) = {-244,136,249,-251};
Surface(650) = {650};
Curve Loop(651) = {-254,137,253,-252};
Surface(651) = {651};
Curve Loop(652) = {247,255,-252,-256};
Surface(652) = {652};
Curve Loop(653) = {-248,141,253,-255};
Surface(653) = {653};
Curve Loop(654) = {-249,144,254,-256};
Surface(654) = {654};
Curve Loop(655) = {-258,145,231,-257};
Surface(655) = {655};
Curve Loop(656) = {260,233,-257,-259};
Surface(656) = {656};
Curve Loop(657) = {-261,149,258,-259};
Surface(657) = {657};
Curve Loop(658) = {-261,150,236,-260};
Surface(658) = {658};
Curve Loop(659) = {-263,153,239,-262};
Surface(659) = {659};
Curve Loop(660) = {257,241,-262,-264};
Surface(660) = {660};
Curve Loop(661) = {-258,157,263,-264};
Surface(661) = {661};
Curve Loop(662) = {-266,158,244,-265};
Surface(662) = {662};
Curve Loop(663) = {262,246,-265,-267};
Surface(663) = {663};
Curve Loop(664) = {-263,162,266,-267};
Surface(664) = {664};
Curve Loop(665) = {-269,163,249,-268};
Surface(665) = {665};
Curve Loop(666) = {265,251,-268,-270};
Surface(666) = {666};
Curve Loop(667) = {-266,167,269,-270};
Surface(667) = {667};
Curve Loop(668) = {-272,168,254,-271};
Surface(668) = {668};
Curve Loop(669) = {268,256,-271,-273};
Surface(669) = {669};
Curve Loop(670) = {-269,172,272,-273};
Surface(670) = {670};
Curve Loop(671) = {-275,173,258,-274};
Surface(671) = {671};
Curve Loop(672) = {277,259,-274,-276};
Surface(672) = {672};
Curve Loop(673) = {-278,177,275,-276};
Surface(673) = {673};
Curve Loop(674) = {-278,178,261,-277};
Surface(674) = {674};
Curve Loop(675) = {-280,181,263,-279};
Surface(675) = {675};
Curve Loop(676) = {274,264,-279,-281};
Surface(676) = {676};
Curve Loop(677) = {-275,185,280,-281};
Surface(677) = {677};
Curve Loop(678) = {-283,186,266,-282};
Surface(678) = {678};
Curve Loop(679) = {279,267,-282,-284};
Surface(679) = {679};
Curve Loop(680) = {-280,190,283,-284};
Surface(680) = {680};
Curve Loop(681) = {-286,191,269,-285};
Surface(681) = {681};
Curve Loop(682) = {282,270,-285,-287};
Surface(682) = {682};
Curve Loop(683) = {-283,195,286,-287};
Surface(683) = {683};
Curve Loop(684) = {-289,196,272,-288};
Surface(684) = {684};
Curve Loop(685) = {285,273,-288,-290};
Surface(685) = {685};
Curve Loop(686) = {-286,200,289,-290};
Surface(686) = {686};
Curve Loop(688) = {294,276,-291,-293};
Surface(688) = {688};
Curve Loop(692) = {291,281,-296,-298};
Surface(692) = {692};
Curve Loop(695) = {296,284,-299,-301};
Surface(695) = {695};
Curve Loop(698) = {299,287,-302,-304};
Surface(698) = {698};
Curve Loop(701) = {302,290,-305,-307};
Surface(701) = {701};
Curve Loop(703) = {-310,229,309,-308};
Surface(703) = {703};
Curve Loop(704) = {313,311,-308,-312};
Surface(704) = {704};
Curve Loop(705) = {-314,232,309,-311};
Surface(705) = {705};
Curve Loop(706) = {-315,233,310,-312};
Surface(706) = {706};
Curve Loop(707) = {-315,234,314,-313};
Surface(707) = {707};
Curve Loop(708) = {-318,237,317,-316};
Surface(708) = {708};
Curve Loop(709) = {308,319,-316,-320};
Surface(709) = {709};
Curve Loop(710) = {-309,240,317,-319};
Surface(710) = {710};
Curve Loop(711) = {-310,241,318,-320};
Surface(711) = {711};
Curve Loop(712) = {-323,242,322,-321};
Surface(712) = {712};
Curve Loop(713) = {316,324,-321,-325};
Surface(713) = {713};
Curve Loop(714) = {-317,245,322,-324};
Surface(714) = {714};
Curve Loop(715) = {-318,246,323,-325};
Surface(715) = {715};
Curve Loop(716) = {-328,247,327,-326};
Surface(716) = {716};
Curve Loop(717) = {321,329,-326,-330};
Surface(717) = {717};
Curve Loop(718) = {-322,250,327,-329};
Surface(718) = {718};
Curve Loop(719) = {-323,251,328,-330};
Surface(719) = {719};
Curve Loop(720) = {-333,252,332,-331};
Surface(720) = {720};
Curve Loop(721) = {326,334,-331,-335};
Surface(721) = {721};
Curve Loop(722) = {-327,255,332,-334};
Surface(722) = {722};
Curve Loop(723) = {-328,256,333,-335};
Surface(723) = {723};
Curve Loop(725) = {339,312,-336,-338};
Surface(725) = {725};
Curve Loop(729) = {336,320,-341,-343};
Surface(729) = {729};
Curve Loop(732) = {341,325,-344,-346};
Surface(732) = {732};
Curve Loop(735) = {344,330,-347,-349};
Surface(735) = {735};
Curve Loop(738) = {347,335,-350,-352};
Surface(738) = {738};
Curve Loop(741) = {356,338,-353,-355};
Surface(741) = {741};
Curve Loop(742) = {-357,276,354,-355};
Surface(742) = {742};
Curve Loop(745) = {353,343,-358,-360};
Surface(745) = {745};
Curve Loop(746) = {-354,281,359,-360};
Surface(746) = {746};
Curve Loop(748) = {358,346,-361,-363};
Surface(748) = {748};
Curve Loop(749) = {-359,284,362,-363};
Surface(749) = {749};
Curve Loop(751) = {361,349,-364,-366};
Surface(751) = {751};
Curve Loop(752) = {-362,287,365,-366};
Surface(752) = {752};
Curve Loop(754) = {364,352,-367,-369};
Surface(754) = {754};
Curve Loop(755) = {-365,290,368,-369};
Surface(755) = {755};
Curve Loop(756) = {371,291,354,-370};
Surface(756) = {756};
Curve Loop(757) = {373,355,-370,-372};
Surface(757) = {757};
Curve Loop(758) = {374,293,-371,-372};
Surface(758) = {758};
Curve Loop(759) = {374,294,357,-373};
Surface(759) = {759};
Curve Loop(760) = {376,296,359,-375};
Surface(760) = {760};
Curve Loop(761) = {370,360,-375,-377};
Surface(761) = {761};
Curve Loop(762) = {371,298,-376,-377};
Surface(762) = {762};
Curve Loop(763) = {379,299,362,-378};
Surface(763) = {763};
Curve Loop(764) = {375,363,-378,-380};
Surface(764) = {764};
Curve Loop(765) = {376,301,-379,-380};
Surface(765) = {765};
Curve Loop(766) = {382,302,365,-381};
Surface(766) = {766};
Curve Loop(767) = {378,366,-381,-383};
Surface(767) = {767};
Curve Loop(768) = {379,304,-382,-383};
Surface(768) = {768};
Curve Loop(769) = {385,305,368,-384};
Surface(769) = {769};
Curve Loop(770) = {381,369,-384,-386};
Surface(770) = {770};
Curve Loop(771) = {382,307,-385,-386};
Surface(771) = {771};
Curve Loop(773) = {392,390,-387,-391};
Surface(773) = {773};
Curve Loop(775) = {-394,312,389,-391};
Surface(775) = {775};
Curve Loop(778) = {387,398,-395,-399};
Surface(778) = {778};
Curve Loop(780) = {-389,320,397,-399};
Surface(780) = {780};
Curve Loop(782) = {395,403,-400,-404};
Surface(782) = {782};
Curve Loop(784) = {-397,325,402,-404};
Surface(784) = {784};
Curve Loop(786) = {400,408,-405,-409};
Surface(786) = {786};
Curve Loop(788) = {-402,330,407,-409};
Surface(788) = {788};
Curve Loop(790) = {405,413,-410,-414};
Surface(790) = {790};
Curve Loop(792) = {-407,335,412,-414};
Surface(792) = {792};
Curve Loop(793) = {-416,336,389,-415};
Surface(793) = {793};
Curve Loop(794) = {418,391,-415,-417};
Surface(794) = {794};
Curve Loop(795) = {-419,338,416,-417};
Surface(795) = {795};
Curve Loop(796) = {-419,339,394,-418};
Surface(796) = {796};
Curve Loop(797) = {-421,341,397,-420};
Surface(797) = {797};
Curve Loop(798) = {415,399,-420,-422};
Surface(798) = {798};
Curve Loop(799) = {-416,343,421,-422};
Surface(799) = {799};
Curve Loop(800) = {-424,344,402,-423};
Surface(800) = {800};
Curve Loop(801) = {420,404,-423,-425};
Surface(801) = {801};
Curve Loop(802) = {-421,346,424,-425};
Surface(802) = {802};
Curve Loop(803) = {-427,347,407,-426};
Surface(803) = {803};
Curve Loop(804) = {423,409,-426,-428};
Surface(804) = {804};
Curve Loop(805) = {-424,349,427,-428};
Surface(805) = {805};
Curve Loop(806) = {-430,350,412,-429};
Surface(806) = {806};
Curve Loop(807) = {426,414,-429,-431};
Surface(807) = {807};
Curve Loop(808) = {-427,352,430,-431};
Surface(808) = {808};
Curve Loop(809) = {-433,353,416,-432};
Surface(809) = {809};
Curve Loop(810) = {435,417,-432,-434};
Surface(810) = {810};
Curve Loop(811) = {-436,355,433,-434};
Surface(811) = {811};
Curve Loop(812) = {-436,356,419,-435};
Surface(812) = {812};
Curve Loop(813) = {-438,358,421,-437};
Surface(813) = {813};
Curve Loop(814) = {432,422,-437,-439};
Surface(814) = {814};
Curve Loop(815) = {-433,360,438,-439};
Surface(815) = {815};
Curve Loop(816) = {-441,361,424,-440};
Surface(816) = {816};
Curve Loop(817) = {437,425,-440,-442};
Surface(817) = {817};
Curve Loop(818) = {-438,363,441,-442};
Surface(818) = {818};
Curve Loop(819) = {-444,364,427,-443};
Surface(819) = {819};
Curve Loop(820) = {440,428,-443,-445};
Surface(820) = {820};
Curve Loop(821) = {-441,366,444,-445};
Surface(821) = {821};
Curve Loop(822) = {-447,367,430,-446};
Surface(822) = {822};
Curve Loop(823) = {443,431,-446,-448};
Surface(823) = {823};
Curve Loop(824) = {-444,369,447,-448};
Surface(824) = {824};
Curve Loop(825) = {450,370,433,-449};
Surface(825) = {825};
Curve Loop(826) = {452,434,-449,-451};
Surface(826) = {826};
Curve Loop(827) = {453,372,-450,-451};
Surface(827) = {827};
Curve Loop(828) = {453,373,436,-452};
Surface(828) = {828};
Curve Loop(829) = {455,375,438,-454};
Surface(829) = {829};
Curve Loop(830) = {449,439,-454,-456};
Surface(830) = {830};
Curve Loop(831) = {450,377,-455,-456};
Surface(831) = {831};
Curve Loop(832) = {458,378,441,-457};
Surface(832) = {832};
Curve Loop(833) = {454,442,-457,-459};
Surface(833) = {833};
Curve Loop(834) = {455,380,-458,-459};
Surface(834) = {834};
Curve Loop(835) = {461,381,444,-460};
Surface(835) = {835};
Curve Loop(836) = {457,445,-460,-462};
Surface(836) = {836};
Curve Loop(837) = {458,383,-461,-462};
Surface(837) = {837};
Curve Loop(838) = {464,384,447,-463};
Surface(838) = {838};
Curve Loop(839) = {460,448,-463,-465};
Surface(839) = {839};
Curve Loop(840) = {461,386,-464,-465};
Surface(840) = {840};
Curve Loop(841) = {-468,387,467,466};
Surface(841) = {841};
Curve Loop(842) = {-471,469,466,-470};
Surface(842) = {842};
Curve Loop(843) = {-472,390,467,-469};
Surface(843) = {843};
Curve Loop(844) = {-473,391,468,-470};
Surface(844) = {844};
Curve Loop(845) = {-473,392,472,471};
Surface(845) = {845};
Curve Loop(846) = {-476,395,475,474};
Surface(846) = {846};
Curve Loop(847) = {-466,477,474,-478};
Surface(847) = {847};
Curve Loop(848) = {-467,398,475,-477};
Surface(848) = {848};
Curve Loop(849) = {-468,399,476,-478};
Surface(849) = {849};
Curve Loop(850) = {-481,400,480,479};
Surface(850) = {850};
Curve Loop(851) = {-474,482,479,-483};
Surface(851) = {851};
Curve Loop(852) = {-475,403,480,-482};
Surface(852) = {852};
Curve Loop(853) = {-476,404,481,-483};
Surface(853) = {853};
Curve Loop(854) = {-486,405,485,484};
Surface(854) = {854};
Curve Loop(855) = {-479,487,484,-488};
Surface(855) = {855};
Curve Loop(856) = {-480,408,485,-487};
Surface(856) = {856};
Curve Loop(857) = {-481,409,486,-488};
Surface(857) = {857};
Curve Loop(858) = {-491,410,490,489};
Surface(858) = {858};
Curve Loop(859) = {-484,492,489,-493};
Surface(859) = {859};
Curve Loop(860) = {-485,413,490,-492};
Surface(860) = {860};
Curve Loop(861) = {-486,414,491,-493};
Surface(861) = {861};
Curve Loop(862) = {-495,415,468,494};
Surface(862) = {862};
Curve Loop(863) = {-497,470,494,-496};
Surface(863) = {863};
Curve Loop(864) = {-498,417,495,-496};
Surface(864) = {864};
Curve Loop(865) = {-498,418,473,497};
Surface(865) = {865};
Curve Loop(866) = {-500,420,476,499};
Surface(866) = {866};
Curve Loop(867) = {-494,478,499,-501};
Surface(867) = {867};
Curve Loop(868) = {-495,422,500,-501};
Surface(868) = {868};
Curve Loop(869) = {-503,423,481,502};
Surface(869) = {869};
Curve Loop(870) = {-499,483,502,-504};
Surface(870) = {870};
Curve Loop(871) = {-500,425,503,-504};
Surface(871) = {871};
Curve Loop(872) = {-506,426,486,505};
Surface(872) = {872};
Curve Loop(873) = {-502,488,505,-507};
Surface(873) = {873};
Curve Loop(874) = {-503,428,506,-507};
Surface(874) = {874};
Curve Loop(875) = {-509,429,491,508};
Surface(875) = {875};
Curve Loop(876) = {-505,493,508,-510};
Surface(876) = {876};
Curve Loop(877) = {-506,431,509,-510};
Surface(877) = {877};
Curve Loop(878) = {-512,432,495,511};
Surface(878) = {878};
Curve Loop(879) = {-514,496,511,-513};
Surface(879) = {879};
Curve Loop(880) = {-515,434,512,-513};
Surface(880) = {880};
Curve Loop(881) = {-515,435,498,514};
Surface(881) = {881};
Curve Loop(882) = {-517,437,500,516};
Surface(882) = {882};
Curve Loop(883) = {-511,501,516,-518};
Surface(883) = {883};
Curve Loop(884) = {-512,439,517,-518};
Surface(884) = {884};
Curve Loop(885) = {-520,440,503,519};
Surface(885) = {885};
Curve Loop(886) = {-516,504,519,-521};
Surface(886) = {886};
Curve Loop(887) = {-517,442,520,-521};
Surface(887) = {887};
Curve Loop(888) = {-523,443,506,522};
Surface(888) = {888};
Curve Loop(889) = {-519,507,522,-524};
Surface(889) = {889};
Curve Loop(890) = {-520,445,523,-524};
Surface(890) = {890};
Curve Loop(891) = {-526,446,509,525};
Surface(891) = {891};
Curve Loop(892) = {-522,510,525,-527};
Surface(892) = {892};
Curve Loop(893) = {-523,448,526,-527};
Surface(893) = {893};
Curve Loop(894) = {529,449,512,528};
Surface(894) = {894};
Curve Loop(895) = {-531,513,528,-530};
Surface(895) = {895};
Curve Loop(896) = {532,451,-529,-530};
Surface(896) = {896};
Curve Loop(897) = {532,452,515,531};
Surface(897) = {897};
Curve Loop(898) = {534,454,517,533};
Surface(898) = {898};
Curve Loop(899) = {-528,518,533,-535};
Surface(899) = {899};
Curve Loop(900) = {529,456,-534,-535};
Surface(900) = {900};
Curve Loop(901) = {537,457,520,536};
Surface(901) = {901};
Curve Loop(902) = {-533,521,536,-538};
Surface(902) = {902};
Curve Loop(903) = {534,459,-537,-538};
Surface(903) = {903};
Curve Loop(904) = {540,460,523,539};
Surface(904) = {904};
Curve Loop(905) = {-536,524,539,-541};
Surface(905) = {905};
Curve Loop(906) = {537,462,-540,-541};
Surface(906) = {906};
Curve Loop(907) = {543,463,526,542};
Surface(907) = {907};
Curve Loop(908) = {-539,527,542,-544};
Surface(908) = {908};
Curve Loop(909) = {540,465,-543,-544};
Surface(909) = {909};
Curve Loop(946) = {911,201,-1048};
Surface(946) = {946};
Curve Loop(947) = {1048,275,-1049};
Surface(947) = {947};
Curve Loop(948) = {1049,-291,910};
Surface(948) = {948};
Curve Loop(949) = {-1050,913,205,-911};
Surface(949) = {949};
Curve Loop(950) = {1050,-910,-293,912};
Surface(950) = {950};
Curve Loop(951) = {913,206,-1051};
Surface(951) = {951};
Curve Loop(952) = {1051,278,-1052};
Surface(952) = {952};
Curve Loop(953) = {1052,-294,912};
Surface(953) = {953};
Curve Loop(954) = {915,209,-1053};
Surface(954) = {954};
Curve Loop(955) = {1053,280,-1054};
Surface(955) = {955};
Curve Loop(956) = {1054,-296,914};
Surface(956) = {956};
Curve Loop(957) = {-1055,911,213,-915};
Surface(957) = {957};
Curve Loop(958) = {1055,-914,-298,910};
Surface(958) = {958};
Curve Loop(959) = {917,214,-1056};
Surface(959) = {959};
Curve Loop(960) = {1056,283,-1057};
Surface(960) = {960};
Curve Loop(961) = {1057,-299,916};
Surface(961) = {961};
Curve Loop(962) = {-1058,915,218,-917};
Surface(962) = {962};
Curve Loop(963) = {1058,-916,-301,914};
Surface(963) = {963};
Curve Loop(964) = {919,219,-1059};
Surface(964) = {964};
Curve Loop(965) = {1059,286,-1060};
Surface(965) = {965};
Curve Loop(966) = {1060,-302,918};
Surface(966) = {966};
Curve Loop(967) = {-1061,917,223,-919};
Surface(967) = {967};
Curve Loop(968) = {1061,-918,-304,916};
Surface(968) = {968};
Curve Loop(969) = {921,224,-1062};
Surface(969) = {969};
Curve Loop(970) = {1062,289,-1063};
Surface(970) = {970};
Curve Loop(971) = {1063,-305,920};
Surface(971) = {971};
Curve Loop(972) = {-1064,919,228,-921};
Surface(972) = {972};
Curve Loop(973) = {1064,-920,-307,918};
Surface(973) = {973};
Curve Loop(974) = {-922,257,-1065};
Surface(974) = {974};
Curve Loop(975) = {1065,310,-1066};
Surface(975) = {975};
Curve Loop(976) = {1066,-336,-923};
Surface(976) = {976};
Curve Loop(977) = {-1067,-924,259,922};
Surface(977) = {977};
Curve Loop(978) = {1067,923,-338,-925};
Surface(978) = {978};
Curve Loop(979) = {-924,260,-1068};
Surface(979) = {979};
Curve Loop(980) = {1068,315,-1069};
Surface(980) = {980};
Curve Loop(981) = {1069,-339,-925};
Surface(981) = {981};
Curve Loop(982) = {-926,262,-1070};
Surface(982) = {982};
Curve Loop(983) = {1070,318,-1071};
Surface(983) = {983};
Curve Loop(984) = {1071,-341,-927};
Surface(984) = {984};
Curve Loop(985) = {-1072,-922,264,926};
Surface(985) = {985};
Curve Loop(986) = {1072,927,-343,-923};
Surface(986) = {986};
Curve Loop(987) = {-928,265,-1073};
Surface(987) = {987};
Curve Loop(988) = {1073,323,-1074};
Surface(988) = {988};
Curve Loop(989) = {1074,-344,-929};
Surface(989) = {989};
Curve Loop(990) = {-1075,-926,267,928};
Surface(990) = {990};
Curve Loop(991) = {1075,929,-346,-927};
Surface(991) = {991};
Curve Loop(992) = {-930,268,-1076};
Surface(992) = {992};
Curve Loop(993) = {1076,328,-1077};
Surface(993) = {993};
Curve Loop(994) = {1077,-347,-931};
Surface(994) = {994};
Curve Loop(995) = {-1078,-928,270,930};
Surface(995) = {995};
Curve Loop(996) = {1078,931,-349,-929};
Surface(996) = {996};
Curve Loop(997) = {-932,271,-1079};
Surface(997) = {997};
Curve Loop(998) = {1079,333,-1080};
Surface(998) = {998};
Curve Loop(999) = {1080,-350,-933};
Surface(999) = {999};
Curve Loop(1000) = {-1081,-930,273,932};
Surface(1000) = {1000};
Curve Loop(1001) = {1081,933,-352,-931};
Surface(1001) = {1001};
Curve Loop(1002) = {923,-353,-1082};
Surface(1002) = {1002};
Curve Loop(1003) = {1082,-354,-1083};
Surface(1003) = {1003};
Curve Loop(1004) = {1083,274,922};
Surface(1004) = {1004};
Curve Loop(1005) = {925,-356,-1084};
Surface(1005) = {1005};
Curve Loop(1006) = {1084,-357,-1085};
Surface(1006) = {1006};
Curve Loop(1007) = {1085,277,924};
Surface(1007) = {1007};
Curve Loop(1008) = {927,-358,-1086};
Surface(1008) = {1008};
Curve Loop(1009) = {1086,-359,-1087};
Surface(1009) = {1009};
Curve Loop(1010) = {1087,279,926};
Surface(1010) = {1010};
Curve Loop(1011) = {929,-361,-1088};
Surface(1011) = {1011};
Curve Loop(1012) = {1088,-362,-1089};
Surface(1012) = {1012};
Curve Loop(1013) = {1089,282,928};
Surface(1013) = {1013};
Curve Loop(1014) = {931,-364,-1090};
Surface(1014) = {1014};
Curve Loop(1015) = {1090,-365,-1091};
Surface(1015) = {1015};
Curve Loop(1016) = {1091,285,930};
Surface(1016) = {1016};
Curve Loop(1017) = {933,-367,-1092};
Surface(1017) = {1017};
Curve Loop(1018) = {1092,-368,-1093};
Surface(1018) = {1018};
Curve Loop(1019) = {1093,288,932};
Surface(1019) = {1019};
Curve Loop(1020) = {935,-387,-1094};
Surface(1020) = {1020};
Curve Loop(1021) = {1094,-389,-1095};
Surface(1021) = {1021};
Curve Loop(1022) = {1095,308,934};
Surface(1022) = {1022};
Curve Loop(1023) = {-1096,-936,311,934};
Surface(1023) = {1023};
Curve Loop(1024) = {1096,935,-390,-937};
Surface(1024) = {1024};
Curve Loop(1025) = {937,-392,-1097};
Surface(1025) = {1025};
Curve Loop(1026) = {1097,-394,-1098};
Surface(1026) = {1026};
Curve Loop(1027) = {1098,313,936};
Surface(1027) = {1027};
Curve Loop(1028) = {939,-395,-1099};
Surface(1028) = {1028};
Curve Loop(1029) = {1099,-397,-1100};
Surface(1029) = {1029};
Curve Loop(1030) = {1100,316,938};
Surface(1030) = {1030};
Curve Loop(1031) = {-1101,-934,319,938};
Surface(1031) = {1031};
Curve Loop(1032) = {1101,939,-398,-935};
Surface(1032) = {1032};
Curve Loop(1033) = {941,-400,-1102};
Surface(1033) = {1033};
Curve Loop(1034) = {1102,-402,-1103};
Surface(1034) = {1034};
Curve Loop(1035) = {1103,321,940};
Surface(1035) = {1035};
Curve Loop(1036) = {-1104,-938,324,940};
Surface(1036) = {1036};
Curve Loop(1037) = {1104,941,-403,-939};
Surface(1037) = {1037};
Curve Loop(1038) = {943,-405,-1105};
Surface(1038) = {1038};
Curve Loop(1039) = {1105,-407,-1106};
Surface(1039) = {1039};
Curve Loop(1040) = {1106,326,942};
Surface(1040) = {1040};
Curve Loop(1041) = {-1107,-940,329,942};
Surface(1041) = {1041};
Curve Loop(1042) = {1107,943,-408,-941};
Surface(1042) = {1042};
Curve Loop(1043) = {945,-410,-1108};
Surface(1043) = {1043};
Curve Loop(1044) = {1108,-412,-1109};
Surface(1044) = {1044};
Curve Loop(1045) = {1109,331,944};
Surface(1045) = {1045};
Curve Loop(1046) = {-1110,-942,334,944};
Surface(1046) = {1046};
Curve Loop(1047) = {1110,945,-413,-943};
Surface(1047) = {1047};
Curve Loop(1111) = {276,-1083,-1067,1085};
Surface(1111) = {1111};
Curve Loop(1112) = {276,-1049,-1050,1052};
Surface(1112) = {1112};
Curve Loop(1113) = {281,-1087,-1072,1083};
Surface(1113) = {1113};
Curve Loop(1114) = {281,-1054,-1055,1049};
Surface(1114) = {1114};
Curve Loop(1115) = {284,-1089,-1075,1087};
Surface(1115) = {1115};
Curve Loop(1116) = {284,-1057,-1058,1054};
Surface(1116) = {1116};
Curve Loop(1117) = {287,-1091,-1078,1089};
Surface(1117) = {1117};
Curve Loop(1118) = {287,-1060,-1061,1057};
Surface(1118) = {1118};
Curve Loop(1119) = {290,-1093,-1081,1091};
Surface(1119) = {1119};
Curve Loop(1120) = {290,-1063,-1064,1060};
Surface(1120) = {1120};
Curve Loop(1121) = {1066,320,-1071,-1072};
Surface(1121) = {1121};
Curve Loop(1122) = {1066,-312,-1069,1067};
Surface(1122) = {1122};
Curve Loop(1123) = {1071,325,-1074,-1075};
Surface(1123) = {1123};
Curve Loop(1124) = {1074,330,-1077,-1078};
Surface(1124) = {1124};
Curve Loop(1125) = {1077,335,-1080,-1081};
Surface(1125) = {1125};
Curve Loop(1126) = {-1095,1101,1100,-320};
Surface(1126) = {1126};
Curve Loop(1127) = {-1095,-1096,1098,312};
Surface(1127) = {1127};
Curve Loop(1128) = {-1100,1104,1103,-325};
Surface(1128) = {1128};
Curve Loop(1129) = {-1103,1107,1106,-330};
Surface(1129) = {1129};
Curve Loop(1130) = {-1106,1110,1109,-335};
Surface(1130) = {1130};

Physical Surface("Fractures",2) = {1111,1112,1113,1114,1115,1116,1117,1118,1119,1120,1121,1122,1123,1124,1125,1126,1127,1128,1129,1130};



// VOLUMES DEFINITION 

Surface Loop(2) = {545,546,547,548,549,550};
Volume(2) = {2};
Surface Loop(3) = {545,551,552,553,554,555};
Volume(3) = {3};
Surface Loop(4) = {551,556,557,558,559,560};
Volume(4) = {4};
Surface Loop(5) = {556,561,562,563,564,565};
Volume(5) = {5};
Surface Loop(6) = {561,566,567,568,569,570};
Volume(6) = {6};
Surface Loop(7) = {549,571,572,573,574,575};
Volume(7) = {7};
Surface Loop(8) = {555,571,576,577,578,579};
Volume(8) = {8};
Surface Loop(9) = {560,576,580,581,582,583};
Volume(9) = {9};
Surface Loop(10) = {565,580,584,585,586,587};
Volume(10) = {10};
Surface Loop(11) = {570,584,588,589,590,591};
Volume(11) = {11};
Surface Loop(12) = {574,592,593,594,595,596};
Volume(12) = {12};
Surface Loop(13) = {579,592,597,598,599,600};
Volume(13) = {13};
Surface Loop(14) = {583,597,601,602,603,604};
Volume(14) = {14};
Surface Loop(15) = {587,601,605,606,607,608};
Volume(15) = {15};
Surface Loop(16) = {591,605,609,610,611,612};
Volume(16) = {16};
Surface Loop(17) = {595,613,614,615,616,617};
Volume(17) = {17};
Surface Loop(18) = {600,613,618,619,620,621};
Volume(18) = {18};
Surface Loop(19) = {604,618,622,623,624,625};
Volume(19) = {19};
Surface Loop(20) = {608,622,626,627,628,629};
Volume(20) = {20};
Surface Loop(21) = {612,626,630,631,632,633};
Volume(21) = {21};
Surface Loop(22) = {546,634,635,636,637,638};
Volume(22) = {22};
Surface Loop(23) = {552,634,639,640,641,642};
Volume(23) = {23};
Surface Loop(24) = {557,639,643,644,645,646};
Volume(24) = {24};
Surface Loop(25) = {562,643,647,648,649,650};
Volume(25) = {25};
Surface Loop(26) = {567,647,651,652,653,654};
Volume(26) = {26};
Surface Loop(27) = {572,637,655,656,657,658};
Volume(27) = {27};
Surface Loop(28) = {577,642,655,659,660,661};
Volume(28) = {28};
Surface Loop(29) = {581,646,659,662,663,664};
Volume(29) = {29};
Surface Loop(30) = {585,650,662,665,666,667};
Volume(30) = {30};
Surface Loop(31) = {589,654,665,668,669,670};
Volume(31) = {31};
Surface Loop(32) = {593,657,671,672,673,674};
Volume(32) = {32};
Surface Loop(33) = {598,661,671,675,676,677};
Volume(33) = {33};
Surface Loop(34) = {602,664,675,678,679,680};
Volume(34) = {34};
Surface Loop(35) = {606,667,678,681,682,683};
Volume(35) = {35};
Surface Loop(36) = {610,670,681,684,685,686};
Volume(36) = {36};
Surface Loop(42) = {635,703,704,705,706,707};
Volume(42) = {42};
Surface Loop(43) = {640,703,708,709,710,711};
Volume(43) = {43};
Surface Loop(44) = {644,708,712,713,714,715};
Volume(44) = {44};
Surface Loop(45) = {648,712,716,717,718,719};
Volume(45) = {45};
Surface Loop(46) = {652,716,720,721,722,723};
Volume(46) = {46};
Surface Loop(57) = {688,742,756,757,758,759};
Volume(57) = {57};
Surface Loop(58) = {692,746,756,760,761,762};
Volume(58) = {58};
Surface Loop(59) = {695,749,760,763,764,765};
Volume(59) = {59};
Surface Loop(60) = {698,752,763,766,767,768};
Volume(60) = {60};
Surface Loop(61) = {701,755,766,769,770,771};
Volume(61) = {61};
Surface Loop(67) = {725,775,793,794,795,796};
Volume(67) = {67};
Surface Loop(68) = {729,780,793,797,798,799};
Volume(68) = {68};
Surface Loop(69) = {732,784,797,800,801,802};
Volume(69) = {69};
Surface Loop(70) = {735,788,800,803,804,805};
Volume(70) = {70};
Surface Loop(71) = {738,792,803,806,807,808};
Volume(71) = {71};
Surface Loop(72) = {741,795,809,810,811,812};
Volume(72) = {72};
Surface Loop(73) = {745,799,809,813,814,815};
Volume(73) = {73};
Surface Loop(74) = {748,802,813,816,817,818};
Volume(74) = {74};
Surface Loop(75) = {751,805,816,819,820,821};
Volume(75) = {75};
Surface Loop(76) = {754,808,819,822,823,824};
Volume(76) = {76};
Surface Loop(77) = {757,811,825,826,827,828};
Volume(77) = {77};
Surface Loop(78) = {761,815,825,829,830,831};
Volume(78) = {78};
Surface Loop(79) = {764,818,829,832,833,834};
Volume(79) = {79};
Surface Loop(80) = {767,821,832,835,836,837};
Volume(80) = {80};
Surface Loop(81) = {770,824,835,838,839,840};
Volume(81) = {81};
Surface Loop(82) = {773,841,842,843,844,845};
Volume(82) = {82};
Surface Loop(83) = {778,841,846,847,848,849};
Volume(83) = {83};
Surface Loop(84) = {782,846,850,851,852,853};
Volume(84) = {84};
Surface Loop(85) = {786,850,854,855,856,857};
Volume(85) = {85};
Surface Loop(86) = {790,854,858,859,860,861};
Volume(86) = {86};
Surface Loop(87) = {794,844,862,863,864,865};
Volume(87) = {87};
Surface Loop(88) = {798,849,862,866,867,868};
Volume(88) = {88};
Surface Loop(89) = {801,853,866,869,870,871};
Volume(89) = {89};
Surface Loop(90) = {804,857,869,872,873,874};
Volume(90) = {90};
Surface Loop(91) = {807,861,872,875,876,877};
Volume(91) = {91};
Surface Loop(92) = {810,864,878,879,880,881};
Volume(92) = {92};
Surface Loop(93) = {814,868,878,882,883,884};
Volume(93) = {93};
Surface Loop(94) = {817,871,882,885,886,887};
Volume(94) = {94};
Surface Loop(95) = {820,874,885,888,889,890};
Volume(95) = {95};
Surface Loop(96) = {823,877,888,891,892,893};
Volume(96) = {96};
Surface Loop(97) = {826,880,894,895,896,897};
Volume(97) = {97};
Surface Loop(98) = {830,884,894,898,899,900};
Volume(98) = {98};
Surface Loop(99) = {833,887,898,901,902,903};
Volume(99) = {99};
Surface Loop(100) = {836,890,901,904,905,906};
Volume(100) = {100};
Surface Loop(101) = {839,893,904,907,908,909};
Volume(101) = {101};
Surface Loop(102) = {741,742,978,1002,1003,1005,1006,1111};
Volume(102) = {102};
Surface Loop(103) = {672,977,1004,1007,1111};
Volume(103) = {103};
Surface Loop(104) = {614,673,946,947,949,951,952,1112};
Volume(104) = {104};
Surface Loop(105) = {688,948,950,953,1112};
Volume(105) = {105};
Surface Loop(106) = {745,746,986,1002,1003,1008,1009,1113};
Volume(106) = {106};
Surface Loop(107) = {676,985,1004,1010,1113};
Volume(107) = {107};
Surface Loop(108) = {619,677,946,947,954,955,957,1114};
Volume(108) = {108};
Surface Loop(109) = {692,948,956,958,1114};
Volume(109) = {109};
Surface Loop(110) = {748,749,991,1008,1009,1011,1012,1115};
Volume(110) = {110};
Surface Loop(111) = {679,990,1010,1013,1115};
Volume(111) = {111};
Surface Loop(112) = {623,680,954,955,959,960,962,1116};
Volume(112) = {112};
Surface Loop(113) = {695,956,961,963,1116};
Volume(113) = {113};
Surface Loop(114) = {751,752,996,1011,1012,1014,1015,1117};
Volume(114) = {114};
Surface Loop(115) = {682,995,1013,1016,1117};
Volume(115) = {115};
Surface Loop(116) = {627,683,959,960,964,965,967,1118};
Volume(116) = {116};
Surface Loop(117) = {698,961,966,968,1118};
Volume(117) = {117};
Surface Loop(118) = {754,755,1001,1014,1015,1017,1018,1119};
Volume(118) = {118};
Surface Loop(119) = {685,1000,1016,1019,1119};
Volume(119) = {119};
Surface Loop(120) = {631,686,964,965,969,970,972,1120};
Volume(120) = {120};
Surface Loop(121) = {701,966,971,973,1120};
Volume(121) = {121};
Surface Loop(122) = {660,711,974,975,982,983,985,1121};
Volume(122) = {122};
Surface Loop(123) = {729,976,984,986,1121};
Volume(123) = {123};
Surface Loop(124) = {725,976,978,981,1122};
Volume(124) = {124};
Surface Loop(125) = {656,706,974,975,977,979,980,1122};
Volume(125) = {125};
Surface Loop(126) = {663,715,982,983,987,988,990,1123};
Volume(126) = {126};
Surface Loop(127) = {732,984,989,991,1123};
Volume(127) = {127};
Surface Loop(128) = {666,719,987,988,992,993,995,1124};
Volume(128) = {128};
Surface Loop(129) = {735,989,994,996,1124};
Volume(129) = {129};
Surface Loop(130) = {669,723,992,993,997,998,1000,1125};
Volume(130) = {130};
Surface Loop(131) = {738,994,999,1001,1125};
Volume(131) = {131};
Surface Loop(132) = {709,1022,1030,1031,1126};
Volume(132) = {132};
Surface Loop(133) = {778,780,1020,1021,1028,1029,1032,1126};
Volume(133) = {133};
Surface Loop(134) = {773,775,1020,1021,1024,1025,1026,1127};
Volume(134) = {134};
Surface Loop(135) = {704,1022,1023,1027,1127};
Volume(135) = {135};
Surface Loop(136) = {713,1030,1035,1036,1128};
Volume(136) = {136};
Surface Loop(137) = {782,784,1028,1029,1033,1034,1037,1128};
Volume(137) = {137};
Surface Loop(138) = {717,1035,1040,1041,1129};
Volume(138) = {138};
Surface Loop(139) = {786,788,1033,1034,1038,1039,1042,1129};
Volume(139) = {139};
Surface Loop(140) = {721,1040,1045,1046,1130};
Volume(140) = {140};
Surface Loop(141) = {790,792,1038,1039,1043,1044,1047,1130};
Volume(141) = {141};


// COARSE ELEMENTS GROUPING

Physical Volume("c1",1) = {2};
Physical Volume("c2",2) = {3};
Physical Volume("c3",3) = {4};
Physical Volume("c4",4) = {5};
Physical Volume("c5",5) = {6};
Physical Volume("c6",6) = {7};
Physical Volume("c7",7) = {8};
Physical Volume("c8",8) = {9};
Physical Volume("c9",9) = {10};
Physical Volume("c10",10) = {11};
Physical Volume("c11",11) = {12};
Physical Volume("c12",12) = {13};
Physical Volume("c13",13) = {14};
Physical Volume("c14",14) = {15};
Physical Volume("c15",15) = {16};
Physical Volume("c16",16) = {17};
Physical Volume("c17",17) = {18};
Physical Volume("c18",18) = {19};
Physical Volume("c19",19) = {20};
Physical Volume("c20",20) = {21};
Physical Volume("c21",21) = {22};
Physical Volume("c22",22) = {23};
Physical Volume("c23",23) = {24};
Physical Volume("c24",24) = {25};
Physical Volume("c25",25) = {26};
Physical Volume("c26",26) = {27};
Physical Volume("c27",27) = {28};
Physical Volume("c28",28) = {29};
Physical Volume("c29",29) = {30};
Physical Volume("c30",30) = {31};
Physical Volume("c31",31) = {32};
Physical Volume("c32",32) = {33};
Physical Volume("c33",33) = {34};
Physical Volume("c34",34) = {35};
Physical Volume("c35",35) = {36};
Physical Volume("c36",36) = {104,105};
Physical Volume("c37",37) = {108,109};
Physical Volume("c38",38) = {112,113};
Physical Volume("c39",39) = {116,117};
Physical Volume("c40",40) = {120,121};
Physical Volume("c41",41) = {42};
Physical Volume("c42",42) = {43};
Physical Volume("c43",43) = {44};
Physical Volume("c44",44) = {45};
Physical Volume("c45",45) = {46};
Physical Volume("c46",46) = {124,125};
Physical Volume("c47",47) = {122,123};
Physical Volume("c48",48) = {126,127};
Physical Volume("c49",49) = {128,129};
Physical Volume("c50",50) = {130,131};
Physical Volume("c51",51) = {102,103};
Physical Volume("c52",52) = {106,107};
Physical Volume("c53",53) = {110,111};
Physical Volume("c54",54) = {114,115};
Physical Volume("c55",55) = {118,119};
Physical Volume("c56",56) = {57};
Physical Volume("c57",57) = {58};
Physical Volume("c58",58) = {59};
Physical Volume("c59",59) = {60};
Physical Volume("c60",60) = {61};
Physical Volume("c61",61) = {134,135};
Physical Volume("c62",62) = {132,133};
Physical Volume("c63",63) = {136,137};
Physical Volume("c64",64) = {138,139};
Physical Volume("c65",65) = {140,141};
Physical Volume("c66",66) = {67};
Physical Volume("c67",67) = {68};
Physical Volume("c68",68) = {69};
Physical Volume("c69",69) = {70};
Physical Volume("c70",70) = {71};
Physical Volume("c71",71) = {72};
Physical Volume("c72",72) = {73};
Physical Volume("c73",73) = {74};
Physical Volume("c74",74) = {75};
Physical Volume("c75",75) = {76};
Physical Volume("c76",76) = {77};
Physical Volume("c77",77) = {78};
Physical Volume("c78",78) = {79};
Physical Volume("c79",79) = {80};
Physical Volume("c80",80) = {81};
Physical Volume("c81",81) = {82};
Physical Volume("c82",82) = {83};
Physical Volume("c83",83) = {84};
Physical Volume("c84",84) = {85};
Physical Volume("c85",85) = {86};
Physical Volume("c86",86) = {87};
Physical Volume("c87",87) = {88};
Physical Volume("c88",88) = {89};
Physical Volume("c89",89) = {90};
Physical Volume("c90",90) = {91};
Physical Volume("c91",91) = {92};
Physical Volume("c92",92) = {93};
Physical Volume("c93",93) = {94};
Physical Volume("c94",94) = {95};
Physical Volume("c95",95) = {96};
Physical Volume("c96",96) = {97};
Physical Volume("c97",97) = {98};
Physical Volume("c98",98) = {99};
Physical Volume("c99",99) = {100};
Physical Volume("c100",100) = {101};



// BOUNDARY CONDITIONS

Physical Surface("bc1",1) = {547,548,550,553,554,558,559,563,564,566,568,569,573,575,578,582,586,588,590,594,596,599,603,607,609,611,615,616,617,620,621,624,625,628,629,630,632,633,636,638,641,645,649,651,653,658,668,674,684,705,707,710,714,718,720,722,758,759,762,765,768,769,771,796,806,812,822,827,828,831,834,837,838,840,842,843,845,847,848,851,852,855,856,858,859,860,863,865,867,870,873,875,876,879,881,883,886,889,891,892,895,896,897,899,900,902,903,905,906,907,908,909,949,950,951,952,953,957,958,962,963,967,968,969,970,971,972,973,979,980,981,997,998,999,1005,1006,1007,1017,1018,1019,1023,1024,1025,1026,1027,1031,1032,1036,1037,1041,1042,1043,1044,1045,1046,1047};


// OPTIONS

Coherence Mesh;
// Transfinite Surface{:};
// Transfinite Volume{:};
// Recombine Surface{:};
// Recombine Volume{:};