//  Geo file generated by Discrete Fracture Network methods 
// Fracture #1 

// POINTS DEFINITION 

Point(1) = {311924,7.484e+06,1759.65};
Point(2) = {312456,7.484e+06,1737.58};
Point(3) = {312987,7.484e+06,1709.12};
Point(4) = {313519,7.484e+06,1726.61};
Point(5) = {314051,7.484e+06,1760.5};
Point(6) = {314582,7.484e+06,1768};
Point(7) = {315114,7.484e+06,1809.25};
Point(8) = {311924,7.4834e+06,1707.04};
Point(9) = {312456,7.4834e+06,1735.53};
Point(10) = {312987,7.4834e+06,1723};
Point(11) = {313519,7.4834e+06,1714.13};
Point(12) = {314051,7.4834e+06,1708.11};
Point(13) = {314582,7.4834e+06,1780.13};
Point(14) = {315114,7.4834e+06,1775.68};
Point(15) = {315646,7.4834e+06,1819.19};
Point(16) = {311924,7.4828e+06,1710.62};
Point(17) = {312456,7.4828e+06,1742.67};
Point(18) = {312987,7.4828e+06,1735.09};
Point(19) = {313519,7.4828e+06,1741.47};
Point(20) = {314051,7.4828e+06,1780};
Point(21) = {314582,7.4828e+06,1762.69};
Point(22) = {315114,7.4828e+06,1790.84};
Point(23) = {315646,7.4828e+06,1829.79};
Point(24) = {311924,7.4822e+06,1764.58};
Point(25) = {312456,7.4822e+06,1744.57};
Point(26) = {312987,7.4822e+06,1735.53};
Point(27) = {313519,7.4822e+06,1726.75};
Point(28) = {314051,7.4822e+06,1688.3};
Point(29) = {314582,7.4822e+06,1716.46};
Point(30) = {315114,7.4822e+06,1763.67};
Point(31) = {315646,7.4822e+06,1809.44};
Point(32) = {316178,7.4822e+06,1837.27};
Point(33) = {311924,7.4816e+06,1773.83};
Point(34) = {312456,7.4816e+06,1740.99};
Point(35) = {312987,7.4816e+06,1709.62};
Point(36) = {313519,7.4816e+06,1728.07};
Point(37) = {314051,7.4816e+06,1710.26};
Point(38) = {314582,7.4816e+06,1739.77};
Point(39) = {315114,7.4816e+06,1761};
Point(40) = {315646,7.4816e+06,1771.42};
Point(41) = {316178,7.4816e+06,1787.89};
Point(42) = {312456,7.48099e+06,1762.37};
Point(43) = {312987,7.48099e+06,1733.36};
Point(44) = {313519,7.48099e+06,1693.84};
Point(45) = {314051,7.48099e+06,1712.11};
Point(46) = {314582,7.48099e+06,1726.88};
Point(47) = {315114,7.48099e+06,1709.66};
Point(48) = {315646,7.48099e+06,1756.64};
Point(49) = {316178,7.48099e+06,1790.03};
Point(50) = {312987,7.48039e+06,1783.28};
Point(51) = {313519,7.48039e+06,1754.27};
Point(52) = {314051,7.48039e+06,1678.26};
Point(53) = {314582,7.48039e+06,1645.63};
Point(54) = {315114,7.48039e+06,1721.5};
Point(55) = {315646,7.48039e+06,1811.31};
Point(56) = {316178,7.48039e+06,1865.22};
Point(57) = {314582,7.47979e+06,1665.93};
Point(58) = {315114,7.47979e+06,1764.09};
Point(59) = {315646,7.47979e+06,1785.57};
Point(60) = {316178,7.47979e+06,1802.99};
Point(61) = {315114,7.47919e+06,1754.26};
Point(62) = {315646,7.47919e+06,1835.41};
Point(63) = {316178,7.47919e+06,1862.28};
Point(64) = {311924,7.484e+06,2013.07};
Point(65) = {312456,7.484e+06,1977.31};
Point(66) = {312987,7.484e+06,1943.4};
Point(67) = {313519,7.484e+06,1936.63};
Point(68) = {314051,7.484e+06,1997.11};
Point(69) = {314582,7.484e+06,1990.1};
Point(70) = {315114,7.484e+06,1993.86};
Point(71) = {311924,7.4834e+06,1959.37};
Point(72) = {312456,7.4834e+06,1988.16};
Point(73) = {312987,7.4834e+06,1960.78};
Point(74) = {313519,7.4834e+06,1889.1};
Point(75) = {314051,7.4834e+06,1893.48};
Point(76) = {314582,7.4834e+06,1980.48};
Point(77) = {315114,7.4834e+06,1956.47};
Point(78) = {315646,7.4834e+06,1986.31};
Point(79) = {311924,7.4828e+06,1946.05};
Point(80) = {312456,7.4828e+06,1954.1};
Point(81) = {312987,7.4828e+06,1950.88};
Point(82) = {313519,7.4828e+06,1989.14};
Point(83) = {314051,7.4828e+06,1994.86};
Point(84) = {314582,7.4828e+06,1971.27};
Point(85) = {315114,7.4828e+06,1979.84};
Point(86) = {315646,7.4828e+06,1962.19};
Point(87) = {311924,7.4822e+06,2034.98};
Point(88) = {312456,7.4822e+06,1958.54};
Point(89) = {312987,7.4822e+06,1906.37};
Point(90) = {313519,7.4822e+06,1933.51};
Point(91) = {314051,7.4822e+06,1915.36};
Point(92) = {314582,7.4822e+06,1976.45};
Point(93) = {315114,7.4822e+06,1966.65};
Point(94) = {315646,7.4822e+06,1980.46};
Point(95) = {316178,7.4822e+06,2036.06};
Point(96) = {311924,7.4816e+06,2015.17};
Point(97) = {312456,7.4816e+06,1938.5};
Point(98) = {312987,7.4816e+06,1874.99};
Point(99) = {313519,7.4816e+06,1867.25};
Point(100) = {314051,7.4816e+06,1897.83};
Point(101) = {314582,7.4816e+06,1962.09};
Point(102) = {315114,7.4816e+06,1946.34};
Point(103) = {315646,7.4816e+06,1970.84};
Point(104) = {316178,7.4816e+06,2001.01};
Point(105) = {312456,7.48099e+06,1961.58};
Point(106) = {312987,7.48099e+06,1933.74};
Point(107) = {313519,7.48099e+06,1891.28};
Point(108) = {314051,7.48099e+06,1876.25};
Point(109) = {314582,7.48099e+06,1934.49};
Point(110) = {315114,7.48099e+06,1900.24};
Point(111) = {315646,7.48099e+06,1934.39};
Point(112) = {316178,7.48099e+06,1968.06};
Point(113) = {312987,7.48039e+06,1954.4};
Point(114) = {313519,7.48039e+06,1945.64};
Point(115) = {314051,7.48039e+06,1880.73};
Point(116) = {314582,7.48039e+06,1833.85};
Point(117) = {315114,7.48039e+06,1886.11};
Point(118) = {315646,7.48039e+06,1988.48};
Point(119) = {316178,7.48039e+06,2047.1};
Point(120) = {314582,7.47979e+06,1854.12};
Point(121) = {315114,7.47979e+06,1939.58};
Point(122) = {315646,7.47979e+06,1958.96};
Point(123) = {316178,7.47979e+06,1993.3};
Point(124) = {315114,7.47919e+06,1906.83};
Point(125) = {315646,7.47919e+06,1950.6};
Point(126) = {316178,7.47919e+06,2006.1};
Point(127) = {315642,7.47978e+06,2391.89};
Point(128) = {314597,7.47926e+06,2477.31};
Point(129) = {314290,7.4797e+06,1432.97};
Point(130) = {315335,7.48022e+06,1347.55};
Point(131) = {314836,7.47979e+06,1712.87};
Point(132) = {315114,7.47989e+06,1756.92};
Point(133) = {314642,7.47972e+06,1675.84};
Point(134) = {314708,7.47965e+06,1866.65};
Point(135) = {315458,7.48004e+06,1764.57};
Point(136) = {315510,7.47997e+06,1941.44};
Point(137) = {315257,7.47972e+06,2186.72};


// LINES DEFINITION 

Line(271) = {1,8};
Line(272) = {9,8};
Line(273) = {2,9};
Line(274) = {2,1};
Line(275) = {10,9};
Line(276) = {3,10};
Line(277) = {3,2};
Line(278) = {11,10};
Line(279) = {4,11};
Line(280) = {4,3};
Line(281) = {12,11};
Line(282) = {5,12};
Line(283) = {5,4};
Line(284) = {13,12};
Line(285) = {6,13};
Line(286) = {6,5};
Line(287) = {14,13};
Line(288) = {7,14};
Line(289) = {7,6};
Line(290) = {15,14};
Line(291) = {15,7};
Line(292) = {8,16};
Line(293) = {17,16};
Line(294) = {9,17};
Line(295) = {18,17};
Line(296) = {10,18};
Line(297) = {19,18};
Line(298) = {11,19};
Line(299) = {20,19};
Line(300) = {12,20};
Line(301) = {21,20};
Line(302) = {13,21};
Line(303) = {22,21};
Line(304) = {14,22};
Line(305) = {23,22};
Line(306) = {23,15};
Line(307) = {16,24};
Line(308) = {25,24};
Line(309) = {17,25};
Line(310) = {26,25};
Line(311) = {18,26};
Line(312) = {27,26};
Line(313) = {19,27};
Line(314) = {28,27};
Line(315) = {20,28};
Line(316) = {29,28};
Line(317) = {21,29};
Line(318) = {30,29};
Line(319) = {22,30};
Line(320) = {31,30};
Line(321) = {23,31};
Line(322) = {32,31};
Line(323) = {32,23};
Line(324) = {24,33};
Line(325) = {34,33};
Line(326) = {25,34};
Line(327) = {35,34};
Line(328) = {26,35};
Line(329) = {36,35};
Line(330) = {27,36};
Line(331) = {37,36};
Line(332) = {28,37};
Line(333) = {38,37};
Line(334) = {29,38};
Line(335) = {39,38};
Line(336) = {30,39};
Line(337) = {40,39};
Line(338) = {31,40};
Line(339) = {41,40};
Line(340) = {41,32};
Line(341) = {33,42};
Line(342) = {34,42};
Line(343) = {43,42};
Line(344) = {35,43};
Line(345) = {44,43};
Line(346) = {36,44};
Line(347) = {45,44};
Line(348) = {37,45};
Line(349) = {46,45};
Line(350) = {38,46};
Line(351) = {47,46};
Line(352) = {39,47};
Line(353) = {48,47};
Line(354) = {40,48};
Line(355) = {49,48};
Line(356) = {49,41};
Line(357) = {42,50};
Line(358) = {43,50};
Line(359) = {50,51};
Line(360) = {44,51};
Line(361) = {51,52};
Line(362) = {45,52};
Line(363) = {53,52};
Line(364) = {46,53};
Line(365) = {54,53};
Line(366) = {47,54};
Line(367) = {55,54};
Line(368) = {48,55};
Line(369) = {56,55};
Line(370) = {56,49};
Line(371) = {52,57};
Line(372) = {53,57};
Line(375) = {59,58};
Line(376) = {55,59};
Line(377) = {60,59};
Line(378) = {60,56};
Line(380) = {58,61};
Line(381) = {61,62};
Line(382) = {59,62};
Line(383) = {62,63};
Line(384) = {63,60};
Line(385) = {64,71};
Line(386) = {72,71};
Line(387) = {65,72};
Line(388) = {65,64};
Line(389) = {73,72};
Line(390) = {66,73};
Line(391) = {66,65};
Line(392) = {74,73};
Line(393) = {67,74};
Line(394) = {67,66};
Line(395) = {75,74};
Line(396) = {68,75};
Line(397) = {68,67};
Line(398) = {76,75};
Line(399) = {69,76};
Line(400) = {69,68};
Line(401) = {77,76};
Line(402) = {70,77};
Line(403) = {70,69};
Line(404) = {78,77};
Line(405) = {78,70};
Line(406) = {71,79};
Line(407) = {80,79};
Line(408) = {72,80};
Line(409) = {81,80};
Line(410) = {73,81};
Line(411) = {82,81};
Line(412) = {74,82};
Line(413) = {83,82};
Line(414) = {75,83};
Line(415) = {84,83};
Line(416) = {76,84};
Line(417) = {85,84};
Line(418) = {77,85};
Line(419) = {86,85};
Line(420) = {86,78};
Line(421) = {79,87};
Line(422) = {88,87};
Line(423) = {80,88};
Line(424) = {89,88};
Line(425) = {81,89};
Line(426) = {90,89};
Line(427) = {82,90};
Line(428) = {91,90};
Line(429) = {83,91};
Line(430) = {92,91};
Line(431) = {84,92};
Line(432) = {93,92};
Line(433) = {85,93};
Line(434) = {94,93};
Line(435) = {86,94};
Line(436) = {95,94};
Line(437) = {95,86};
Line(438) = {87,96};
Line(439) = {97,96};
Line(440) = {88,97};
Line(441) = {98,97};
Line(442) = {89,98};
Line(443) = {99,98};
Line(444) = {90,99};
Line(445) = {100,99};
Line(446) = {91,100};
Line(447) = {101,100};
Line(448) = {92,101};
Line(449) = {102,101};
Line(450) = {93,102};
Line(451) = {103,102};
Line(452) = {94,103};
Line(453) = {104,103};
Line(454) = {104,95};
Line(455) = {96,105};
Line(456) = {97,105};
Line(457) = {106,105};
Line(458) = {98,106};
Line(459) = {107,106};
Line(460) = {99,107};
Line(461) = {108,107};
Line(462) = {100,108};
Line(463) = {109,108};
Line(464) = {101,109};
Line(465) = {110,109};
Line(466) = {102,110};
Line(467) = {111,110};
Line(468) = {103,111};
Line(469) = {112,111};
Line(470) = {112,104};
Line(471) = {105,113};
Line(472) = {106,113};
Line(473) = {113,114};
Line(474) = {107,114};
Line(475) = {114,115};
Line(476) = {108,115};
Line(477) = {116,115};
Line(478) = {109,116};
Line(479) = {117,116};
Line(480) = {110,117};
Line(481) = {118,117};
Line(482) = {111,118};
Line(483) = {119,118};
Line(484) = {119,112};
Line(485) = {115,120};
Line(486) = {116,120};
Line(487) = {121,120};
Line(488) = {117,121};
Line(490) = {118,122};
Line(491) = {123,122};
Line(492) = {123,119};
Line(495) = {124,125};
Line(496) = {122,125};
Line(497) = {125,126};
Line(498) = {126,123};
Line(499) = {1,64};
Line(500) = {2,65};
Line(501) = {8,71};
Line(502) = {3,66};
Line(503) = {4,67};
Line(504) = {5,68};
Line(505) = {6,69};
Line(506) = {7,70};
Line(507) = {15,78};
Line(508) = {16,79};
Line(509) = {23,86};
Line(510) = {24,87};
Line(511) = {32,95};
Line(512) = {33,96};
Line(513) = {41,104};
Line(514) = {42,105};
Line(515) = {49,112};
Line(516) = {50,113};
Line(517) = {51,114};
Line(518) = {52,115};
Line(519) = {56,119};
Line(520) = {57,120};
Line(521) = {60,123};
Line(522) = {61,124};
Line(523) = {62,125};
Line(524) = {63,126};
Line(525) = {9,72};
Line(526) = {10,73};
Line(527) = {11,74};
Line(528) = {12,75};
Line(529) = {13,76};
Line(530) = {14,77};
Line(531) = {17,80};
Line(532) = {18,81};
Line(533) = {19,82};
Line(534) = {20,83};
Line(535) = {21,84};
Line(536) = {22,85};
Line(537) = {25,88};
Line(538) = {26,89};
Line(539) = {27,90};
Line(540) = {28,91};
Line(541) = {29,92};
Line(542) = {30,93};
Line(543) = {31,94};
Line(544) = {34,97};
Line(545) = {35,98};
Line(546) = {36,99};
Line(547) = {37,100};
Line(548) = {38,101};
Line(549) = {39,102};
Line(550) = {40,103};
Line(551) = {43,106};
Line(552) = {44,107};
Line(553) = {45,108};
Line(554) = {46,109};
Line(555) = {47,110};
Line(556) = {48,111};
Line(557) = {53,116};
Line(558) = {54,117};
Line(559) = {55,118};
Line(561) = {59,122};
Line(562) = {58,131};
Line(563) = {131,57};
Line(564) = {54,132};
Line(565) = {132,58};
Line(566) = {57,133};
Line(567) = {133,61};
Line(568) = {122,121};
Line(570) = {120,134};
Line(571) = {134,124};
Line(572) = {121,124};
Line(574) = {58,121};
Line(576) = {132,131};
Line(581) = {135,132};
Line(587) = {133,131};
Line(590) = {136,121};
Line(595) = {121,134};
Line(598) = {133,134};
Line(601) = {132,121};
Line(605) = {131,121};
Line(609) = {131,53};
Line(610) = {132,53};
Line(611) = {135,54};
Line(612) = {135,55};
Line(613) = {135,59};
Line(614) = {135,58};
Line(615) = {136,122};
Line(616) = {118,136};
Line(617) = {136,117};
Line(618) = {132,117};
Line(619) = {131,120};
Line(620) = {127,128};
Line(621) = {128,129};
Line(622) = {129,130};
Line(623) = {130,135};
Line(624) = {135,136};
Line(625) = {136,127};
Line(642) = {134,131};
Line(643) = {136,137};
Line(644) = {137,127};
Line(645) = {137,128};
Line(646) = {134,129};
Line(647) = {128,134};
Line(648) = {129,133};
Line(649) = {133,130};
Line(650) = {131,130};
Line(651) = {128,121};
Line(652) = {137,121};
Line(653) = {136,132};
Line(654) = {132,130};


// FACES DEFINITION 

Line Loop(1) = {-274,273,272,-271};
Surface(1) = {1};
Line Loop(2) = {-277,276,275,-273};
Surface(2) = {2};
Line Loop(3) = {-280,279,278,-276};
Surface(3) = {3};
Line Loop(4) = {-283,282,281,-279};
Surface(4) = {4};
Line Loop(5) = {-286,285,284,-282};
Surface(5) = {5};
Line Loop(6) = {-289,288,287,-285};
Surface(6) = {6};
Line Loop(7) = {-291,290,-288};
Surface(7) = {7};
Line Loop(8) = {294,293,-292,-272};
Surface(8) = {8};
Line Loop(9) = {296,295,-294,-275};
Surface(9) = {9};
Line Loop(10) = {298,297,-296,-278};
Surface(10) = {10};
Line Loop(11) = {300,299,-298,-281};
Surface(11) = {11};
Line Loop(12) = {302,301,-300,-284};
Surface(12) = {12};
Line Loop(13) = {304,303,-302,-287};
Surface(13) = {13};
Line Loop(14) = {-306,305,-304,-290};
Surface(14) = {14};
Line Loop(15) = {309,308,-307,-293};
Surface(15) = {15};
Line Loop(16) = {311,310,-309,-295};
Surface(16) = {16};
Line Loop(17) = {313,312,-311,-297};
Surface(17) = {17};
Line Loop(18) = {315,314,-313,-299};
Surface(18) = {18};
Line Loop(19) = {317,316,-315,-301};
Surface(19) = {19};
Line Loop(20) = {319,318,-317,-303};
Surface(20) = {20};
Line Loop(21) = {321,320,-319,-305};
Surface(21) = {21};
Line Loop(22) = {-323,322,-321};
Surface(22) = {22};
Line Loop(23) = {326,325,-324,-308};
Surface(23) = {23};
Line Loop(24) = {328,327,-326,-310};
Surface(24) = {24};
Line Loop(25) = {330,329,-328,-312};
Surface(25) = {25};
Line Loop(26) = {332,331,-330,-314};
Surface(26) = {26};
Line Loop(27) = {334,333,-332,-316};
Surface(27) = {27};
Line Loop(28) = {336,335,-334,-318};
Surface(28) = {28};
Line Loop(29) = {338,337,-336,-320};
Surface(29) = {29};
Line Loop(30) = {-340,339,-338,-322};
Surface(30) = {30};
Line Loop(31) = {342,-341,-325};
Surface(31) = {31};
Line Loop(32) = {344,343,-342,-327};
Surface(32) = {32};
Line Loop(33) = {346,345,-344,-329};
Surface(33) = {33};
Line Loop(34) = {348,347,-346,-331};
Surface(34) = {34};
Line Loop(35) = {350,349,-348,-333};
Surface(35) = {35};
Line Loop(36) = {352,351,-350,-335};
Surface(36) = {36};
Line Loop(37) = {354,353,-352,-337};
Surface(37) = {37};
Line Loop(38) = {-356,355,-354,-339};
Surface(38) = {38};
Line Loop(39) = {358,-357,-343};
Surface(39) = {39};
Line Loop(40) = {360,-359,-358,-345};
Surface(40) = {40};
Line Loop(41) = {362,-361,-360,-347};
Surface(41) = {41};
Line Loop(42) = {364,363,-362,-349};
Surface(42) = {42};
Line Loop(43) = {366,365,-364,-351};
Surface(43) = {43};
Line Loop(44) = {368,367,-366,-353};
Surface(44) = {44};
Line Loop(45) = {-370,369,-368,-355};
Surface(45) = {45};
Line Loop(46) = {372,-371,-363};
Surface(46) = {46};
Line Loop(49) = {-378,377,-376,-369};
Surface(49) = {49};
Line Loop(51) = {382,-381,-380,-375};
Surface(51) = {51};
Line Loop(52) = {-384,-383,-382,-377};
Surface(52) = {52};
Line Loop(53) = {-388,387,386,-385};
Surface(53) = {53};
Line Loop(54) = {-391,390,389,-387};
Surface(54) = {54};
Line Loop(55) = {-394,393,392,-390};
Surface(55) = {55};
Line Loop(56) = {-397,396,395,-393};
Surface(56) = {56};
Line Loop(57) = {-400,399,398,-396};
Surface(57) = {57};
Line Loop(58) = {-403,402,401,-399};
Surface(58) = {58};
Line Loop(59) = {-405,404,-402};
Surface(59) = {59};
Line Loop(60) = {408,407,-406,-386};
Surface(60) = {60};
Line Loop(61) = {410,409,-408,-389};
Surface(61) = {61};
Line Loop(62) = {412,411,-410,-392};
Surface(62) = {62};
Line Loop(63) = {414,413,-412,-395};
Surface(63) = {63};
Line Loop(64) = {416,415,-414,-398};
Surface(64) = {64};
Line Loop(65) = {418,417,-416,-401};
Surface(65) = {65};
Line Loop(66) = {-420,419,-418,-404};
Surface(66) = {66};
Line Loop(67) = {423,422,-421,-407};
Surface(67) = {67};
Line Loop(68) = {425,424,-423,-409};
Surface(68) = {68};
Line Loop(69) = {427,426,-425,-411};
Surface(69) = {69};
Line Loop(70) = {429,428,-427,-413};
Surface(70) = {70};
Line Loop(71) = {431,430,-429,-415};
Surface(71) = {71};
Line Loop(72) = {433,432,-431,-417};
Surface(72) = {72};
Line Loop(73) = {435,434,-433,-419};
Surface(73) = {73};
Line Loop(74) = {-437,436,-435};
Surface(74) = {74};
Line Loop(75) = {440,439,-438,-422};
Surface(75) = {75};
Line Loop(76) = {442,441,-440,-424};
Surface(76) = {76};
Line Loop(77) = {444,443,-442,-426};
Surface(77) = {77};
Line Loop(78) = {446,445,-444,-428};
Surface(78) = {78};
Line Loop(79) = {448,447,-446,-430};
Surface(79) = {79};
Line Loop(80) = {450,449,-448,-432};
Surface(80) = {80};
Line Loop(81) = {452,451,-450,-434};
Surface(81) = {81};
Line Loop(82) = {-454,453,-452,-436};
Surface(82) = {82};
Line Loop(83) = {456,-455,-439};
Surface(83) = {83};
Line Loop(84) = {458,457,-456,-441};
Surface(84) = {84};
Line Loop(85) = {460,459,-458,-443};
Surface(85) = {85};
Line Loop(86) = {462,461,-460,-445};
Surface(86) = {86};
Line Loop(87) = {464,463,-462,-447};
Surface(87) = {87};
Line Loop(88) = {466,465,-464,-449};
Surface(88) = {88};
Line Loop(89) = {468,467,-466,-451};
Surface(89) = {89};
Line Loop(90) = {-470,469,-468,-453};
Surface(90) = {90};
Line Loop(91) = {472,-471,-457};
Surface(91) = {91};
Line Loop(92) = {474,-473,-472,-459};
Surface(92) = {92};
Line Loop(93) = {476,-475,-474,-461};
Surface(93) = {93};
Line Loop(94) = {478,477,-476,-463};
Surface(94) = {94};
Line Loop(95) = {480,479,-478,-465};
Surface(95) = {95};
Line Loop(96) = {482,481,-480,-467};
Surface(96) = {96};
Line Loop(97) = {-484,483,-482,-469};
Surface(97) = {97};
Line Loop(98) = {486,-485,-477};
Surface(98) = {98};
Line Loop(99) = {488,487,-486,-479};
Surface(99) = {99};
Line Loop(101) = {-492,491,-490,-483};
Surface(101) = {101};
Line Loop(103) = {496,-495,-572,-568};
Surface(103) = {103};
Line Loop(104) = {-498,-497,-496,-491};
Surface(104) = {104};
Line Loop(105) = {-274,500,388,-499};
Surface(105) = {105};
Line Loop(106) = {-271,499,385,-501};
Surface(106) = {106};
Line Loop(107) = {-277,502,391,-500};
Surface(107) = {107};
Line Loop(108) = {-280,503,394,-502};
Surface(108) = {108};
Line Loop(109) = {-283,504,397,-503};
Surface(109) = {109};
Line Loop(110) = {-286,505,400,-504};
Surface(110) = {110};
Line Loop(111) = {-289,506,403,-505};
Surface(111) = {111};
Line Loop(112) = {-291,507,405,-506};
Surface(112) = {112};
Line Loop(113) = {-292,501,406,-508};
Surface(113) = {113};
Line Loop(114) = {-306,509,420,-507};
Surface(114) = {114};
Line Loop(115) = {-307,508,421,-510};
Surface(115) = {115};
Line Loop(116) = {-323,511,437,-509};
Surface(116) = {116};
Line Loop(117) = {-324,510,438,-512};
Surface(117) = {117};
Line Loop(118) = {-340,513,454,-511};
Surface(118) = {118};
Line Loop(119) = {-341,512,455,-514};
Surface(119) = {119};
Line Loop(120) = {-356,515,470,-513};
Surface(120) = {120};
Line Loop(121) = {-357,514,471,-516};
Surface(121) = {121};
Line Loop(122) = {-359,516,473,-517};
Surface(122) = {122};
Line Loop(123) = {-361,517,475,-518};
Surface(123) = {123};
Line Loop(124) = {-370,519,484,-515};
Surface(124) = {124};
Line Loop(125) = {-371,518,485,-520};
Surface(125) = {125};
Line Loop(126) = {-378,521,492,-519};
Surface(126) = {126};
Line Loop(128) = {-381,522,495,-523};
Surface(128) = {128};
Line Loop(129) = {-384,524,498,-521};
Surface(129) = {129};
Line Loop(130) = {-383,523,497,-524};
Surface(130) = {130};
Line Loop(183) = {272,501,-386,-525};
Surface(183) = {183};
Line Loop(184) = {-273,500,387,-525};
Surface(184) = {184};
Line Loop(185) = {275,525,-389,-526};
Surface(185) = {185};
Line Loop(186) = {-276,502,390,-526};
Surface(186) = {186};
Line Loop(187) = {278,526,-392,-527};
Surface(187) = {187};
Line Loop(188) = {-279,503,393,-527};
Surface(188) = {188};
Line Loop(189) = {281,527,-395,-528};
Surface(189) = {189};
Line Loop(190) = {-282,504,396,-528};
Surface(190) = {190};
Line Loop(191) = {284,528,-398,-529};
Surface(191) = {191};
Line Loop(192) = {-285,505,399,-529};
Surface(192) = {192};
Line Loop(193) = {287,529,-401,-530};
Surface(193) = {193};
Line Loop(194) = {288,530,-402,-506};
Surface(194) = {194};
Line Loop(195) = {290,530,-404,-507};
Surface(195) = {195};
Line Loop(196) = {294,531,-408,-525};
Surface(196) = {196};
Line Loop(197) = {293,508,-407,-531};
Surface(197) = {197};
Line Loop(198) = {296,532,-410,-526};
Surface(198) = {198};
Line Loop(199) = {295,531,-409,-532};
Surface(199) = {199};
Line Loop(200) = {298,533,-412,-527};
Surface(200) = {200};
Line Loop(201) = {297,532,-411,-533};
Surface(201) = {201};
Line Loop(202) = {300,534,-414,-528};
Surface(202) = {202};
Line Loop(203) = {299,533,-413,-534};
Surface(203) = {203};
Line Loop(204) = {302,535,-416,-529};
Surface(204) = {204};
Line Loop(205) = {301,534,-415,-535};
Surface(205) = {205};
Line Loop(206) = {304,536,-418,-530};
Surface(206) = {206};
Line Loop(207) = {303,535,-417,-536};
Surface(207) = {207};
Line Loop(208) = {305,536,-419,-509};
Surface(208) = {208};
Line Loop(209) = {309,537,-423,-531};
Surface(209) = {209};
Line Loop(210) = {308,510,-422,-537};
Surface(210) = {210};
Line Loop(211) = {311,538,-425,-532};
Surface(211) = {211};
Line Loop(212) = {310,537,-424,-538};
Surface(212) = {212};
Line Loop(213) = {313,539,-427,-533};
Surface(213) = {213};
Line Loop(214) = {312,538,-426,-539};
Surface(214) = {214};
Line Loop(215) = {315,540,-429,-534};
Surface(215) = {215};
Line Loop(216) = {314,539,-428,-540};
Surface(216) = {216};
Line Loop(217) = {317,541,-431,-535};
Surface(217) = {217};
Line Loop(218) = {316,540,-430,-541};
Surface(218) = {218};
Line Loop(219) = {319,542,-433,-536};
Surface(219) = {219};
Line Loop(220) = {318,541,-432,-542};
Surface(220) = {220};
Line Loop(221) = {321,543,-435,-509};
Surface(221) = {221};
Line Loop(222) = {320,542,-434,-543};
Surface(222) = {222};
Line Loop(223) = {322,543,-436,-511};
Surface(223) = {223};
Line Loop(224) = {326,544,-440,-537};
Surface(224) = {224};
Line Loop(225) = {325,512,-439,-544};
Surface(225) = {225};
Line Loop(226) = {328,545,-442,-538};
Surface(226) = {226};
Line Loop(227) = {327,544,-441,-545};
Surface(227) = {227};
Line Loop(228) = {330,546,-444,-539};
Surface(228) = {228};
Line Loop(229) = {329,545,-443,-546};
Surface(229) = {229};
Line Loop(230) = {332,547,-446,-540};
Surface(230) = {230};
Line Loop(231) = {331,546,-445,-547};
Surface(231) = {231};
Line Loop(232) = {334,548,-448,-541};
Surface(232) = {232};
Line Loop(233) = {333,547,-447,-548};
Surface(233) = {233};
Line Loop(234) = {336,549,-450,-542};
Surface(234) = {234};
Line Loop(235) = {335,548,-449,-549};
Surface(235) = {235};
Line Loop(236) = {338,550,-452,-543};
Surface(236) = {236};
Line Loop(237) = {337,549,-451,-550};
Surface(237) = {237};
Line Loop(238) = {339,550,-453,-513};
Surface(238) = {238};
Line Loop(239) = {342,514,-456,-544};
Surface(239) = {239};
Line Loop(240) = {344,551,-458,-545};
Surface(240) = {240};
Line Loop(241) = {343,514,-457,-551};
Surface(241) = {241};
Line Loop(242) = {346,552,-460,-546};
Surface(242) = {242};
Line Loop(243) = {345,551,-459,-552};
Surface(243) = {243};
Line Loop(244) = {348,553,-462,-547};
Surface(244) = {244};
Line Loop(245) = {347,552,-461,-553};
Surface(245) = {245};
Line Loop(246) = {350,554,-464,-548};
Surface(246) = {246};
Line Loop(247) = {349,553,-463,-554};
Surface(247) = {247};
Line Loop(248) = {352,555,-466,-549};
Surface(248) = {248};
Line Loop(249) = {351,554,-465,-555};
Surface(249) = {249};
Line Loop(250) = {354,556,-468,-550};
Surface(250) = {250};
Line Loop(251) = {353,555,-467,-556};
Surface(251) = {251};
Line Loop(252) = {355,556,-469,-515};
Surface(252) = {252};
Line Loop(253) = {358,516,-472,-551};
Surface(253) = {253};
Line Loop(254) = {360,517,-474,-552};
Surface(254) = {254};
Line Loop(255) = {362,518,-476,-553};
Surface(255) = {255};
Line Loop(256) = {364,557,-478,-554};
Surface(256) = {256};
Line Loop(257) = {363,518,-477,-557};
Surface(257) = {257};
Line Loop(258) = {366,558,-480,-555};
Surface(258) = {258};
Line Loop(259) = {365,557,-479,-558};
Surface(259) = {259};
Line Loop(260) = {368,559,-482,-556};
Surface(260) = {260};
Line Loop(261) = {367,558,-481,-559};
Surface(261) = {261};
Line Loop(262) = {369,559,-483,-519};
Surface(262) = {262};
Line Loop(263) = {372,520,-486,-557};
Surface(263) = {263};
Line Loop(266) = {376,561,-490,-559};
Surface(266) = {266};
Line Loop(267) = {375,574,-568,-561};
Surface(267) = {267};
Line Loop(268) = {377,561,-491,-521};
Surface(268) = {268};
Line Loop(269) = {380,522,-572,-574};
Surface(269) = {269};
Line Loop(270) = {382,523,-496,-561};
Surface(270) = {270};
Line Loop(577) = {576,-562,-565};
Surface(577) = {577};
Line Loop(578) = {563,-372,-609};
Surface(578) = {578};
Line Loop(579) = {576,609,-610};
Surface(579) = {579};
Line Loop(580) = {610,-365,564};
Surface(580) = {580};
Line Loop(582) = {581,-564,-611};
Surface(582) = {582};
Line Loop(583) = {611,-367,-612};
Surface(583) = {583};
Line Loop(584) = {612,376,-613};
Surface(584) = {584};
Line Loop(585) = {613,375,-614};
Surface(585) = {585};
Line Loop(586) = {614,-565,-581};
Surface(586) = {586};
Line Loop(588) = {-587,-566,-563};
Surface(588) = {588};
Line Loop(589) = {587,-562,380,-567};
Surface(589) = {589};
Line Loop(591) = {-616,490,-615};
Surface(591) = {591};
Line Loop(592) = {615,568,-590};
Surface(592) = {592};
Line Loop(593) = {590,-488,-617};
Surface(593) = {593};
Line Loop(594) = {617,-481,616};
Surface(594) = {594};
Line Loop(596) = {-570,-487,595};
Surface(596) = {596};
Line Loop(597) = {-595,572,-571};
Surface(597) = {597};
Line Loop(599) = {-598,-566,520,570};
Surface(599) = {599};
Line Loop(600) = {598,571,-522,-567};
Surface(600) = {600};
Line Loop(602) = {565,574,-601};
Surface(602) = {602};
Line Loop(603) = {601,-488,-618};
Surface(603) = {603};
Line Loop(604) = {618,-558,564};
Surface(604) = {604};
Line Loop(606) = {563,520,-619};
Surface(606) = {606};
Line Loop(607) = {619,-487,-605};
Surface(607) = {607};
Line Loop(608) = {605,-574,562};
Surface(608) = {608};
Line Loop(626) = {-642,-598,587};
Surface(626) = {626};
Line Loop(628) = {595,642,605};
Surface(628) = {628};
Line Loop(636) = {601,-605,-576};
Surface(636) = {636};
Line Loop(637) = {590,-601,-653};
Surface(637) = {637};
Line Loop(641) = {653,-581,624};
Surface(641) = {641};

Physical Surface(18) = {577,578,579,580,582,583,584,585,586,588,589,591,592,593,594,596,597,599,600,602,603,604,606,607,608};

Physical Surface(40) = {626,628,636,637,641};

Physical Surface(1) = {1,2,3,4,5,6,7,8,9,10,11,12,13,14,15,16,17,18,19,20,21,22,23,24,25,26,27,28,29,30,31,32,33,34,35,36,37,38,39,40,41,42,43,44,45,46,49,51,52,53,54,55,56,57,58,59,60,61,62,63,64,65,66,67,68,69,70,71,72,73,74,75,76,77,78,79,80,81,82,83,84,85,86,87,88,89,90,91,92,93,94,95,96,97,98,99,101,103,104,105,106,107,108,109,110,111,112,113,114,115,116,117,118,119,120,121,122,123,124,125,126,128,129,130,183,184,185,186,187,188,189,190,191,192,193,194,195,196,197,198,199,200,201,202,203,204,205,206,207,208,209,210,211,212,213,214,215,216,217,218,219,220,221,222,223,224,225,226,227,228,229,230,231,232,233,234,235,236,237,238,239,240,241,242,243,244,245,246,247,248,249,250,251,252,253,254,255,256,257,258,259,260,261,262,263,266,267,268,269,270};


// VOLUMES DEFINITION 

Surface Loop(131) = {1,184,105,106,183,53};
Volume(131) = {131};
Surface Loop(132) = {2,186,107,184,185,54};
Volume(132) = {132};
Surface Loop(133) = {3,188,108,186,187,55};
Volume(133) = {133};
Surface Loop(134) = {4,190,109,188,189,56};
Volume(134) = {134};
Surface Loop(135) = {5,192,110,190,191,57};
Volume(135) = {135};
Surface Loop(136) = {6,194,111,192,193,58};
Volume(136) = {136};
Surface Loop(137) = {7,112,194,195,59};
Volume(137) = {137};
Surface Loop(138) = {8,183,113,197,196,60};
Volume(138) = {138};
Surface Loop(139) = {9,185,196,199,198,61};
Volume(139) = {139};
Surface Loop(140) = {10,187,198,201,200,62};
Volume(140) = {140};
Surface Loop(141) = {11,189,200,203,202,63};
Volume(141) = {141};
Surface Loop(142) = {12,191,202,205,204,64};
Volume(142) = {142};
Surface Loop(143) = {13,193,204,207,206,65};
Volume(143) = {143};
Surface Loop(144) = {14,195,206,208,114,66};
Volume(144) = {144};
Surface Loop(145) = {15,197,115,210,209,67};
Volume(145) = {145};
Surface Loop(146) = {16,199,209,212,211,68};
Volume(146) = {146};
Surface Loop(147) = {17,201,211,214,213,69};
Volume(147) = {147};
Surface Loop(148) = {18,203,213,216,215,70};
Volume(148) = {148};
Surface Loop(149) = {19,205,215,218,217,71};
Volume(149) = {149};
Surface Loop(150) = {20,207,217,220,219,72};
Volume(150) = {150};
Surface Loop(151) = {21,208,219,222,221,73};
Volume(151) = {151};
Surface Loop(152) = {22,116,221,223,74};
Volume(152) = {152};
Surface Loop(153) = {23,210,117,225,224,75};
Volume(153) = {153};
Surface Loop(154) = {24,212,224,227,226,76};
Volume(154) = {154};
Surface Loop(155) = {25,214,226,229,228,77};
Volume(155) = {155};
Surface Loop(156) = {26,216,228,231,230,78};
Volume(156) = {156};
Surface Loop(157) = {27,218,230,233,232,79};
Volume(157) = {157};
Surface Loop(158) = {28,220,232,235,234,80};
Volume(158) = {158};
Surface Loop(159) = {29,222,234,237,236,81};
Volume(159) = {159};
Surface Loop(160) = {30,223,236,238,118,82};
Volume(160) = {160};
Surface Loop(161) = {31,225,119,239,83};
Volume(161) = {161};
Surface Loop(162) = {32,227,239,241,240,84};
Volume(162) = {162};
Surface Loop(163) = {33,229,240,243,242,85};
Volume(163) = {163};
Surface Loop(164) = {34,231,242,245,244,86};
Volume(164) = {164};
Surface Loop(165) = {35,233,244,247,246,87};
Volume(165) = {165};
Surface Loop(166) = {36,235,246,249,248,88};
Volume(166) = {166};
Surface Loop(167) = {37,237,248,251,250,89};
Volume(167) = {167};
Surface Loop(168) = {38,238,250,252,120,90};
Volume(168) = {168};
Surface Loop(169) = {39,241,121,253,91};
Volume(169) = {169};
Surface Loop(170) = {40,243,253,122,254,92};
Volume(170) = {170};
Surface Loop(171) = {41,245,254,123,255,93};
Volume(171) = {171};
Surface Loop(172) = {42,247,255,257,256,94};
Volume(172) = {172};
Surface Loop(173) = {43,249,256,259,258,95};
Volume(173) = {173};
Surface Loop(174) = {44,251,258,261,260,96};
Volume(174) = {174};
Surface Loop(175) = {45,252,260,262,124,97};
Volume(175) = {175};
Surface Loop(176) = {46,257,125,263,98};
Volume(176) = {176};
Surface Loop(177) = {577,578,579,580,259,263,606,607,608,602,603,604,99};
Volume(177) = {177};
Surface{636} In Volume{177};
Surface Loop(178) = {582,583,584,585,586,261,602,603,604,267,266,591,592,593,594};
Volume(178) = {178};
Surface{637,641} In Volume{178};
Surface Loop(179) = {49,262,266,268,126,101};
Volume(179) = {179};
Surface Loop(180) = {588,589,606,607,608,599,600,269,596,597};
Volume(180) = {180};
Surface{626,628} In Volume{180};
Surface Loop(181) = {51,267,269,128,270,103};
Volume(181) = {181};
Surface Loop(182) = {52,268,270,130,129,104};
Volume(182) = {182};

Physical Volume(18) = {177,178,180};

Physical Volume(1) = {131,132,133,134,135,136,137,138,139,140,141,142,143,144,145,146,147,148,149,150,151,152,153,154,155,156,157,158,159,160,161,162,163,164,165,166,167,168,169,170,171,172,173,174,175,176,179,181,182};

Transfinite Volume {Physical Volume(1)};

Transfinite Curve {:} = 2;
Transfinite Surface {Physical Surface(1)};
Recombine Surface {Physical Surface(1)};
