ht=250;
Point(17)= {0., 2.25, 0., ht};
Point(18)= {0.05, 2.25, 0., ht};
Point(19)= {0.95, 2.25, 0., ht};
Point(20)= {1., 2.25, 0., ht};
Point(21)= {0., 2.195, 0., ht};
Point(22)= {0.05, 2.195, 0., ht};
Point(23)= {0.95, 2.195, 0., ht};
Point(24)= {1., 2.195, 0., ht};
Point(25)= {0., 0.055, 0., ht};
Point(26)= {0.05, 0.055, 0., ht};
Point(27)= {0.95, 0.055, 0., ht};
Point(28)= {1., 0.055, 0., ht};
Point(29)= {0., 0., 0., ht};
Point(30)= {0.05, 0., 0., ht};
Point(31)= {0.95, 0., 0., ht};
Point(32)= {1., 0., 0., ht};
Point(33)= {0., 2.25, 0.05, ht};
Point(34)= {0.05, 2.25, 0.05, ht};
Point(35)= {0.95, 2.25, 0.05, ht};
Point(36)= {1., 2.25, 0.05, ht};
Point(37)= {0., 2.195, 0.05, ht};
Point(38)= {0.05, 2.195, 0.05, ht};
Point(39)= {0.95, 2.195, 0.05, ht};
Point(40)= {1., 2.195, 0.05, ht};
Point(41)= {0., 0.055, 0.05, ht};
Point(42)= {0.05, 0.055, 0.05, ht};
Point(43)= {0.95, 0.055, 0.05, ht};
Point(44)= {1., 0.055, 0.05, ht};
Point(45)= {0., 0., 0.05, ht};
Point(46)= {0.05, 0., 0.05, ht};
Point(47)= {0.95, 0., 0.05, ht};
Point(48)= {1., 0., 0.05, ht};
Point(49)= {0., 2.25, 0.333333, ht};
Point(50)= {0.05, 2.25, 0.333333, ht};
Point(51)= {0.95, 2.25, 0.333333, ht};
Point(52)= {1., 2.25, 0.333333, ht};
Point(53)= {0., 2.195, 0.333333, ht};
Point(54)= {0.05, 2.195, 0.333333, ht};
Point(55)= {0.95, 2.195, 0.333333, ht};
Point(56)= {1., 2.195, 0.333333, ht};
Point(57)= {0., 0.055, 0.333333, ht};
Point(58)= {0.05, 0.055, 0.333333, ht};
Point(59)= {0.95, 0.055, 0.333333, ht};
Point(60)= {1., 0.055, 0.333333, ht};
Point(61)= {0., 0., 0.333333, ht};
Point(62)= {0.05, 0., 0.333333, ht};
Point(63)= {0.95, 0., 0.333333, ht};
Point(64)= {1., 0., 0.333333, ht};
Point(65)= {0., 2.25, 0.5, ht};
Point(66)= {0.05, 2.25, 0.5, ht};
Point(67)= {0.95, 2.25, 0.5, ht};
Point(68)= {1., 2.25, 0.5, ht};
Point(69)= {0., 2.195, 0.5, ht};
Point(70)= {0.05, 2.195, 0.5, ht};
Point(71)= {0.95, 2.195, 0.5, ht};
Point(72)= {1., 2.195, 0.5, ht};
Point(73)= {0., 0.055, 0.5, ht};
Point(74)= {0.05, 0.055, 0.5, ht};
Point(75)= {0.95, 0.055, 0.5, ht};
Point(76)= {1., 0.055, 0.5, ht};
Point(77)= {0., 0., 0.5, ht};
Point(78)= {0.05, 0., 0.5, ht};
Point(79)= {0.95, 0., 0.5, ht};
Point(80)= {1., 0., 0.5, ht};
Point(81)= {0., 2.25, 0.666667, ht};
Point(82)= {0.05, 2.25, 0.666667, ht};
Point(83)= {0.95, 2.25, 0.666667, ht};
Point(84)= {1., 2.25, 0.666667, ht};
Point(85)= {0., 2.195, 0.666667, ht};
Point(86)= {0.05, 2.195, 0.666667, ht};
Point(87)= {0.95, 2.195, 0.666667, ht};
Point(88)= {1., 2.195, 0.666667, ht};
Point(89)= {0., 0.055, 0.666667, ht};
Point(90)= {0.05, 0.055, 0.666667, ht};
Point(91)= {0.95, 0.055, 0.666667, ht};
Point(92)= {1., 0.055, 0.666667, ht};
Point(93)= {0., 0., 0.666667, ht};
Point(94)= {0.05, 0., 0.666667, ht};
Point(95)= {0.95, 0., 0.666667, ht};
Point(96)= {1., 0., 0.666667, ht};
Point(97)= {0., 2.25, 0.95, ht};
Point(98)= {0.05, 2.25, 0.95, ht};
Point(99)= {0.95, 2.25, 0.95, ht};
Point(100)= {1., 2.25, 0.95, ht};
Point(101)= {0., 2.195, 0.95, ht};
Point(102)= {0.05, 2.195, 0.95, ht};
Point(103)= {0.95, 2.195, 0.95, ht};
Point(104)= {1., 2.195, 0.95, ht};
Point(105)= {0., 0.055, 0.95, ht};
Point(106)= {0.05, 0.055, 0.95, ht};
Point(107)= {0.95, 0.055, 0.95, ht};
Point(108)= {1., 0.055, 0.95, ht};
Point(109)= {0., 0., 0.95, ht};
Point(110)= {0.05, 0., 0.95, ht};
Point(111)= {0.95, 0., 0.95, ht};
Point(112)= {1., 0., 0.95, ht};
Point(113)= {0., 2.25, 1., ht};
Point(114)= {0.05, 2.25, 1., ht};
Point(115)= {0.95, 2.25, 1., ht};
Point(116)= {1., 2.25, 1., ht};
Point(117)= {0., 2.195, 1., ht};
Point(118)= {0.05, 2.195, 1., ht};
Point(119)= {0.95, 2.195, 1., ht};
Point(120)= {1., 2.195, 1., ht};
Point(121)= {0., 0.055, 1., ht};
Point(122)= {0.05, 0.055, 1., ht};
Point(123)= {0.95, 0.055, 1., ht};
Point(124)= {1., 0.055, 1., ht};
Point(125)= {0., 0., 1., ht};
Point(126)= {0.05, 0., 1., ht};
Point(127)= {0.95, 0., 1., ht};
Point(128)= {1., 0., 1., ht};
Line(1)= {17, 18};
Line(2)= {18, 22};
Line(3)= {22, 21};
Line(4)= {21, 17};
Line(5)= {18, 19};
Line(6)= {19, 23};
Line(7)= {23, 22};
Line(8)= {19, 20};
Line(9)= {20, 24};
Line(10)= {24, 23};
Line(11)= {22, 26};
Line(12)= {26, 25};
Line(13)= {25, 21};
Line(14)= {23, 27};
Line(15)= {27, 26};
Line(16)= {24, 28};
Line(17)= {28, 27};
Line(18)= {26, 30};
Line(19)= {30, 29};
Line(20)= {29, 25};
Line(21)= {27, 31};
Line(22)= {31, 30};
Line(23)= {28, 32};
Line(24)= {32, 31};
Line(25)= {33, 34};
Line(26)= {34, 38};
Line(27)= {38, 37};
Line(28)= {37, 33};
Line(29)= {34, 35};
Line(30)= {35, 39};
Line(31)= {39, 38};
Line(32)= {35, 36};
Line(33)= {36, 40};
Line(34)= {40, 39};
Line(35)= {38, 42};
Line(36)= {42, 41};
Line(37)= {41, 37};
Line(38)= {39, 43};
Line(39)= {43, 42};
Line(40)= {40, 44};
Line(41)= {44, 43};
Line(42)= {42, 46};
Line(43)= {46, 45};
Line(44)= {45, 41};
Line(45)= {43, 47};
Line(46)= {47, 46};
Line(47)= {44, 48};
Line(48)= {48, 47};
Line(49)= {49, 50};
Line(50)= {50, 54};
Line(51)= {54, 53};
Line(52)= {53, 49};
Line(53)= {50, 51};
Line(54)= {51, 55};
Line(55)= {55, 54};
Line(56)= {51, 52};
Line(57)= {52, 56};
Line(58)= {56, 55};
Line(59)= {54, 58};
Line(60)= {58, 57};
Line(61)= {57, 53};
Line(62)= {55, 59};
Line(63)= {59, 58};
Line(64)= {56, 60};
Line(65)= {60, 59};
Line(66)= {58, 62};
Line(67)= {62, 61};
Line(68)= {61, 57};
Line(69)= {59, 63};
Line(70)= {63, 62};
Line(71)= {60, 64};
Line(72)= {64, 63};
Line(73)= {65, 66};
Line(74)= {66, 70};
Line(75)= {70, 69};
Line(76)= {69, 65};
Line(77)= {66, 67};
Line(78)= {67, 71};
Line(79)= {71, 70};
Line(80)= {67, 68};
Line(81)= {68, 72};
Line(82)= {72, 71};
Line(83)= {70, 74};
Line(84)= {74, 73};
Line(85)= {73, 69};
Line(86)= {71, 75};
Line(87)= {75, 74};
Line(88)= {72, 76};
Line(89)= {76, 75};
Line(90)= {74, 78};
Line(91)= {78, 77};
Line(92)= {77, 73};
Line(93)= {75, 79};
Line(94)= {79, 78};
Line(95)= {76, 80};
Line(96)= {80, 79};
Line(97)= {81, 82};
Line(98)= {82, 86};
Line(99)= {86, 85};
Line(100)= {85, 81};
Line(101)= {82, 83};
Line(102)= {83, 87};
Line(103)= {87, 86};
Line(104)= {83, 84};
Line(105)= {84, 88};
Line(106)= {88, 87};
Line(107)= {86, 90};
Line(108)= {90, 89};
Line(109)= {89, 85};
Line(110)= {87, 91};
Line(111)= {91, 90};
Line(112)= {88, 92};
Line(113)= {92, 91};
Line(114)= {90, 94};
Line(115)= {94, 93};
Line(116)= {93, 89};
Line(117)= {91, 95};
Line(118)= {95, 94};
Line(119)= {92, 96};
Line(120)= {96, 95};
Line(121)= {97, 98};
Line(122)= {98, 102};
Line(123)= {102, 101};
Line(124)= {101, 97};
Line(125)= {98, 99};
Line(126)= {99, 103};
Line(127)= {103, 102};
Line(128)= {99, 100};
Line(129)= {100, 104};
Line(130)= {104, 103};
Line(131)= {102, 106};
Line(132)= {106, 105};
Line(133)= {105, 101};
Line(134)= {103, 107};
Line(135)= {107, 106};
Line(136)= {104, 108};
Line(137)= {108, 107};
Line(138)= {106, 110};
Line(139)= {110, 109};
Line(140)= {109, 105};
Line(141)= {107, 111};
Line(142)= {111, 110};
Line(143)= {108, 112};
Line(144)= {112, 111};
Line(145)= {113, 114};
Line(146)= {114, 118};
Line(147)= {118, 117};
Line(148)= {117, 113};
Line(149)= {114, 115};
Line(150)= {115, 119};
Line(151)= {119, 118};
Line(152)= {115, 116};
Line(153)= {116, 120};
Line(154)= {120, 119};
Line(155)= {118, 122};
Line(156)= {122, 121};
Line(157)= {121, 117};
Line(158)= {119, 123};
Line(159)= {123, 122};
Line(160)= {120, 124};
Line(161)= {124, 123};
Line(162)= {122, 126};
Line(163)= {126, 125};
Line(164)= {125, 121};
Line(165)= {123, 127};
Line(166)= {127, 126};
Line(167)= {124, 128};
Line(168)= {128, 127};
Line Loop(1)= {1, 2,3,4};
Surface(1)= {1};
Line Loop(2)= {5, 6,7,-2};
Surface(2)= {2};
Line Loop(3)= {8, 9,10,-6};
Surface(3)= {3};
Line Loop(4)= {-3, 11,12,13};
Surface(4)= {4};
Line Loop(5)= {-7, 14,15,-11};
Surface(5)= {5};
Line Loop(6)= {-10, 16,17,-14};
Surface(6)= {6};
Line Loop(7)= {-12, 18,19,20};
Surface(7)= {7};
Line Loop(8)= {-15, 21,22,-18};
Surface(8)= {8};
Line Loop(9)= {-17, 23,24,-21};
Surface(9)= {9};
Line Loop(10)= {25, 26,27,28};
Surface(10)= {10};
Line Loop(11)= {29, 30,31,-26};
Surface(11)= {11};
Line Loop(12)= {32, 33,34,-30};
Surface(12)= {12};
Line Loop(13)= {-27, 35,36,37};
Surface(13)= {13};
Line Loop(14)= {-31, 38,39,-35};
Surface(14)= {14};
Line Loop(15)= {-34, 40,41,-38};
Surface(15)= {15};
Line Loop(16)= {-36, 42,43,44};
Surface(16)= {16};
Line Loop(17)= {-39, 45,46,-42};
Surface(17)= {17};
Line Loop(18)= {-41, 47,48,-45};
Surface(18)= {18};
Line Loop(19)= {49, 50,51,52};
Surface(19)= {19};
Line Loop(20)= {53, 54,55,-50};
Surface(20)= {20};
Line Loop(21)= {56, 57,58,-54};
Surface(21)= {21};
Line Loop(22)= {-51, 59,60,61};
Surface(22)= {22};
Line Loop(23)= {-55, 62,63,-59};
Surface(23)= {23};
Line Loop(24)= {-58, 64,65,-62};
Surface(24)= {24};
Line Loop(25)= {-60, 66,67,68};
Surface(25)= {25};
Line Loop(26)= {-63, 69,70,-66};
Surface(26)= {26};
Line Loop(27)= {-65, 71,72,-69};
Surface(27)= {27};
Line Loop(28)= {73, 74,75,76};
Surface(28)= {28};
Line Loop(29)= {77, 78,79,-74};
Surface(29)= {29};
Line Loop(30)= {80, 81,82,-78};
Surface(30)= {30};
Line Loop(31)= {-75, 83,84,85};
Surface(31)= {31};
Line Loop(32)= {-79, 86,87,-83};
Surface(32)= {32};
Line Loop(33)= {-82, 88,89,-86};
Surface(33)= {33};
Line Loop(34)= {-84, 90,91,92};
Surface(34)= {34};
Line Loop(35)= {-87, 93,94,-90};
Surface(35)= {35};
Line Loop(36)= {-89, 95,96,-93};
Surface(36)= {36};
Line Loop(37)= {97, 98,99,100};
Surface(37)= {37};
Line Loop(38)= {101, 102,103,-98};
Surface(38)= {38};
Line Loop(39)= {104, 105,106,-102};
Surface(39)= {39};
Line Loop(40)= {-99, 107,108,109};
Surface(40)= {40};
Line Loop(41)= {-103, 110,111,-107};
Surface(41)= {41};
Line Loop(42)= {-106, 112,113,-110};
Surface(42)= {42};
Line Loop(43)= {-108, 114,115,116};
Surface(43)= {43};
Line Loop(44)= {-111, 117,118,-114};
Surface(44)= {44};
Line Loop(45)= {-113, 119,120,-117};
Surface(45)= {45};
Line Loop(46)= {121, 122,123,124};
Surface(46)= {46};
Line Loop(47)= {125, 126,127,-122};
Surface(47)= {47};
Line Loop(48)= {128, 129,130,-126};
Surface(48)= {48};
Line Loop(49)= {-123, 131,132,133};
Surface(49)= {49};
Line Loop(50)= {-127, 134,135,-131};
Surface(50)= {50};
Line Loop(51)= {-130, 136,137,-134};
Surface(51)= {51};
Line Loop(52)= {-132, 138,139,140};
Surface(52)= {52};
Line Loop(53)= {-135, 141,142,-138};
Surface(53)= {53};
Line Loop(54)= {-137, 143,144,-141};
Surface(54)= {54};
Line Loop(55)= {145, 146,147,148};
Surface(55)= {55};
Line Loop(56)= {149, 150,151,-146};
Surface(56)= {56};
Line Loop(57)= {152, 153,154,-150};
Surface(57)= {57};
Line Loop(58)= {-147, 155,156,157};
Surface(58)= {58};
Line Loop(59)= {-151, 158,159,-155};
Surface(59)= {59};
Line Loop(60)= {-154, 160,161,-158};
Surface(60)= {60};
Line Loop(61)= {-156, 162,163,164};
Surface(61)= {61};
Line Loop(62)= {-159, 165,166,-162};
Surface(62)= {62};
Line Loop(63)= {-161, 167,168,-165};
Surface(63)= {63};
Line(169)= {18, 34};
Line(170)= {33, 17};
Line(171)= {22, 38};
Line(172)= {21, 37};
Line(173)= {19, 35};
Line(174)= {23, 39};
Line(175)= {20, 36};
Line(176)= {24, 40};
Line(177)= {26, 42};
Line(178)= {25, 41};
Line(179)= {27, 43};
Line(180)= {28, 44};
Line(181)= {30, 46};
Line(182)= {29, 45};
Line(183)= {31, 47};
Line(184)= {32, 48};
Line(185)= {34, 50};
Line(186)= {49, 33};
Line(187)= {38, 54};
Line(188)= {37, 53};
Line(189)= {35, 51};
Line(190)= {39, 55};
Line(191)= {36, 52};
Line(192)= {40, 56};
Line(193)= {42, 58};
Line(194)= {41, 57};
Line(195)= {43, 59};
Line(196)= {44, 60};
Line(197)= {46, 62};
Line(198)= {45, 61};
Line(199)= {47, 63};
Line(200)= {48, 64};
Line(201)= {50, 66};
Line(202)= {65, 49};
Line(203)= {54, 70};
Line(204)= {53, 69};
Line(205)= {51, 67};
Line(206)= {55, 71};
Line(207)= {52, 68};
Line(208)= {56, 72};
Line(209)= {58, 74};
Line(210)= {57, 73};
Line(211)= {59, 75};
Line(212)= {60, 76};
Line(213)= {62, 78};
Line(214)= {61, 77};
Line(215)= {63, 79};
Line(216)= {64, 80};
Line(217)= {66, 82};
Line(218)= {81, 65};
Line(219)= {70, 86};
Line(220)= {69, 85};
Line(221)= {67, 83};
Line(222)= {71, 87};
Line(223)= {68, 84};
Line(224)= {72, 88};
Line(225)= {74, 90};
Line(226)= {73, 89};
Line(227)= {75, 91};
Line(228)= {76, 92};
Line(229)= {78, 94};
Line(230)= {77, 93};
Line(231)= {79, 95};
Line(232)= {80, 96};
Line(233)= {82, 98};
Line(234)= {97, 81};
Line(235)= {86, 102};
Line(236)= {85, 101};
Line(237)= {83, 99};
Line(238)= {87, 103};
Line(239)= {84, 100};
Line(240)= {88, 104};
Line(241)= {90, 106};
Line(242)= {89, 105};
Line(243)= {91, 107};
Line(244)= {92, 108};
Line(245)= {94, 110};
Line(246)= {93, 109};
Line(247)= {95, 111};
Line(248)= {96, 112};
Line(249)= {98, 114};
Line(250)= {113, 97};
Line(251)= {102, 118};
Line(252)= {101, 117};
Line(253)= {99, 115};
Line(254)= {103, 119};
Line(255)= {100, 116};
Line(256)= {104, 120};
Line(257)= {106, 122};
Line(258)= {105, 121};
Line(259)= {107, 123};
Line(260)= {108, 124};
Line(261)= {110, 126};
Line(262)= {109, 125};
Line(263)= {111, 127};
Line(264)= {112, 128};
Line Loop(64)= {1, 169,-25,170};
Surface(64)= {64};
Line Loop(65)= {2, 171,-26,-169};
Surface(65)= {65};
Line Loop(66)= {3, 172,-27,-171};
Surface(66)= {66};
Line Loop(67)= {4, -170,-28,-172};
Surface(67)= {67};
Line Loop(68)= {5, 173,-29,-169};
Surface(68)= {68};
Line Loop(69)= {6, 174,-30,-173};
Surface(69)= {69};
Line Loop(70)= {7, 171,-31,-174};
Surface(70)= {70};
Line Loop(71)= {8, 175,-32,-173};
Surface(71)= {71};
Line Loop(72)= {9, 176,-33,-175};
Surface(72)= {72};
Line Loop(73)= {10, 174,-34,-176};
Surface(73)= {73};
Line Loop(74)= {11, 177,-35,-171};
Surface(74)= {74};
Line Loop(75)= {12, 178,-36,-177};
Surface(75)= {75};
Line Loop(76)= {13, 172,-37,-178};
Surface(76)= {76};
Line Loop(77)= {14, 179,-38,-174};
Surface(77)= {77};
Line Loop(78)= {15, 177,-39,-179};
Surface(78)= {78};
Line Loop(79)= {16, 180,-40,-176};
Surface(79)= {79};
Line Loop(80)= {17, 179,-41,-180};
Surface(80)= {80};
Line Loop(81)= {18, 181,-42,-177};
Surface(81)= {81};
Line Loop(82)= {19, 182,-43,-181};
Surface(82)= {82};
Line Loop(83)= {20, 178,-44,-182};
Surface(83)= {83};
Line Loop(84)= {21, 183,-45,-179};
Surface(84)= {84};
Line Loop(85)= {22, 181,-46,-183};
Surface(85)= {85};
Line Loop(86)= {23, 184,-47,-180};
Surface(86)= {86};
Line Loop(87)= {24, 183,-48,-184};
Surface(87)= {87};
Line Loop(88)= {25, 185,-49,186};
Surface(88)= {88};
Line Loop(89)= {26, 187,-50,-185};
Surface(89)= {89};
Line Loop(90)= {27, 188,-51,-187};
Surface(90)= {90};
Line Loop(91)= {28, -186,-52,-188};
Surface(91)= {91};
Line Loop(92)= {29, 189,-53,-185};
Surface(92)= {92};
Line Loop(93)= {30, 190,-54,-189};
Surface(93)= {93};
Line Loop(94)= {31, 187,-55,-190};
Surface(94)= {94};
Line Loop(95)= {32, 191,-56,-189};
Surface(95)= {95};
Line Loop(96)= {33, 192,-57,-191};
Surface(96)= {96};
Line Loop(97)= {34, 190,-58,-192};
Surface(97)= {97};
Line Loop(98)= {35, 193,-59,-187};
Surface(98)= {98};
Line Loop(99)= {36, 194,-60,-193};
Surface(99)= {99};
Line Loop(100)= {37, 188,-61,-194};
Surface(100)= {100};
Line Loop(101)= {38, 195,-62,-190};
Surface(101)= {101};
Line Loop(102)= {39, 193,-63,-195};
Surface(102)= {102};
Line Loop(103)= {40, 196,-64,-192};
Surface(103)= {103};
Line Loop(104)= {41, 195,-65,-196};
Surface(104)= {104};
Line Loop(105)= {42, 197,-66,-193};
Surface(105)= {105};
Line Loop(106)= {43, 198,-67,-197};
Surface(106)= {106};
Line Loop(107)= {44, 194,-68,-198};
Surface(107)= {107};
Line Loop(108)= {45, 199,-69,-195};
Surface(108)= {108};
Line Loop(109)= {46, 197,-70,-199};
Surface(109)= {109};
Line Loop(110)= {47, 200,-71,-196};
Surface(110)= {110};
Line Loop(111)= {48, 199,-72,-200};
Surface(111)= {111};
Line Loop(112)= {49, 201,-73,202};
Surface(112)= {112};
Line Loop(113)= {50, 203,-74,-201};
Surface(113)= {113};
Line Loop(114)= {51, 204,-75,-203};
Surface(114)= {114};
Line Loop(115)= {52, -202,-76,-204};
Surface(115)= {115};
Line Loop(116)= {53, 205,-77,-201};
Surface(116)= {116};
Line Loop(117)= {54, 206,-78,-205};
Surface(117)= {117};
Line Loop(118)= {55, 203,-79,-206};
Surface(118)= {118};
Line Loop(119)= {56, 207,-80,-205};
Surface(119)= {119};
Line Loop(120)= {57, 208,-81,-207};
Surface(120)= {120};
Line Loop(121)= {58, 206,-82,-208};
Surface(121)= {121};
Line Loop(122)= {59, 209,-83,-203};
Surface(122)= {122};
Line Loop(123)= {60, 210,-84,-209};
Surface(123)= {123};
Line Loop(124)= {61, 204,-85,-210};
Surface(124)= {124};
Line Loop(125)= {62, 211,-86,-206};
Surface(125)= {125};
Line Loop(126)= {63, 209,-87,-211};
Surface(126)= {126};
Line Loop(127)= {64, 212,-88,-208};
Surface(127)= {127};
Line Loop(128)= {65, 211,-89,-212};
Surface(128)= {128};
Line Loop(129)= {66, 213,-90,-209};
Surface(129)= {129};
Line Loop(130)= {67, 214,-91,-213};
Surface(130)= {130};
Line Loop(131)= {68, 210,-92,-214};
Surface(131)= {131};
Line Loop(132)= {69, 215,-93,-211};
Surface(132)= {132};
Line Loop(133)= {70, 213,-94,-215};
Surface(133)= {133};
Line Loop(134)= {71, 216,-95,-212};
Surface(134)= {134};
Line Loop(135)= {72, 215,-96,-216};
Surface(135)= {135};
Line Loop(136)= {73, 217,-97,218};
Surface(136)= {136};
Line Loop(137)= {74, 219,-98,-217};
Surface(137)= {137};
Line Loop(138)= {75, 220,-99,-219};
Surface(138)= {138};
Line Loop(139)= {76, -218,-100,-220};
Surface(139)= {139};
Line Loop(140)= {77, 221,-101,-217};
Surface(140)= {140};
Line Loop(141)= {78, 222,-102,-221};
Surface(141)= {141};
Line Loop(142)= {79, 219,-103,-222};
Surface(142)= {142};
Line Loop(143)= {80, 223,-104,-221};
Surface(143)= {143};
Line Loop(144)= {81, 224,-105,-223};
Surface(144)= {144};
Line Loop(145)= {82, 222,-106,-224};
Surface(145)= {145};
Line Loop(146)= {83, 225,-107,-219};
Surface(146)= {146};
Line Loop(147)= {84, 226,-108,-225};
Surface(147)= {147};
Line Loop(148)= {85, 220,-109,-226};
Surface(148)= {148};
Line Loop(149)= {86, 227,-110,-222};
Surface(149)= {149};
Line Loop(150)= {87, 225,-111,-227};
Surface(150)= {150};
Line Loop(151)= {88, 228,-112,-224};
Surface(151)= {151};
Line Loop(152)= {89, 227,-113,-228};
Surface(152)= {152};
Line Loop(153)= {90, 229,-114,-225};
Surface(153)= {153};
Line Loop(154)= {91, 230,-115,-229};
Surface(154)= {154};
Line Loop(155)= {92, 226,-116,-230};
Surface(155)= {155};
Line Loop(156)= {93, 231,-117,-227};
Surface(156)= {156};
Line Loop(157)= {94, 229,-118,-231};
Surface(157)= {157};
Line Loop(158)= {95, 232,-119,-228};
Surface(158)= {158};
Line Loop(159)= {96, 231,-120,-232};
Surface(159)= {159};
Line Loop(160)= {97, 233,-121,234};
Surface(160)= {160};
Line Loop(161)= {98, 235,-122,-233};
Surface(161)= {161};
Line Loop(162)= {99, 236,-123,-235};
Surface(162)= {162};
Line Loop(163)= {100, -234,-124,-236};
Surface(163)= {163};
Line Loop(164)= {101, 237,-125,-233};
Surface(164)= {164};
Line Loop(165)= {102, 238,-126,-237};
Surface(165)= {165};
Line Loop(166)= {103, 235,-127,-238};
Surface(166)= {166};
Line Loop(167)= {104, 239,-128,-237};
Surface(167)= {167};
Line Loop(168)= {105, 240,-129,-239};
Surface(168)= {168};
Line Loop(169)= {106, 238,-130,-240};
Surface(169)= {169};
Line Loop(170)= {107, 241,-131,-235};
Surface(170)= {170};
Line Loop(171)= {108, 242,-132,-241};
Surface(171)= {171};
Line Loop(172)= {109, 236,-133,-242};
Surface(172)= {172};
Line Loop(173)= {110, 243,-134,-238};
Surface(173)= {173};
Line Loop(174)= {111, 241,-135,-243};
Surface(174)= {174};
Line Loop(175)= {112, 244,-136,-240};
Surface(175)= {175};
Line Loop(176)= {113, 243,-137,-244};
Surface(176)= {176};
Line Loop(177)= {114, 245,-138,-241};
Surface(177)= {177};
Line Loop(178)= {115, 246,-139,-245};
Surface(178)= {178};
Line Loop(179)= {116, 242,-140,-246};
Surface(179)= {179};
Line Loop(180)= {117, 247,-141,-243};
Surface(180)= {180};
Line Loop(181)= {118, 245,-142,-247};
Surface(181)= {181};
Line Loop(182)= {119, 248,-143,-244};
Surface(182)= {182};
Line Loop(183)= {120, 247,-144,-248};
Surface(183)= {183};
Line Loop(184)= {121, 249,-145,250};
Surface(184)= {184};
Line Loop(185)= {122, 251,-146,-249};
Surface(185)= {185};
Line Loop(186)= {123, 252,-147,-251};
Surface(186)= {186};
Line Loop(187)= {124, -250,-148,-252};
Surface(187)= {187};
Line Loop(188)= {125, 253,-149,-249};
Surface(188)= {188};
Line Loop(189)= {126, 254,-150,-253};
Surface(189)= {189};
Line Loop(190)= {127, 251,-151,-254};
Surface(190)= {190};
Line Loop(191)= {128, 255,-152,-253};
Surface(191)= {191};
Line Loop(192)= {129, 256,-153,-255};
Surface(192)= {192};
Line Loop(193)= {130, 254,-154,-256};
Surface(193)= {193};
Line Loop(194)= {131, 257,-155,-251};
Surface(194)= {194};
Line Loop(195)= {132, 258,-156,-257};
Surface(195)= {195};
Line Loop(196)= {133, 252,-157,-258};
Surface(196)= {196};
Line Loop(197)= {134, 259,-158,-254};
Surface(197)= {197};
Line Loop(198)= {135, 257,-159,-259};
Surface(198)= {198};
Line Loop(199)= {136, 260,-160,-256};
Surface(199)= {199};
Line Loop(200)= {137, 259,-161,-260};
Surface(200)= {200};
Line Loop(201)= {138, 261,-162,-257};
Surface(201)= {201};
Line Loop(202)= {139, 262,-163,-261};
Surface(202)= {202};
Line Loop(203)= {140, 258,-164,-262};
Surface(203)= {203};
Line Loop(204)= {141, 263,-165,-259};
Surface(204)= {204};
Line Loop(205)= {142, 261,-166,-263};
Surface(205)= {205};
Line Loop(206)= {143, 264,-167,-260};
Surface(206)= {206};
Line Loop(207)= {144, 263,-168,-264};
Surface(207)= {207};
Surface Loop(1001)= {1, 10,64,65,66,67};
Volume(1001)= {1001};
Surface Loop(1002)= {2, 11,68,69,70,65};
Volume(1002)= {1002};
Surface Loop(1003)= {3, 12,71,72,73,69};
Volume(1003)= {1003};
Surface Loop(1004)= {4, 13,66,74,75,76};
Volume(1004)= {1004};
Surface Loop(1005)= {5, 14,70,77,78,74};
Volume(1005)= {1005};
Surface Loop(1006)= {6, 15,73,79,80,77};
Volume(1006)= {1006};
Surface Loop(1007)= {7, 16,75,81,82,83};
Volume(1007)= {1007};
Surface Loop(1008)= {8, 17,78,84,85,81};
Volume(1008)= {1008};
Surface Loop(1009)= {9, 18,80,86,87,84};
Volume(1009)= {1009};
Surface Loop(1010)= {10, 19,88,89,90,91};
Volume(1010)= {1010};
Surface Loop(1011)= {11, 20,92,93,94,89};
Volume(1011)= {1011};
Surface Loop(1012)= {12, 21,95,96,97,93};
Volume(1012)= {1012};
Surface Loop(1013)= {13, 22,90,98,99,100};
Volume(1013)= {1013};
Surface Loop(1014)= {14, 23,94,101,102,98};
Volume(1014)= {1014};
Surface Loop(1015)= {15, 24,97,103,104,101};
Volume(1015)= {1015};
Surface Loop(1016)= {16, 25,99,105,106,107};
Volume(1016)= {1016};
Surface Loop(1017)= {17, 26,102,108,109,105};
Volume(1017)= {1017};
Surface Loop(1018)= {18, 27,104,110,111,108};
Volume(1018)= {1018};
Surface Loop(1019)= {19, 28,112,113,114,115};
Volume(1019)= {1019};
Surface Loop(1020)= {20, 29,116,117,118,113};
Volume(1020)= {1020};
Surface Loop(1021)= {21, 30,119,120,121,117};
Volume(1021)= {1021};
Surface Loop(1022)= {22, 31,114,122,123,124};
Volume(1022)= {1022};
Surface Loop(1023)= {23, 32,118,125,126,122};
Volume(1023)= {1023};
Surface Loop(1024)= {24, 33,121,127,128,125};
Volume(1024)= {1024};
Surface Loop(1025)= {25, 34,123,129,130,131};
Volume(1025)= {1025};
Surface Loop(1026)= {26, 35,126,132,133,129};
Volume(1026)= {1026};
Surface Loop(1027)= {27, 36,128,134,135,132};
Volume(1027)= {1027};
Surface Loop(1028)= {28, 37,136,137,138,139};
Volume(1028)= {1028};
Surface Loop(1029)= {29, 38,140,141,142,137};
Volume(1029)= {1029};
Surface Loop(1030)= {30, 39,143,144,145,141};
Volume(1030)= {1030};
Surface Loop(1031)= {31, 40,138,146,147,148};
Volume(1031)= {1031};
Surface Loop(1032)= {32, 41,142,149,150,146};
Volume(1032)= {1032};
Surface Loop(1033)= {33, 42,145,151,152,149};
Volume(1033)= {1033};
Surface Loop(1034)= {34, 43,147,153,154,155};
Volume(1034)= {1034};
Surface Loop(1035)= {35, 44,150,156,157,153};
Volume(1035)= {1035};
Surface Loop(1036)= {36, 45,152,158,159,156};
Volume(1036)= {1036};
Surface Loop(1037)= {37, 46,160,161,162,163};
Volume(1037)= {1037};
Surface Loop(1038)= {38, 47,164,165,166,161};
Volume(1038)= {1038};
Surface Loop(1039)= {39, 48,167,168,169,165};
Volume(1039)= {1039};
Surface Loop(1040)= {40, 49,162,170,171,172};
Volume(1040)= {1040};
Surface Loop(1041)= {41, 50,166,173,174,170};
Volume(1041)= {1041};
Surface Loop(1042)= {42, 51,169,175,176,173};
Volume(1042)= {1042};
Surface Loop(1043)= {43, 52,171,177,178,179};
Volume(1043)= {1043};
Surface Loop(1044)= {44, 53,174,180,181,177};
Volume(1044)= {1044};
Surface Loop(1045)= {45, 54,176,182,183,180};
Volume(1045)= {1045};
Surface Loop(1046)= {46, 55,184,185,186,187};
Volume(1046)= {1046};
Surface Loop(1047)= {47, 56,188,189,190,185};
Volume(1047)= {1047};
Surface Loop(1048)= {48, 57,191,192,193,189};
Volume(1048)= {1048};
Surface Loop(1049)= {49, 58,186,194,195,196};
Volume(1049)= {1049};
Surface Loop(1050)= {50, 59,190,197,198,194};
Volume(1050)= {1050};
Surface Loop(1051)= {51, 60,193,199,200,197};
Volume(1051)= {1051};
Surface Loop(1052)= {52, 61,195,201,202,203};
Volume(1052)= {1052};
Surface Loop(1053)= {53, 62,198,204,205,201};
Volume(1053)= {1053};
Surface Loop(1054)= {54, 63,200,206,207,204};
Volume(1054)= {1054};
Physical Surface("noflux")= {1,  67, 2,  3,  72, 4, 76, 5, 6, 79, 7, 82, 83, 8, 85, 9, 87, 86,  91,  96, 100, 103, 106, 107, 109, 111, 110, 112, 115, 116, 119, 120, 124, 127,  131,  134, 136, 139, 140, 143, 144, 148, 151,  155,  158,  163,   168, 172, 175, 178, 179, 181, 183, 182, 55, 187, 56,  57, 192, 58, 196, 59, 60, 199, 61, 202, 203, 62, 205, 63, 207, 206};
Physical Surface("inlet") = {130, 133, 135,154, 157, 159};
Physical Surface("outlet") = {160, 164, 167, 184, 188, 191, 88, 92, 95, 64, 68, 71};

Physical Volume("k33")=Volume{:};
Transfinite Curve{:}=2;
Transfinite Curve{5, 7, 7, 15, 15, 22, 29, 31, 31, 39, 39, 46, 53, 55, 55, 63, 63, 70, 77, 79, 79, 87, 87, 94, 101, 103, 103, 111, 111, 118, 125, 127, 127, 135, 135, 142, 149, 151, 151, 159, 159, 166}=7;
Transfinite Curve{11, 13, 14, 11, 16, 14, 35, 37, 38, 35, 40, 38, 59, 61, 62, 59, 64, 62, 83, 85, 86, 83, 88, 86, 107, 109, 110, 107, 112, 110, 131, 133, 134, 131, 136, 134, 155, 157, 158, 155, 160, 158}=35;
Transfinite Curve{185, 186, 187, 188, 189, 190, 191, 192, 193, 194, 195, 196, 197, 198, 199, 200, 233, 234, 235, 236, 237, 238, 239, 240, 241, 242, 243, 244, 245, 246, 247, 248}=5;
Transfinite Curve{201, 202, 203, 204, 205, 206, 207, 208, 209, 210, 211, 212, 213, 214, 215, 216, 217, 218, 219, 220, 221, 222, 223, 224, 225, 226, 227, 228, 229, 230, 231, 232}=3;
Transfinite Surface{:};
Transfinite Volume{:};
Recombine Surface{:};
Recombine Volume{:};//+

